%TF.GenerationSoftware,KiCad,Pcbnew,8.0.4*%
%TF.CreationDate,2024-09-29T14:54:36-07:00*%
%TF.ProjectId,PACE_PCB,50414345-5f50-4434-922e-6b696361645f,rev?*%
%TF.SameCoordinates,Original*%
%TF.FileFunction,Copper,L1,Top*%
%TF.FilePolarity,Positive*%
%FSLAX46Y46*%
G04 Gerber Fmt 4.6, Leading zero omitted, Abs format (unit mm)*
G04 Created by KiCad (PCBNEW 8.0.4) date 2024-09-29 14:54:36*
%MOMM*%
%LPD*%
G01*
G04 APERTURE LIST*
G04 Aperture macros list*
%AMRoundRect*
0 Rectangle with rounded corners*
0 $1 Rounding radius*
0 $2 $3 $4 $5 $6 $7 $8 $9 X,Y pos of 4 corners*
0 Add a 4 corners polygon primitive as box body*
4,1,4,$2,$3,$4,$5,$6,$7,$8,$9,$2,$3,0*
0 Add four circle primitives for the rounded corners*
1,1,$1+$1,$2,$3*
1,1,$1+$1,$4,$5*
1,1,$1+$1,$6,$7*
1,1,$1+$1,$8,$9*
0 Add four rect primitives between the rounded corners*
20,1,$1+$1,$2,$3,$4,$5,0*
20,1,$1+$1,$4,$5,$6,$7,0*
20,1,$1+$1,$6,$7,$8,$9,0*
20,1,$1+$1,$8,$9,$2,$3,0*%
G04 Aperture macros list end*
%TA.AperFunction,ComponentPad*%
%ADD10RoundRect,0.250000X0.350000X0.625000X-0.350000X0.625000X-0.350000X-0.625000X0.350000X-0.625000X0*%
%TD*%
%TA.AperFunction,ComponentPad*%
%ADD11O,1.200000X1.750000*%
%TD*%
%TA.AperFunction,ComponentPad*%
%ADD12R,2.600000X2.600000*%
%TD*%
%TA.AperFunction,ComponentPad*%
%ADD13C,2.600000*%
%TD*%
%TA.AperFunction,ComponentPad*%
%ADD14C,1.600000*%
%TD*%
%TA.AperFunction,ComponentPad*%
%ADD15O,1.600000X1.600000*%
%TD*%
%TA.AperFunction,ComponentPad*%
%ADD16R,2.200000X2.200000*%
%TD*%
%TA.AperFunction,ComponentPad*%
%ADD17O,2.200000X2.200000*%
%TD*%
%TA.AperFunction,ComponentPad*%
%ADD18R,2.000000X1.905000*%
%TD*%
%TA.AperFunction,ComponentPad*%
%ADD19O,2.000000X1.905000*%
%TD*%
%TA.AperFunction,ComponentPad*%
%ADD20RoundRect,0.250000X0.625000X-0.350000X0.625000X0.350000X-0.625000X0.350000X-0.625000X-0.350000X0*%
%TD*%
%TA.AperFunction,ComponentPad*%
%ADD21O,1.750000X1.200000*%
%TD*%
%TA.AperFunction,ComponentPad*%
%ADD22RoundRect,0.250000X-0.350000X-0.625000X0.350000X-0.625000X0.350000X0.625000X-0.350000X0.625000X0*%
%TD*%
%TA.AperFunction,ComponentPad*%
%ADD23R,1.700000X1.700000*%
%TD*%
%TA.AperFunction,ComponentPad*%
%ADD24O,1.700000X1.700000*%
%TD*%
%TA.AperFunction,ViaPad*%
%ADD25C,2.000000*%
%TD*%
%TA.AperFunction,ViaPad*%
%ADD26C,0.600000*%
%TD*%
%TA.AperFunction,Conductor*%
%ADD27C,0.800000*%
%TD*%
%TA.AperFunction,Conductor*%
%ADD28C,2.500000*%
%TD*%
%TA.AperFunction,Conductor*%
%ADD29C,2.000000*%
%TD*%
%TA.AperFunction,Conductor*%
%ADD30C,1.500000*%
%TD*%
%TA.AperFunction,Conductor*%
%ADD31C,0.500000*%
%TD*%
%TA.AperFunction,Conductor*%
%ADD32C,1.000000*%
%TD*%
%TA.AperFunction,Conductor*%
%ADD33C,0.600000*%
%TD*%
%TA.AperFunction,Conductor*%
%ADD34C,0.200000*%
%TD*%
%TA.AperFunction,Conductor*%
%ADD35C,1.800000*%
%TD*%
%TA.AperFunction,Conductor*%
%ADD36C,0.300000*%
%TD*%
G04 APERTURE END LIST*
D10*
%TO.P,J1,1,Pin_1*%
%TO.N,+5V*%
X120000000Y-55250000D03*
D11*
%TO.P,J1,2,Pin_2*%
%TO.N,GND*%
X118000000Y-55250000D03*
%TO.P,J1,3,Pin_3*%
%TO.N,+5V*%
X116000000Y-55250000D03*
%TO.P,J1,4,Pin_4*%
%TO.N,GND*%
X114000000Y-55250000D03*
%TD*%
D12*
%TO.P,12v+1,1*%
%TO.N,GND*%
X115200000Y-66750000D03*
D13*
%TO.P,12v+1,2*%
%TO.N,+12V*%
X109200000Y-66750000D03*
%TO.P,12v+1,3*%
%TO.N,N/C*%
X112200000Y-71450000D03*
%TD*%
D14*
%TO.P,R4,1*%
%TO.N,/PhotoResistor*%
X147745000Y-65500000D03*
D15*
%TO.P,R4,2*%
%TO.N,GND*%
X137585000Y-65500000D03*
%TD*%
D16*
%TO.P,D1,1,K*%
%TO.N,Net-(D1-K)*%
X128310000Y-77500000D03*
D17*
%TO.P,D1,2,A*%
%TO.N,Net-(D1-A)*%
X120690000Y-77500000D03*
%TD*%
D18*
%TO.P,Q1,1,G*%
%TO.N,/Pump 2*%
X133555000Y-75960000D03*
D19*
%TO.P,Q1,2,D*%
%TO.N,Net-(D1-K)*%
X133555000Y-78500000D03*
%TO.P,Q1,3,S*%
%TO.N,GND*%
X133555000Y-81040000D03*
%TD*%
D14*
%TO.P,C1,1*%
%TO.N,+12V*%
X105250000Y-58000000D03*
%TO.P,C1,2*%
%TO.N,GND*%
X107750000Y-58000000D03*
%TD*%
D18*
%TO.P,Q2,1,G*%
%TO.N,/Pump 1*%
X132055000Y-62960000D03*
D19*
%TO.P,Q2,2,D*%
%TO.N,Net-(D2-K)*%
X132055000Y-65500000D03*
%TO.P,Q2,3,S*%
%TO.N,GND*%
X132055000Y-68040000D03*
%TD*%
D14*
%TO.P,R1,1*%
%TO.N,/Pump 2*%
X129580000Y-74000000D03*
D15*
%TO.P,R1,2*%
%TO.N,GND*%
X119420000Y-74000000D03*
%TD*%
D16*
%TO.P,D3,1,K*%
%TO.N,Net-(D3-K)*%
X158500000Y-65940000D03*
D17*
%TO.P,D3,2,A*%
%TO.N,Net-(D3-A)*%
X158500000Y-73560000D03*
%TD*%
D20*
%TO.P,LEDs1,1,Pin_1*%
%TO.N,Net-(LEDs1-Pin_1)*%
X165000000Y-58500000D03*
D21*
%TO.P,LEDs1,2,Pin_2*%
%TO.N,+5V*%
X165000000Y-56500000D03*
%TO.P,LEDs1,3,Pin_3*%
%TO.N,GND*%
X165000000Y-54500000D03*
%TD*%
D12*
%TO.P,5V+1,1*%
%TO.N,GND*%
X115000000Y-79000000D03*
D13*
%TO.P,5V+1,2*%
%TO.N,+5V*%
X109000000Y-79000000D03*
%TO.P,5V+1,3*%
%TO.N,N/C*%
X112000000Y-83700000D03*
%TD*%
D18*
%TO.P,Q3,1,G*%
%TO.N,/Stir Motors 1*%
X153000000Y-67750000D03*
D19*
%TO.P,Q3,2,D*%
%TO.N,Net-(D3-K)*%
X153000000Y-70290000D03*
%TO.P,Q3,3,S*%
%TO.N,GND*%
X153000000Y-72830000D03*
%TD*%
D10*
%TO.P,SD1,1,Pin_1*%
%TO.N,GND*%
X135238000Y-55262000D03*
D11*
%TO.P,SD1,2,Pin_2*%
%TO.N,+5V*%
X133238000Y-55262000D03*
%TO.P,SD1,3,Pin_3*%
%TO.N,/SD MISO*%
X131238000Y-55262000D03*
%TO.P,SD1,4,Pin_4*%
%TO.N,/SD MOSI*%
X129238000Y-55262000D03*
%TO.P,SD1,5,Pin_5*%
%TO.N,/SD SCK *%
X127238000Y-55262000D03*
%TO.P,SD1,6,Pin_6*%
%TO.N,/SD CS*%
X125238000Y-55262000D03*
%TD*%
D20*
%TO.P,RotaryEncoder1,1,Pin_1*%
%TO.N,/Rotoary Encoder ENCB*%
X165000000Y-92500000D03*
D21*
%TO.P,RotaryEncoder1,2,Pin_2*%
%TO.N,/Rotoary Encoder ENCA*%
X165000000Y-90500000D03*
%TO.P,RotaryEncoder1,3,Pin_3*%
%TO.N,/Rotoary Encoder SW*%
X165000000Y-88500000D03*
%TO.P,RotaryEncoder1,4,Pin_4*%
%TO.N,GND*%
X165000000Y-86500000D03*
%TO.P,RotaryEncoder1,5,Pin_5*%
X165000000Y-84500000D03*
%TD*%
D14*
%TO.P,C2,1*%
%TO.N,+5V*%
X106250000Y-89000000D03*
%TO.P,C2,2*%
%TO.N,GND*%
X108750000Y-89000000D03*
%TD*%
%TO.P,R6,1*%
%TO.N,Net-(LEDs1-Pin_1)*%
X161500000Y-54000000D03*
D15*
%TO.P,R6,2*%
%TO.N,/RGB{slash}UV LEDs*%
X151340000Y-54000000D03*
%TD*%
D14*
%TO.P,R3,1*%
%TO.N,/Stir Motors 1*%
X147745000Y-70000000D03*
D15*
%TO.P,R3,2*%
%TO.N,GND*%
X137585000Y-70000000D03*
%TD*%
D20*
%TO.P,StirMotors1,1,Pin_1*%
%TO.N,Net-(D3-A)*%
X165000000Y-78500000D03*
D21*
%TO.P,StirMotors1,2,Pin_2*%
%TO.N,+5V*%
X165000000Y-76500000D03*
%TO.P,StirMotors1,3,Pin_3*%
%TO.N,Net-(D3-A)*%
X165000000Y-74500000D03*
%TO.P,StirMotors1,4,Pin_4*%
%TO.N,+5V*%
X165000000Y-72500000D03*
%TO.P,StirMotors1,5,Pin_5*%
%TO.N,Net-(D3-A)*%
X165000000Y-70500000D03*
%TO.P,StirMotors1,6,Pin_6*%
%TO.N,+5V*%
X165000000Y-68500000D03*
%TO.P,StirMotors1,7,Pin_7*%
%TO.N,Net-(D3-A)*%
X165000000Y-66500000D03*
%TO.P,StirMotors1,8,Pin_8*%
%TO.N,+5V*%
X165000000Y-64500000D03*
%TD*%
D10*
%TO.P,Pumps1,1,Pin_1*%
%TO.N,+12V*%
X109000000Y-50500000D03*
D11*
%TO.P,Pumps1,2,Pin_2*%
%TO.N,Net-(D2-A)*%
X107000000Y-50500000D03*
%TO.P,Pumps1,3,Pin_3*%
%TO.N,+12V*%
X105000000Y-50500000D03*
%TO.P,Pumps1,4,Pin_4*%
%TO.N,Net-(D1-A)*%
X103000000Y-50500000D03*
%TD*%
D10*
%TO.P,OD1,1,Pin_1*%
%TO.N,/PhotoResistor*%
X147238000Y-55262000D03*
D11*
%TO.P,OD1,2,Pin_2*%
%TO.N,+5V*%
X145238000Y-55262000D03*
%TO.P,OD1,3,Pin_3*%
X143238000Y-55262000D03*
%TO.P,OD1,4,Pin_4*%
%TO.N,/PhotoResistor2*%
X141238000Y-55262000D03*
%TD*%
D14*
%TO.P,R5,1*%
%TO.N,/PhotoResistor2*%
X137585000Y-61000000D03*
D15*
%TO.P,R5,2*%
%TO.N,GND*%
X147745000Y-61000000D03*
%TD*%
D22*
%TO.P,LCD1,1,Pin_1*%
%TO.N,/LCD SCL*%
X103000000Y-96500000D03*
D11*
%TO.P,LCD1,2,Pin_2*%
%TO.N,/LCD SDA*%
X105000000Y-96500000D03*
%TO.P,LCD1,3,Pin_3*%
%TO.N,+5V*%
X107000000Y-96500000D03*
%TO.P,LCD1,4,Pin_4*%
%TO.N,GND*%
X109000000Y-96500000D03*
%TD*%
D16*
%TO.P,D2,1,K*%
%TO.N,Net-(D2-K)*%
X127310000Y-66500000D03*
D17*
%TO.P,D2,2,A*%
%TO.N,Net-(D2-A)*%
X119690000Y-66500000D03*
%TD*%
D14*
%TO.P,R2,1*%
%TO.N,/Pump 1*%
X128580000Y-63000000D03*
D15*
%TO.P,R2,2*%
%TO.N,GND*%
X118420000Y-63000000D03*
%TD*%
D14*
%TO.P,C3,1*%
%TO.N,+5V*%
X156000000Y-62000000D03*
%TO.P,C3,2*%
%TO.N,Net-(D3-A)*%
X156000000Y-59500000D03*
%TD*%
D23*
%TO.P,Pins7-1,1,Pin_1*%
%TO.N,unconnected-(Pins7-1-Pin_1-Pad1)*%
X145800000Y-49400000D03*
D24*
%TO.P,Pins7-1,2,Pin_2*%
%TO.N,/RGB{slash}UV LEDs*%
X148340000Y-49400000D03*
%TO.P,Pins7-1,3,Pin_3*%
%TO.N,/Stir Motors 1*%
X150880000Y-49400000D03*
%TO.P,Pins7-1,4,Pin_4*%
%TO.N,/Rotoary Encoder SW*%
X153420000Y-49400000D03*
%TO.P,Pins7-1,5,Pin_5*%
%TO.N,/Rotoary Encoder ENCB*%
X155960000Y-49400000D03*
%TO.P,Pins7-1,6,Pin_6*%
%TO.N,/Rotoary Encoder ENCA*%
X158500000Y-49400000D03*
%TO.P,Pins7-1,7,Pin_7*%
%TO.N,unconnected-(Pins7-1-Pin_7-Pad7)*%
X161040000Y-49400000D03*
%TO.P,Pins7-1,8,Pin_8*%
%TO.N,unconnected-(Pins7-1-Pin_8-Pad8)*%
X163580000Y-49400000D03*
%TD*%
D23*
%TO.P,PinsIOREF-Vin1,1,Pin_1*%
%TO.N,unconnected-(PinsIOREF-Vin1-Pin_1-Pad1)*%
X145800000Y-97800000D03*
D24*
%TO.P,PinsIOREF-Vin1,2,Pin_2*%
%TO.N,unconnected-(PinsIOREF-Vin1-Pin_2-Pad2)*%
X143260000Y-97800000D03*
%TO.P,PinsIOREF-Vin1,3,Pin_3*%
%TO.N,GND*%
X140720000Y-97800000D03*
%TO.P,PinsIOREF-Vin1,4,Pin_4*%
%TO.N,unconnected-(PinsIOREF-Vin1-Pin_4-Pad4)*%
X138180000Y-97800000D03*
%TO.P,PinsIOREF-Vin1,5,Pin_5*%
%TO.N,unconnected-(PinsIOREF-Vin1-Pin_5-Pad5)*%
X135640000Y-97800000D03*
%TO.P,PinsIOREF-Vin1,6,Pin_6*%
%TO.N,unconnected-(PinsIOREF-Vin1-Pin_6-Pad6)*%
X133100000Y-97800000D03*
%TO.P,PinsIOREF-Vin1,7,Pin_7*%
%TO.N,unconnected-(PinsIOREF-Vin1-Pin_7-Pad7)*%
X130560000Y-97800000D03*
%TO.P,PinsIOREF-Vin1,8,Pin_8*%
%TO.N,unconnected-(PinsIOREF-Vin1-Pin_8-Pad8)*%
X128020000Y-97800000D03*
%TD*%
D23*
%TO.P,PinsA0-A1,1,Pin_1*%
%TO.N,/LCD SCL*%
X163680000Y-97800000D03*
D24*
%TO.P,PinsA0-A1,2,Pin_2*%
%TO.N,/LCD SDA*%
X161140000Y-97800000D03*
%TO.P,PinsA0-A1,3,Pin_3*%
%TO.N,/Pump 2*%
X158600000Y-97800000D03*
%TO.P,PinsA0-A1,4,Pin_4*%
%TO.N,unconnected-(PinsA0-A1-Pin_4-Pad4)*%
X156060000Y-97800000D03*
%TO.P,PinsA0-A1,5,Pin_5*%
%TO.N,/PhotoResistor2*%
X153520000Y-97800000D03*
%TO.P,PinsA0-A1,6,Pin_6*%
%TO.N,/PhotoResistor*%
X150980000Y-97800000D03*
%TD*%
D23*
%TO.P,PinsAREF-1,1,Pin_1*%
%TO.N,unconnected-(PinsAREF-1-Pin_1-Pad1)*%
X118752000Y-49400000D03*
D24*
%TO.P,PinsAREF-1,2,Pin_2*%
%TO.N,unconnected-(PinsAREF-1-Pin_2-Pad2)*%
X121292000Y-49400000D03*
%TO.P,PinsAREF-1,3,Pin_3*%
%TO.N,unconnected-(PinsAREF-1-Pin_3-Pad3)*%
X123832000Y-49400000D03*
%TO.P,PinsAREF-1,4,Pin_4*%
%TO.N,unconnected-(PinsAREF-1-Pin_4-Pad4)*%
X126372000Y-49400000D03*
%TO.P,PinsAREF-1,5,Pin_5*%
%TO.N,/SD SCK *%
X128912000Y-49400000D03*
%TO.P,PinsAREF-1,6,Pin_6*%
%TO.N,/SD MISO*%
X131452000Y-49400000D03*
%TO.P,PinsAREF-1,7,Pin_7*%
%TO.N,/SD MOSI*%
X133992000Y-49400000D03*
%TO.P,PinsAREF-1,8,Pin_8*%
%TO.N,/SD CS*%
X136532000Y-49400000D03*
%TO.P,PinsAREF-1,9,Pin_9*%
%TO.N,/Pump 1*%
X139072000Y-49400000D03*
%TO.P,PinsAREF-1,10,Pin_10*%
%TO.N,unconnected-(PinsAREF-1-Pin_10-Pad10)*%
X141612000Y-49400000D03*
%TD*%
D25*
%TO.N,GND*%
X152000000Y-57000000D03*
X146500000Y-73500000D03*
D26*
%TO.N,/Rotoary Encoder SW*%
X156500000Y-54000000D03*
%TD*%
D27*
%TO.N,GND*%
X110500000Y-55250000D02*
X107750000Y-58000000D01*
X114000000Y-55250000D02*
X110500000Y-55250000D01*
X114750000Y-53750000D02*
X114000000Y-54500000D01*
X118000000Y-54500000D02*
X117250000Y-53750000D01*
X114000000Y-54500000D02*
X114000000Y-55250000D01*
X118000000Y-55250000D02*
X118000000Y-54500000D01*
X117250000Y-53750000D02*
X114750000Y-53750000D01*
%TO.N,+5V*%
X120000000Y-56500000D02*
X120000000Y-55250000D01*
X116000000Y-56500000D02*
X116500000Y-57000000D01*
X116000000Y-55250000D02*
X116000000Y-56500000D01*
X116500000Y-57000000D02*
X119500000Y-57000000D01*
X119500000Y-57000000D02*
X120000000Y-56500000D01*
X124500000Y-59750000D02*
X127250000Y-59750000D01*
X120000000Y-55250000D02*
X124500000Y-59750000D01*
D28*
X128500000Y-58500000D02*
X127250000Y-59750000D01*
X127250000Y-59750000D02*
X122500000Y-64500000D01*
D29*
X141238000Y-51762000D02*
X143238000Y-53762000D01*
D30*
X166250000Y-61750000D02*
X161250000Y-61750000D01*
X167000000Y-61000000D02*
X166250000Y-61750000D01*
D31*
X143000000Y-55920000D02*
X143500000Y-55920000D01*
D32*
X161250000Y-65250000D02*
X164000000Y-68000000D01*
D29*
X143238000Y-53762000D02*
X143238000Y-55262000D01*
D28*
X113796245Y-76000000D02*
X112000000Y-76000000D01*
D32*
X161250000Y-64750000D02*
X161250000Y-65750000D01*
D28*
X122500000Y-67296245D02*
X113796245Y-76000000D01*
D30*
X167000000Y-56500000D02*
X167000000Y-61000000D01*
D29*
X145238000Y-55990706D02*
X145238000Y-56294538D01*
X133238000Y-53024000D02*
X134500000Y-51762000D01*
D28*
X106250000Y-81750000D02*
X106250000Y-89000000D01*
D32*
X164000000Y-76500000D02*
X161250000Y-73750000D01*
D29*
X145238000Y-55990706D02*
X145238000Y-55262000D01*
D32*
X161250000Y-63000000D02*
X162750000Y-64500000D01*
D29*
X147943462Y-59000000D02*
X149614353Y-59000000D01*
D28*
X122500000Y-64500000D02*
X122500000Y-67296245D01*
D29*
X133238000Y-57262000D02*
X133238000Y-53024000D01*
X106250000Y-89000000D02*
X106250000Y-92500000D01*
D30*
X165000000Y-56500000D02*
X167000000Y-56500000D01*
D29*
X145238000Y-55262000D02*
X143238000Y-55262000D01*
D32*
X164000000Y-72000000D02*
X165000000Y-72000000D01*
X165000000Y-76500000D02*
X164000000Y-76500000D01*
D33*
X145238000Y-55262000D02*
X145238000Y-54762000D01*
D29*
X106250000Y-92500000D02*
X107000000Y-93250000D01*
X149614353Y-59000000D02*
X152614353Y-62000000D01*
D32*
X164000000Y-68000000D02*
X165000000Y-68000000D01*
D28*
X112000000Y-76000000D02*
X106250000Y-81750000D01*
D29*
X134500000Y-51762000D02*
X141238000Y-51762000D01*
D32*
X161250000Y-61750000D02*
X161250000Y-64750000D01*
D33*
X145238000Y-55262000D02*
X145238000Y-55304588D01*
D32*
X161250000Y-73750000D02*
X161250000Y-69250000D01*
X161250000Y-64750000D02*
X161250000Y-69250000D01*
D29*
X145238000Y-56294538D02*
X147943462Y-59000000D01*
D32*
X162750000Y-64500000D02*
X165000000Y-64500000D01*
D29*
X152614353Y-62000000D02*
X160500000Y-62000000D01*
D28*
X133000000Y-58500000D02*
X129500000Y-58500000D01*
D32*
X161250000Y-69250000D02*
X164000000Y-72000000D01*
D29*
X107000000Y-96500000D02*
X107000000Y-93250000D01*
D30*
%TO.N,GND*%
X153000000Y-72830000D02*
X154250000Y-72830000D01*
D29*
X162500000Y-57000000D02*
X152000000Y-57000000D01*
X152330000Y-73500000D02*
X153000000Y-72830000D01*
D31*
X119420000Y-74000000D02*
X119420000Y-74420000D01*
D29*
X146500000Y-73500000D02*
X152330000Y-73500000D01*
X165000000Y-54500000D02*
X164179416Y-54500000D01*
D31*
X119420000Y-74420000D02*
X115000000Y-78840000D01*
X116200000Y-66220000D02*
X115200000Y-66220000D01*
D30*
X154250000Y-72830000D02*
X165000000Y-83580000D01*
X165000000Y-84500000D02*
X165000000Y-86500000D01*
D29*
X162500000Y-56179416D02*
X162500000Y-57000000D01*
X164179416Y-54500000D02*
X162500000Y-56179416D01*
D34*
X115000000Y-78840000D02*
X115000000Y-79000000D01*
D31*
X118420000Y-63000000D02*
X115200000Y-66220000D01*
D30*
X165000000Y-83580000D02*
X165000000Y-84500000D01*
%TO.N,Net-(D3-K)*%
X158500000Y-65940000D02*
X158500000Y-66750000D01*
X154960000Y-70290000D02*
X153000000Y-70290000D01*
X158500000Y-66750000D02*
X154960000Y-70290000D01*
D35*
%TO.N,+12V*%
X105000000Y-48500000D02*
X109000000Y-48500000D01*
D29*
X105000000Y-50500000D02*
X105000000Y-62550000D01*
X109000000Y-48500000D02*
X109000000Y-50500000D01*
X105000000Y-62550000D02*
X109200000Y-66750000D01*
X105000000Y-50500000D02*
X105000000Y-48500000D01*
D31*
%TO.N,/Rotoary Encoder SW*%
X153420000Y-50920000D02*
X153420000Y-49400000D01*
X156500000Y-54000000D02*
X153420000Y-50920000D01*
D34*
%TO.N,/SD SCK *%
X129000000Y-49020000D02*
X128880000Y-48900000D01*
D31*
%TO.N,/SD MOSI*%
X129238000Y-55262000D02*
X129238000Y-53654000D01*
X129238000Y-53654000D02*
X133992000Y-48900000D01*
D34*
%TO.N,/SD CS*%
X136032000Y-48900000D02*
X134632000Y-47500000D01*
X125222000Y-48223653D02*
X125222000Y-55246000D01*
X125945653Y-47500000D02*
X125222000Y-48223653D01*
X134632000Y-47500000D02*
X125945653Y-47500000D01*
X125222000Y-55246000D02*
X125238000Y-55262000D01*
D31*
%TO.N,/Pump 2*%
X130000000Y-74000000D02*
X131595000Y-74000000D01*
D36*
X149950000Y-98950000D02*
X150000000Y-99000000D01*
X157400000Y-99000000D02*
X158600000Y-97800000D01*
X150000000Y-99000000D02*
X157400000Y-99000000D01*
D31*
X133555000Y-75960000D02*
X145500000Y-87905000D01*
X145500000Y-87905000D02*
X145500000Y-94500000D01*
X145500000Y-94500000D02*
X149950000Y-98950000D01*
X131595000Y-74000000D02*
X133555000Y-75960000D01*
%TO.N,/Stir Motors 1*%
X153000000Y-67750000D02*
X150830000Y-67750000D01*
X150830000Y-67750000D02*
X148580000Y-70000000D01*
%TO.N,/PhotoResistor2*%
X144000000Y-85415050D02*
X144000000Y-67915000D01*
X141238000Y-56847000D02*
X141238000Y-55262000D01*
X137335000Y-60750000D02*
X141238000Y-56847000D01*
X153520000Y-97800000D02*
X146200000Y-90480000D01*
X146200000Y-87615050D02*
X144000000Y-85415050D01*
X146200000Y-90480000D02*
X146200000Y-87615050D01*
X144000000Y-67915000D02*
X137335000Y-61250000D01*
%TD*%
M02*
