%TF.GenerationSoftware,KiCad,Pcbnew,8.0.4*%
%TF.CreationDate,2024-09-29T14:54:36-07:00*%
%TF.ProjectId,PACE_PCB,50414345-5f50-4434-922e-6b696361645f,rev?*%
%TF.SameCoordinates,Original*%
%TF.FileFunction,Soldermask,Bot*%
%TF.FilePolarity,Negative*%
%FSLAX46Y46*%
G04 Gerber Fmt 4.6, Leading zero omitted, Abs format (unit mm)*
G04 Created by KiCad (PCBNEW 8.0.4) date 2024-09-29 14:54:36*
%MOMM*%
%LPD*%
G01*
G04 APERTURE LIST*
G04 Aperture macros list*
%AMRoundRect*
0 Rectangle with rounded corners*
0 $1 Rounding radius*
0 $2 $3 $4 $5 $6 $7 $8 $9 X,Y pos of 4 corners*
0 Add a 4 corners polygon primitive as box body*
4,1,4,$2,$3,$4,$5,$6,$7,$8,$9,$2,$3,0*
0 Add four circle primitives for the rounded corners*
1,1,$1+$1,$2,$3*
1,1,$1+$1,$4,$5*
1,1,$1+$1,$6,$7*
1,1,$1+$1,$8,$9*
0 Add four rect primitives between the rounded corners*
20,1,$1+$1,$2,$3,$4,$5,0*
20,1,$1+$1,$4,$5,$6,$7,0*
20,1,$1+$1,$6,$7,$8,$9,0*
20,1,$1+$1,$8,$9,$2,$3,0*%
G04 Aperture macros list end*
%ADD10RoundRect,0.250000X0.350000X0.625000X-0.350000X0.625000X-0.350000X-0.625000X0.350000X-0.625000X0*%
%ADD11O,1.200000X1.750000*%
%ADD12R,2.600000X2.600000*%
%ADD13C,2.600000*%
%ADD14C,1.600000*%
%ADD15O,1.600000X1.600000*%
%ADD16R,2.200000X2.200000*%
%ADD17O,2.200000X2.200000*%
%ADD18R,2.000000X1.905000*%
%ADD19O,2.000000X1.905000*%
%ADD20RoundRect,0.250000X0.625000X-0.350000X0.625000X0.350000X-0.625000X0.350000X-0.625000X-0.350000X0*%
%ADD21O,1.750000X1.200000*%
%ADD22RoundRect,0.250000X-0.350000X-0.625000X0.350000X-0.625000X0.350000X0.625000X-0.350000X0.625000X0*%
%ADD23R,1.700000X1.700000*%
%ADD24O,1.700000X1.700000*%
G04 APERTURE END LIST*
D10*
%TO.C,J1*%
X120000000Y-55250000D03*
D11*
X118000000Y-55250000D03*
X116000000Y-55250000D03*
X114000000Y-55250000D03*
%TD*%
D12*
%TO.C,12v+1*%
X115200000Y-66750000D03*
D13*
X109200000Y-66750000D03*
X112200000Y-71450000D03*
%TD*%
D14*
%TO.C,R4*%
X147745000Y-65500000D03*
D15*
X137585000Y-65500000D03*
%TD*%
D16*
%TO.C,D1*%
X128310000Y-77500000D03*
D17*
X120690000Y-77500000D03*
%TD*%
D18*
%TO.C,Q1*%
X133555000Y-75960000D03*
D19*
X133555000Y-78500000D03*
X133555000Y-81040000D03*
%TD*%
D14*
%TO.C,C1*%
X105250000Y-58000000D03*
X107750000Y-58000000D03*
%TD*%
D18*
%TO.C,Q2*%
X132055000Y-62960000D03*
D19*
X132055000Y-65500000D03*
X132055000Y-68040000D03*
%TD*%
D14*
%TO.C,R1*%
X129580000Y-74000000D03*
D15*
X119420000Y-74000000D03*
%TD*%
D16*
%TO.C,D3*%
X158500000Y-65940000D03*
D17*
X158500000Y-73560000D03*
%TD*%
D20*
%TO.C,LEDs1*%
X165000000Y-58500000D03*
D21*
X165000000Y-56500000D03*
X165000000Y-54500000D03*
%TD*%
D12*
%TO.C,5V+1*%
X115000000Y-79000000D03*
D13*
X109000000Y-79000000D03*
X112000000Y-83700000D03*
%TD*%
D18*
%TO.C,Q3*%
X153000000Y-67750000D03*
D19*
X153000000Y-70290000D03*
X153000000Y-72830000D03*
%TD*%
D10*
%TO.C,SD1*%
X135238000Y-55262000D03*
D11*
X133238000Y-55262000D03*
X131238000Y-55262000D03*
X129238000Y-55262000D03*
X127238000Y-55262000D03*
X125238000Y-55262000D03*
%TD*%
D20*
%TO.C,RotaryEncoder1*%
X165000000Y-92500000D03*
D21*
X165000000Y-90500000D03*
X165000000Y-88500000D03*
X165000000Y-86500000D03*
X165000000Y-84500000D03*
%TD*%
D14*
%TO.C,C2*%
X106250000Y-89000000D03*
X108750000Y-89000000D03*
%TD*%
%TO.C,R6*%
X161500000Y-54000000D03*
D15*
X151340000Y-54000000D03*
%TD*%
D14*
%TO.C,R3*%
X147745000Y-70000000D03*
D15*
X137585000Y-70000000D03*
%TD*%
D20*
%TO.C,StirMotors1*%
X165000000Y-78500000D03*
D21*
X165000000Y-76500000D03*
X165000000Y-74500000D03*
X165000000Y-72500000D03*
X165000000Y-70500000D03*
X165000000Y-68500000D03*
X165000000Y-66500000D03*
X165000000Y-64500000D03*
%TD*%
D10*
%TO.C,Pumps1*%
X109000000Y-50500000D03*
D11*
X107000000Y-50500000D03*
X105000000Y-50500000D03*
X103000000Y-50500000D03*
%TD*%
D10*
%TO.C,OD1*%
X147238000Y-55262000D03*
D11*
X145238000Y-55262000D03*
X143238000Y-55262000D03*
X141238000Y-55262000D03*
%TD*%
D14*
%TO.C,R5*%
X137585000Y-61000000D03*
D15*
X147745000Y-61000000D03*
%TD*%
D22*
%TO.C,LCD1*%
X103000000Y-96500000D03*
D11*
X105000000Y-96500000D03*
X107000000Y-96500000D03*
X109000000Y-96500000D03*
%TD*%
D16*
%TO.C,D2*%
X127310000Y-66500000D03*
D17*
X119690000Y-66500000D03*
%TD*%
D14*
%TO.C,R2*%
X128580000Y-63000000D03*
D15*
X118420000Y-63000000D03*
%TD*%
D14*
%TO.C,C3*%
X156000000Y-62000000D03*
X156000000Y-59500000D03*
%TD*%
D23*
%TO.C,Pins7-1*%
X145800000Y-49400000D03*
D24*
X148340000Y-49400000D03*
X150880000Y-49400000D03*
X153420000Y-49400000D03*
X155960000Y-49400000D03*
X158500000Y-49400000D03*
X161040000Y-49400000D03*
X163580000Y-49400000D03*
%TD*%
D23*
%TO.C,PinsIOREF-Vin1*%
X145800000Y-97800000D03*
D24*
X143260000Y-97800000D03*
X140720000Y-97800000D03*
X138180000Y-97800000D03*
X135640000Y-97800000D03*
X133100000Y-97800000D03*
X130560000Y-97800000D03*
X128020000Y-97800000D03*
%TD*%
D23*
%TO.C,PinsA0-A1*%
X163680000Y-97800000D03*
D24*
X161140000Y-97800000D03*
X158600000Y-97800000D03*
X156060000Y-97800000D03*
X153520000Y-97800000D03*
X150980000Y-97800000D03*
%TD*%
D23*
%TO.C,PinsAREF-1*%
X118752000Y-49400000D03*
D24*
X121292000Y-49400000D03*
X123832000Y-49400000D03*
X126372000Y-49400000D03*
X128912000Y-49400000D03*
X131452000Y-49400000D03*
X133992000Y-49400000D03*
X136532000Y-49400000D03*
X139072000Y-49400000D03*
X141612000Y-49400000D03*
%TD*%
M02*
