%TF.GenerationSoftware,KiCad,Pcbnew,8.0.4*%
%TF.CreationDate,2024-09-29T14:54:36-07:00*%
%TF.ProjectId,PACE_PCB,50414345-5f50-4434-922e-6b696361645f,rev?*%
%TF.SameCoordinates,Original*%
%TF.FileFunction,Legend,Bot*%
%TF.FilePolarity,Positive*%
%FSLAX46Y46*%
G04 Gerber Fmt 4.6, Leading zero omitted, Abs format (unit mm)*
G04 Created by KiCad (PCBNEW 8.0.4) date 2024-09-29 14:54:36*
%MOMM*%
%LPD*%
G01*
G04 APERTURE LIST*
%ADD10C,0.120000*%
G04 APERTURE END LIST*
D10*
%TO.C,Pins7-1*%
X144470000Y-48070000D02*
X145800000Y-48070000D01*
X144470000Y-49400000D02*
X144470000Y-48070000D01*
X147070000Y-50730000D02*
X147070000Y-48070000D01*
X164910000Y-48070000D02*
X147070000Y-48070000D01*
X164910000Y-50730000D02*
X147070000Y-50730000D01*
X164910000Y-50730000D02*
X164910000Y-48070000D01*
%TO.C,PinsIOREF-Vin1*%
X126690000Y-96470000D02*
X126690000Y-99130000D01*
X126690000Y-96470000D02*
X144530000Y-96470000D01*
X126690000Y-99130000D02*
X144530000Y-99130000D01*
X144530000Y-96470000D02*
X144530000Y-99130000D01*
X147130000Y-97800000D02*
X147130000Y-99130000D01*
X147130000Y-99130000D02*
X145800000Y-99130000D01*
%TO.C,PinsA0-A1*%
X149650000Y-96470000D02*
X149650000Y-99130000D01*
X149650000Y-96470000D02*
X162410000Y-96470000D01*
X149650000Y-99130000D02*
X162410000Y-99130000D01*
X162410000Y-96470000D02*
X162410000Y-99130000D01*
X165010000Y-97800000D02*
X165010000Y-99130000D01*
X165010000Y-99130000D02*
X163680000Y-99130000D01*
%TO.C,PinsAREF-1*%
X117422000Y-48070000D02*
X118752000Y-48070000D01*
X117422000Y-49400000D02*
X117422000Y-48070000D01*
X120022000Y-50730000D02*
X120022000Y-48070000D01*
X142942000Y-48070000D02*
X120022000Y-48070000D01*
X142942000Y-50730000D02*
X120022000Y-50730000D01*
X142942000Y-50730000D02*
X142942000Y-48070000D01*
%TD*%
M02*
