%TF.GenerationSoftware,KiCad,Pcbnew,8.0.4*%
%TF.CreationDate,2024-09-29T14:54:36-07:00*%
%TF.ProjectId,PACE_PCB,50414345-5f50-4434-922e-6b696361645f,rev?*%
%TF.SameCoordinates,Original*%
%TF.FileFunction,Copper,L2,Bot*%
%TF.FilePolarity,Positive*%
%FSLAX46Y46*%
G04 Gerber Fmt 4.6, Leading zero omitted, Abs format (unit mm)*
G04 Created by KiCad (PCBNEW 8.0.4) date 2024-09-29 14:54:36*
%MOMM*%
%LPD*%
G01*
G04 APERTURE LIST*
G04 Aperture macros list*
%AMRoundRect*
0 Rectangle with rounded corners*
0 $1 Rounding radius*
0 $2 $3 $4 $5 $6 $7 $8 $9 X,Y pos of 4 corners*
0 Add a 4 corners polygon primitive as box body*
4,1,4,$2,$3,$4,$5,$6,$7,$8,$9,$2,$3,0*
0 Add four circle primitives for the rounded corners*
1,1,$1+$1,$2,$3*
1,1,$1+$1,$4,$5*
1,1,$1+$1,$6,$7*
1,1,$1+$1,$8,$9*
0 Add four rect primitives between the rounded corners*
20,1,$1+$1,$2,$3,$4,$5,0*
20,1,$1+$1,$4,$5,$6,$7,0*
20,1,$1+$1,$6,$7,$8,$9,0*
20,1,$1+$1,$8,$9,$2,$3,0*%
G04 Aperture macros list end*
%TA.AperFunction,ComponentPad*%
%ADD10RoundRect,0.250000X0.350000X0.625000X-0.350000X0.625000X-0.350000X-0.625000X0.350000X-0.625000X0*%
%TD*%
%TA.AperFunction,ComponentPad*%
%ADD11O,1.200000X1.750000*%
%TD*%
%TA.AperFunction,ComponentPad*%
%ADD12R,2.600000X2.600000*%
%TD*%
%TA.AperFunction,ComponentPad*%
%ADD13C,2.600000*%
%TD*%
%TA.AperFunction,ComponentPad*%
%ADD14C,1.600000*%
%TD*%
%TA.AperFunction,ComponentPad*%
%ADD15O,1.600000X1.600000*%
%TD*%
%TA.AperFunction,ComponentPad*%
%ADD16R,2.200000X2.200000*%
%TD*%
%TA.AperFunction,ComponentPad*%
%ADD17O,2.200000X2.200000*%
%TD*%
%TA.AperFunction,ComponentPad*%
%ADD18R,2.000000X1.905000*%
%TD*%
%TA.AperFunction,ComponentPad*%
%ADD19O,2.000000X1.905000*%
%TD*%
%TA.AperFunction,ComponentPad*%
%ADD20RoundRect,0.250000X0.625000X-0.350000X0.625000X0.350000X-0.625000X0.350000X-0.625000X-0.350000X0*%
%TD*%
%TA.AperFunction,ComponentPad*%
%ADD21O,1.750000X1.200000*%
%TD*%
%TA.AperFunction,ComponentPad*%
%ADD22RoundRect,0.250000X-0.350000X-0.625000X0.350000X-0.625000X0.350000X0.625000X-0.350000X0.625000X0*%
%TD*%
%TA.AperFunction,ComponentPad*%
%ADD23R,1.700000X1.700000*%
%TD*%
%TA.AperFunction,ComponentPad*%
%ADD24O,1.700000X1.700000*%
%TD*%
%TA.AperFunction,ViaPad*%
%ADD25C,2.000000*%
%TD*%
%TA.AperFunction,ViaPad*%
%ADD26C,0.600000*%
%TD*%
%TA.AperFunction,Conductor*%
%ADD27C,1.500000*%
%TD*%
%TA.AperFunction,Conductor*%
%ADD28C,2.000000*%
%TD*%
%TA.AperFunction,Conductor*%
%ADD29C,0.500000*%
%TD*%
%TA.AperFunction,Conductor*%
%ADD30C,1.450000*%
%TD*%
%TA.AperFunction,Conductor*%
%ADD31C,0.200000*%
%TD*%
%TA.AperFunction,Conductor*%
%ADD32C,0.300000*%
%TD*%
G04 APERTURE END LIST*
D10*
%TO.P,J1,1,Pin_1*%
%TO.N,+5V*%
X120000000Y-55250000D03*
D11*
%TO.P,J1,2,Pin_2*%
%TO.N,GND*%
X118000000Y-55250000D03*
%TO.P,J1,3,Pin_3*%
%TO.N,+5V*%
X116000000Y-55250000D03*
%TO.P,J1,4,Pin_4*%
%TO.N,GND*%
X114000000Y-55250000D03*
%TD*%
D12*
%TO.P,12v+1,1*%
%TO.N,GND*%
X115200000Y-66750000D03*
D13*
%TO.P,12v+1,2*%
%TO.N,+12V*%
X109200000Y-66750000D03*
%TO.P,12v+1,3*%
%TO.N,N/C*%
X112200000Y-71450000D03*
%TD*%
D14*
%TO.P,R4,1*%
%TO.N,/PhotoResistor*%
X147745000Y-65500000D03*
D15*
%TO.P,R4,2*%
%TO.N,GND*%
X137585000Y-65500000D03*
%TD*%
D16*
%TO.P,D1,1,K*%
%TO.N,Net-(D1-K)*%
X128310000Y-77500000D03*
D17*
%TO.P,D1,2,A*%
%TO.N,Net-(D1-A)*%
X120690000Y-77500000D03*
%TD*%
D18*
%TO.P,Q1,1,G*%
%TO.N,/Pump 2*%
X133555000Y-75960000D03*
D19*
%TO.P,Q1,2,D*%
%TO.N,Net-(D1-K)*%
X133555000Y-78500000D03*
%TO.P,Q1,3,S*%
%TO.N,GND*%
X133555000Y-81040000D03*
%TD*%
D14*
%TO.P,C1,1*%
%TO.N,+12V*%
X105250000Y-58000000D03*
%TO.P,C1,2*%
%TO.N,GND*%
X107750000Y-58000000D03*
%TD*%
D18*
%TO.P,Q2,1,G*%
%TO.N,/Pump 1*%
X132055000Y-62960000D03*
D19*
%TO.P,Q2,2,D*%
%TO.N,Net-(D2-K)*%
X132055000Y-65500000D03*
%TO.P,Q2,3,S*%
%TO.N,GND*%
X132055000Y-68040000D03*
%TD*%
D14*
%TO.P,R1,1*%
%TO.N,/Pump 2*%
X129580000Y-74000000D03*
D15*
%TO.P,R1,2*%
%TO.N,GND*%
X119420000Y-74000000D03*
%TD*%
D16*
%TO.P,D3,1,K*%
%TO.N,Net-(D3-K)*%
X158500000Y-65940000D03*
D17*
%TO.P,D3,2,A*%
%TO.N,Net-(D3-A)*%
X158500000Y-73560000D03*
%TD*%
D20*
%TO.P,LEDs1,1,Pin_1*%
%TO.N,Net-(LEDs1-Pin_1)*%
X165000000Y-58500000D03*
D21*
%TO.P,LEDs1,2,Pin_2*%
%TO.N,+5V*%
X165000000Y-56500000D03*
%TO.P,LEDs1,3,Pin_3*%
%TO.N,GND*%
X165000000Y-54500000D03*
%TD*%
D12*
%TO.P,5V+1,1*%
%TO.N,GND*%
X115000000Y-79000000D03*
D13*
%TO.P,5V+1,2*%
%TO.N,+5V*%
X109000000Y-79000000D03*
%TO.P,5V+1,3*%
%TO.N,N/C*%
X112000000Y-83700000D03*
%TD*%
D18*
%TO.P,Q3,1,G*%
%TO.N,/Stir Motors 1*%
X153000000Y-67750000D03*
D19*
%TO.P,Q3,2,D*%
%TO.N,Net-(D3-K)*%
X153000000Y-70290000D03*
%TO.P,Q3,3,S*%
%TO.N,GND*%
X153000000Y-72830000D03*
%TD*%
D10*
%TO.P,SD1,1,Pin_1*%
%TO.N,GND*%
X135238000Y-55262000D03*
D11*
%TO.P,SD1,2,Pin_2*%
%TO.N,+5V*%
X133238000Y-55262000D03*
%TO.P,SD1,3,Pin_3*%
%TO.N,/SD MISO*%
X131238000Y-55262000D03*
%TO.P,SD1,4,Pin_4*%
%TO.N,/SD MOSI*%
X129238000Y-55262000D03*
%TO.P,SD1,5,Pin_5*%
%TO.N,/SD SCK *%
X127238000Y-55262000D03*
%TO.P,SD1,6,Pin_6*%
%TO.N,/SD CS*%
X125238000Y-55262000D03*
%TD*%
D20*
%TO.P,RotaryEncoder1,1,Pin_1*%
%TO.N,/Rotoary Encoder ENCB*%
X165000000Y-92500000D03*
D21*
%TO.P,RotaryEncoder1,2,Pin_2*%
%TO.N,/Rotoary Encoder ENCA*%
X165000000Y-90500000D03*
%TO.P,RotaryEncoder1,3,Pin_3*%
%TO.N,/Rotoary Encoder SW*%
X165000000Y-88500000D03*
%TO.P,RotaryEncoder1,4,Pin_4*%
%TO.N,GND*%
X165000000Y-86500000D03*
%TO.P,RotaryEncoder1,5,Pin_5*%
X165000000Y-84500000D03*
%TD*%
D14*
%TO.P,C2,1*%
%TO.N,+5V*%
X106250000Y-89000000D03*
%TO.P,C2,2*%
%TO.N,GND*%
X108750000Y-89000000D03*
%TD*%
%TO.P,R6,1*%
%TO.N,Net-(LEDs1-Pin_1)*%
X161500000Y-54000000D03*
D15*
%TO.P,R6,2*%
%TO.N,/RGB{slash}UV LEDs*%
X151340000Y-54000000D03*
%TD*%
D14*
%TO.P,R3,1*%
%TO.N,/Stir Motors 1*%
X147745000Y-70000000D03*
D15*
%TO.P,R3,2*%
%TO.N,GND*%
X137585000Y-70000000D03*
%TD*%
D20*
%TO.P,StirMotors1,1,Pin_1*%
%TO.N,Net-(D3-A)*%
X165000000Y-78500000D03*
D21*
%TO.P,StirMotors1,2,Pin_2*%
%TO.N,+5V*%
X165000000Y-76500000D03*
%TO.P,StirMotors1,3,Pin_3*%
%TO.N,Net-(D3-A)*%
X165000000Y-74500000D03*
%TO.P,StirMotors1,4,Pin_4*%
%TO.N,+5V*%
X165000000Y-72500000D03*
%TO.P,StirMotors1,5,Pin_5*%
%TO.N,Net-(D3-A)*%
X165000000Y-70500000D03*
%TO.P,StirMotors1,6,Pin_6*%
%TO.N,+5V*%
X165000000Y-68500000D03*
%TO.P,StirMotors1,7,Pin_7*%
%TO.N,Net-(D3-A)*%
X165000000Y-66500000D03*
%TO.P,StirMotors1,8,Pin_8*%
%TO.N,+5V*%
X165000000Y-64500000D03*
%TD*%
D10*
%TO.P,Pumps1,1,Pin_1*%
%TO.N,+12V*%
X109000000Y-50500000D03*
D11*
%TO.P,Pumps1,2,Pin_2*%
%TO.N,Net-(D2-A)*%
X107000000Y-50500000D03*
%TO.P,Pumps1,3,Pin_3*%
%TO.N,+12V*%
X105000000Y-50500000D03*
%TO.P,Pumps1,4,Pin_4*%
%TO.N,Net-(D1-A)*%
X103000000Y-50500000D03*
%TD*%
D10*
%TO.P,OD1,1,Pin_1*%
%TO.N,/PhotoResistor*%
X147238000Y-55262000D03*
D11*
%TO.P,OD1,2,Pin_2*%
%TO.N,+5V*%
X145238000Y-55262000D03*
%TO.P,OD1,3,Pin_3*%
X143238000Y-55262000D03*
%TO.P,OD1,4,Pin_4*%
%TO.N,/PhotoResistor2*%
X141238000Y-55262000D03*
%TD*%
D14*
%TO.P,R5,1*%
%TO.N,/PhotoResistor2*%
X137585000Y-61000000D03*
D15*
%TO.P,R5,2*%
%TO.N,GND*%
X147745000Y-61000000D03*
%TD*%
D22*
%TO.P,LCD1,1,Pin_1*%
%TO.N,/LCD SCL*%
X103000000Y-96500000D03*
D11*
%TO.P,LCD1,2,Pin_2*%
%TO.N,/LCD SDA*%
X105000000Y-96500000D03*
%TO.P,LCD1,3,Pin_3*%
%TO.N,+5V*%
X107000000Y-96500000D03*
%TO.P,LCD1,4,Pin_4*%
%TO.N,GND*%
X109000000Y-96500000D03*
%TD*%
D16*
%TO.P,D2,1,K*%
%TO.N,Net-(D2-K)*%
X127310000Y-66500000D03*
D17*
%TO.P,D2,2,A*%
%TO.N,Net-(D2-A)*%
X119690000Y-66500000D03*
%TD*%
D14*
%TO.P,R2,1*%
%TO.N,/Pump 1*%
X128580000Y-63000000D03*
D15*
%TO.P,R2,2*%
%TO.N,GND*%
X118420000Y-63000000D03*
%TD*%
D14*
%TO.P,C3,1*%
%TO.N,+5V*%
X156000000Y-62000000D03*
%TO.P,C3,2*%
%TO.N,Net-(D3-A)*%
X156000000Y-59500000D03*
%TD*%
D23*
%TO.P,Pins7-1,1,Pin_1*%
%TO.N,unconnected-(Pins7-1-Pin_1-Pad1)*%
X145800000Y-49400000D03*
D24*
%TO.P,Pins7-1,2,Pin_2*%
%TO.N,/RGB{slash}UV LEDs*%
X148340000Y-49400000D03*
%TO.P,Pins7-1,3,Pin_3*%
%TO.N,/Stir Motors 1*%
X150880000Y-49400000D03*
%TO.P,Pins7-1,4,Pin_4*%
%TO.N,/Rotoary Encoder SW*%
X153420000Y-49400000D03*
%TO.P,Pins7-1,5,Pin_5*%
%TO.N,/Rotoary Encoder ENCB*%
X155960000Y-49400000D03*
%TO.P,Pins7-1,6,Pin_6*%
%TO.N,/Rotoary Encoder ENCA*%
X158500000Y-49400000D03*
%TO.P,Pins7-1,7,Pin_7*%
%TO.N,unconnected-(Pins7-1-Pin_7-Pad7)*%
X161040000Y-49400000D03*
%TO.P,Pins7-1,8,Pin_8*%
%TO.N,unconnected-(Pins7-1-Pin_8-Pad8)*%
X163580000Y-49400000D03*
%TD*%
D23*
%TO.P,PinsIOREF-Vin1,1,Pin_1*%
%TO.N,unconnected-(PinsIOREF-Vin1-Pin_1-Pad1)*%
X145800000Y-97800000D03*
D24*
%TO.P,PinsIOREF-Vin1,2,Pin_2*%
%TO.N,unconnected-(PinsIOREF-Vin1-Pin_2-Pad2)*%
X143260000Y-97800000D03*
%TO.P,PinsIOREF-Vin1,3,Pin_3*%
%TO.N,GND*%
X140720000Y-97800000D03*
%TO.P,PinsIOREF-Vin1,4,Pin_4*%
%TO.N,unconnected-(PinsIOREF-Vin1-Pin_4-Pad4)*%
X138180000Y-97800000D03*
%TO.P,PinsIOREF-Vin1,5,Pin_5*%
%TO.N,unconnected-(PinsIOREF-Vin1-Pin_5-Pad5)*%
X135640000Y-97800000D03*
%TO.P,PinsIOREF-Vin1,6,Pin_6*%
%TO.N,unconnected-(PinsIOREF-Vin1-Pin_6-Pad6)*%
X133100000Y-97800000D03*
%TO.P,PinsIOREF-Vin1,7,Pin_7*%
%TO.N,unconnected-(PinsIOREF-Vin1-Pin_7-Pad7)*%
X130560000Y-97800000D03*
%TO.P,PinsIOREF-Vin1,8,Pin_8*%
%TO.N,unconnected-(PinsIOREF-Vin1-Pin_8-Pad8)*%
X128020000Y-97800000D03*
%TD*%
D23*
%TO.P,PinsA0-A1,1,Pin_1*%
%TO.N,/LCD SCL*%
X163680000Y-97800000D03*
D24*
%TO.P,PinsA0-A1,2,Pin_2*%
%TO.N,/LCD SDA*%
X161140000Y-97800000D03*
%TO.P,PinsA0-A1,3,Pin_3*%
%TO.N,/Pump 2*%
X158600000Y-97800000D03*
%TO.P,PinsA0-A1,4,Pin_4*%
%TO.N,unconnected-(PinsA0-A1-Pin_4-Pad4)*%
X156060000Y-97800000D03*
%TO.P,PinsA0-A1,5,Pin_5*%
%TO.N,/PhotoResistor2*%
X153520000Y-97800000D03*
%TO.P,PinsA0-A1,6,Pin_6*%
%TO.N,/PhotoResistor*%
X150980000Y-97800000D03*
%TD*%
D23*
%TO.P,PinsAREF-1,1,Pin_1*%
%TO.N,unconnected-(PinsAREF-1-Pin_1-Pad1)*%
X118752000Y-49400000D03*
D24*
%TO.P,PinsAREF-1,2,Pin_2*%
%TO.N,unconnected-(PinsAREF-1-Pin_2-Pad2)*%
X121292000Y-49400000D03*
%TO.P,PinsAREF-1,3,Pin_3*%
%TO.N,unconnected-(PinsAREF-1-Pin_3-Pad3)*%
X123832000Y-49400000D03*
%TO.P,PinsAREF-1,4,Pin_4*%
%TO.N,unconnected-(PinsAREF-1-Pin_4-Pad4)*%
X126372000Y-49400000D03*
%TO.P,PinsAREF-1,5,Pin_5*%
%TO.N,/SD SCK *%
X128912000Y-49400000D03*
%TO.P,PinsAREF-1,6,Pin_6*%
%TO.N,/SD MISO*%
X131452000Y-49400000D03*
%TO.P,PinsAREF-1,7,Pin_7*%
%TO.N,/SD MOSI*%
X133992000Y-49400000D03*
%TO.P,PinsAREF-1,8,Pin_8*%
%TO.N,/SD CS*%
X136532000Y-49400000D03*
%TO.P,PinsAREF-1,9,Pin_9*%
%TO.N,/Pump 1*%
X139072000Y-49400000D03*
%TO.P,PinsAREF-1,10,Pin_10*%
%TO.N,unconnected-(PinsAREF-1-Pin_10-Pad10)*%
X141612000Y-49400000D03*
%TD*%
D25*
%TO.N,GND*%
X152000000Y-57000000D03*
X146500000Y-73500000D03*
D26*
%TO.N,/Rotoary Encoder SW*%
X156500000Y-54000000D03*
%TD*%
D27*
%TO.N,GND*%
X133055000Y-68040000D02*
X136000000Y-70985000D01*
X136000000Y-70985000D02*
X136000000Y-81040000D01*
D28*
X110500000Y-89000000D02*
X115000000Y-84500000D01*
D27*
X140720000Y-88205000D02*
X133555000Y-81040000D01*
D28*
X152448405Y-72830000D02*
X153000000Y-72830000D01*
D29*
X141085000Y-61000000D02*
X137585000Y-64500000D01*
D28*
X150500000Y-58500000D02*
X150500000Y-70881595D01*
X115000000Y-84500000D02*
X115000000Y-79000000D01*
X117040000Y-81040000D02*
X115000000Y-79000000D01*
D30*
X107750000Y-59300000D02*
X115200000Y-66750000D01*
D31*
X109000000Y-89250000D02*
X108750000Y-89000000D01*
D28*
X151700000Y-57300000D02*
X150500000Y-58500000D01*
D29*
X136165000Y-56189000D02*
X135238000Y-55262000D01*
X137585000Y-65500000D02*
X137165000Y-65500000D01*
D28*
X150500000Y-70881595D02*
X152448405Y-72830000D01*
D29*
X137165000Y-65500000D02*
X136165000Y-64500000D01*
D28*
X115000000Y-79000000D02*
X115000000Y-66950000D01*
D31*
X152000000Y-57000000D02*
X151700000Y-57300000D01*
D28*
X141960000Y-81040000D02*
X133555000Y-81040000D01*
D27*
X132055000Y-68040000D02*
X133055000Y-68040000D01*
D29*
X136165000Y-64500000D02*
X136165000Y-56189000D01*
X132055000Y-68040000D02*
X135625000Y-68040000D01*
X137585000Y-64500000D02*
X137585000Y-65500000D01*
D28*
X108750000Y-89000000D02*
X110500000Y-89000000D01*
D29*
X133055000Y-68040000D02*
X135595000Y-65500000D01*
D28*
X109000000Y-96500000D02*
X109000000Y-89250000D01*
D27*
X136000000Y-81040000D02*
X133555000Y-81040000D01*
D30*
X107750000Y-58000000D02*
X107750000Y-59300000D01*
D28*
X133555000Y-81040000D02*
X117040000Y-81040000D01*
D29*
X135595000Y-65500000D02*
X137585000Y-65500000D01*
D28*
X146500000Y-76500000D02*
X141960000Y-81040000D01*
D29*
X135625000Y-68040000D02*
X137585000Y-70000000D01*
D27*
X140720000Y-97800000D02*
X140720000Y-88205000D01*
D29*
X147745000Y-61000000D02*
X141085000Y-61000000D01*
D28*
X146500000Y-73500000D02*
X146500000Y-76500000D01*
D29*
%TO.N,Net-(D1-K)*%
X132555000Y-77500000D02*
X133555000Y-78500000D01*
X127810000Y-77500000D02*
X132555000Y-77500000D01*
D31*
X127310000Y-77000000D02*
X127810000Y-77500000D01*
D27*
%TO.N,Net-(D1-A)*%
X119000000Y-77500000D02*
X120190000Y-77500000D01*
X117500000Y-76000000D02*
X119000000Y-77500000D01*
X116500000Y-64000000D02*
X117500000Y-65000000D01*
X103000000Y-51500000D02*
X104000000Y-52500000D01*
X117500000Y-65000000D02*
X117500000Y-76000000D01*
X116250000Y-64000000D02*
X116500000Y-64000000D01*
X103000000Y-50500000D02*
X103000000Y-51500000D01*
X104750000Y-52500000D02*
X116250000Y-64000000D01*
X104000000Y-52500000D02*
X104750000Y-52500000D01*
%TO.N,Net-(D2-A)*%
X107000000Y-51500000D02*
X115500000Y-60000000D01*
X120500000Y-60000000D02*
X120500000Y-65190000D01*
X115500000Y-60000000D02*
X120500000Y-60000000D01*
X120500000Y-65190000D02*
X120000000Y-65690000D01*
X107000000Y-51000000D02*
X107000000Y-51500000D01*
D29*
%TO.N,Net-(D2-K)*%
X131055000Y-66500000D02*
X132055000Y-65500000D01*
X127810000Y-66500000D02*
X131055000Y-66500000D01*
D27*
%TO.N,Net-(D3-A)*%
X162000000Y-68000000D02*
X164500000Y-70500000D01*
X159060000Y-73560000D02*
X163500000Y-78000000D01*
X162500000Y-65500000D02*
X163500000Y-66500000D01*
X163500000Y-78000000D02*
X164000000Y-78500000D01*
X156000000Y-59500000D02*
X162000000Y-65500000D01*
X164500000Y-70500000D02*
X165000000Y-70500000D01*
X162000000Y-72000000D02*
X164500000Y-74500000D01*
X162000000Y-65500000D02*
X162500000Y-65500000D01*
X164500000Y-74500000D02*
X165000000Y-74500000D01*
X158500000Y-73560000D02*
X159060000Y-73560000D01*
X163500000Y-66500000D02*
X165000000Y-66500000D01*
X162000000Y-76500000D02*
X162000000Y-65500000D01*
X163500000Y-78000000D02*
X162000000Y-76500000D01*
X164000000Y-78500000D02*
X165000000Y-78500000D01*
D29*
%TO.N,/RGB{slash}UV LEDs*%
X151340000Y-52400000D02*
X148340000Y-49400000D01*
X151340000Y-54000000D02*
X151340000Y-52400000D01*
%TO.N,/PhotoResistor*%
X147568000Y-55592000D02*
X147238000Y-55262000D01*
X149000000Y-66755000D02*
X147745000Y-65500000D01*
X149000000Y-95820000D02*
X149000000Y-66755000D01*
X149000000Y-64245000D02*
X149000000Y-57024000D01*
X147745000Y-65500000D02*
X149000000Y-64245000D01*
X149000000Y-57024000D02*
X147238000Y-55262000D01*
X150980000Y-97800000D02*
X149000000Y-95820000D01*
D31*
%TO.N,/LCD SCL*%
X103000000Y-96500000D02*
X105850000Y-99350000D01*
D32*
X162130000Y-99350000D02*
X163680000Y-97800000D01*
D31*
X105850000Y-99350000D02*
X162130000Y-99350000D01*
%TO.N,/LCD SDA*%
X105000000Y-96500000D02*
X107450000Y-98950000D01*
X159990000Y-98950000D02*
X161140000Y-97800000D01*
X107450000Y-98950000D02*
X159990000Y-98950000D01*
D29*
%TO.N,/Rotoary Encoder SW*%
X165000000Y-88500000D02*
X166500000Y-87000000D01*
X166500000Y-64000000D02*
X156500000Y-54000000D01*
X166500000Y-87000000D02*
X166500000Y-64000000D01*
%TO.N,/Rotoary Encoder ENCA*%
X158500000Y-55000000D02*
X158500000Y-49400000D01*
X167500000Y-88000000D02*
X167500000Y-64000000D01*
X165000000Y-90500000D02*
X167500000Y-88000000D01*
X167500000Y-64000000D02*
X158500000Y-55000000D01*
%TO.N,/Rotoary Encoder ENCB*%
X154500000Y-50860000D02*
X155960000Y-49400000D01*
X165000000Y-92500000D02*
X154500000Y-82000000D01*
X154500000Y-82000000D02*
X154500000Y-50860000D01*
%TO.N,/SD SCK *%
X127078000Y-55102000D02*
X127238000Y-55262000D01*
X128912000Y-49400000D02*
X127078000Y-51234000D01*
X127078000Y-51234000D02*
X127078000Y-55102000D01*
X128912000Y-48900000D02*
X129340000Y-49328000D01*
%TO.N,/SD MISO*%
X131238000Y-55262000D02*
X131452000Y-55048000D01*
X131452000Y-55048000D02*
X131452000Y-49400000D01*
X131452000Y-49400000D02*
X131238000Y-49614000D01*
D32*
%TO.N,/Pump 1*%
X134288000Y-57712000D02*
X134288000Y-54184000D01*
X132055000Y-62060000D02*
X132055000Y-59945000D01*
D29*
X129080000Y-63000000D02*
X132015000Y-63000000D01*
D32*
X132055000Y-59945000D02*
X134288000Y-57712000D01*
X134288000Y-54184000D02*
X139072000Y-49400000D01*
D29*
%TO.N,/Stir Motors 1*%
X153500000Y-52020000D02*
X150880000Y-49400000D01*
X153500000Y-67250000D02*
X153500000Y-52020000D01*
X153000000Y-67750000D02*
X153500000Y-67250000D01*
D31*
X150855000Y-48925000D02*
X150880000Y-48900000D01*
D32*
X150500000Y-49280000D02*
X150855000Y-48925000D01*
D31*
%TO.N,Net-(LEDs1-Pin_1)*%
X161500000Y-55000000D02*
X161500000Y-54000000D01*
X165000000Y-58500000D02*
X161500000Y-55000000D01*
%TD*%
%TA.AperFunction,Conductor*%
%TO.N,GND*%
G36*
X115943039Y-74019685D02*
G01*
X115988794Y-74072489D01*
X116000000Y-74124000D01*
X116000000Y-77076000D01*
X115980315Y-77143039D01*
X115927511Y-77188794D01*
X115876000Y-77200000D01*
X115250000Y-77200000D01*
X115250000Y-78237639D01*
X115233351Y-78230743D01*
X115078793Y-78200000D01*
X114921207Y-78200000D01*
X114766649Y-78230743D01*
X114750000Y-78237639D01*
X114750000Y-77200000D01*
X113652155Y-77200000D01*
X113592627Y-77206401D01*
X113592620Y-77206403D01*
X113457913Y-77256645D01*
X113457906Y-77256649D01*
X113342812Y-77342809D01*
X113342809Y-77342812D01*
X113256649Y-77457906D01*
X113256645Y-77457913D01*
X113206403Y-77592620D01*
X113206401Y-77592627D01*
X113200000Y-77652155D01*
X113200000Y-78750000D01*
X114237639Y-78750000D01*
X114230743Y-78766649D01*
X114200000Y-78921207D01*
X114200000Y-79078793D01*
X114230743Y-79233351D01*
X114237639Y-79250000D01*
X113200000Y-79250000D01*
X113200000Y-80347844D01*
X113206401Y-80407372D01*
X113206403Y-80407379D01*
X113256645Y-80542086D01*
X113256649Y-80542093D01*
X113342809Y-80657187D01*
X113342812Y-80657190D01*
X113457906Y-80743350D01*
X113457913Y-80743354D01*
X113592620Y-80793596D01*
X113592627Y-80793598D01*
X113652155Y-80799999D01*
X113652172Y-80800000D01*
X114750000Y-80800000D01*
X114750000Y-79762360D01*
X114766649Y-79769257D01*
X114921207Y-79800000D01*
X115078793Y-79800000D01*
X115233351Y-79769257D01*
X115250000Y-79762360D01*
X115250000Y-80800000D01*
X115876000Y-80800000D01*
X115943039Y-80819685D01*
X115988794Y-80872489D01*
X116000000Y-80924000D01*
X116000000Y-83876000D01*
X115980315Y-83943039D01*
X115927511Y-83988794D01*
X115876000Y-84000000D01*
X113916708Y-84000000D01*
X113849669Y-83980315D01*
X113803914Y-83927511D01*
X113793055Y-83866734D01*
X113805549Y-83700004D01*
X113805549Y-83699995D01*
X113785383Y-83430898D01*
X113725335Y-83167811D01*
X113725334Y-83167805D01*
X113626743Y-82916602D01*
X113491815Y-82682898D01*
X113323561Y-82471915D01*
X113323560Y-82471914D01*
X113323557Y-82471910D01*
X113125741Y-82288365D01*
X112902775Y-82136349D01*
X112902769Y-82136346D01*
X112902768Y-82136345D01*
X112902767Y-82136344D01*
X112659643Y-82019263D01*
X112659645Y-82019263D01*
X112401773Y-81939720D01*
X112401767Y-81939718D01*
X112134936Y-81899500D01*
X112134929Y-81899500D01*
X111865071Y-81899500D01*
X111865063Y-81899500D01*
X111598232Y-81939718D01*
X111598226Y-81939720D01*
X111340358Y-82019262D01*
X111097230Y-82136346D01*
X110874258Y-82288365D01*
X110676442Y-82471910D01*
X110508185Y-82682898D01*
X110373258Y-82916599D01*
X110373256Y-82916603D01*
X110274666Y-83167804D01*
X110274664Y-83167811D01*
X110214616Y-83430898D01*
X110194451Y-83699995D01*
X110194451Y-83700004D01*
X110206945Y-83866734D01*
X110192325Y-83935057D01*
X110143088Y-83984630D01*
X110083292Y-84000000D01*
X101124000Y-84000000D01*
X101056961Y-83980315D01*
X101011206Y-83927511D01*
X101000000Y-83876000D01*
X101000000Y-78999995D01*
X107194451Y-78999995D01*
X107194451Y-79000004D01*
X107214616Y-79269101D01*
X107239687Y-79378942D01*
X107274666Y-79532195D01*
X107373257Y-79783398D01*
X107508185Y-80017102D01*
X107644080Y-80187509D01*
X107676442Y-80228089D01*
X107863183Y-80401358D01*
X107874259Y-80411635D01*
X108097226Y-80563651D01*
X108340359Y-80680738D01*
X108598228Y-80760280D01*
X108598229Y-80760280D01*
X108598232Y-80760281D01*
X108865063Y-80800499D01*
X108865068Y-80800499D01*
X108865071Y-80800500D01*
X108865072Y-80800500D01*
X109134928Y-80800500D01*
X109134929Y-80800500D01*
X109134936Y-80800499D01*
X109401767Y-80760281D01*
X109401768Y-80760280D01*
X109401772Y-80760280D01*
X109659641Y-80680738D01*
X109902775Y-80563651D01*
X110125741Y-80411635D01*
X110323561Y-80228085D01*
X110491815Y-80017102D01*
X110626743Y-79783398D01*
X110725334Y-79532195D01*
X110785383Y-79269103D01*
X110792105Y-79179402D01*
X110805549Y-79000004D01*
X110805549Y-78999995D01*
X110788062Y-78766649D01*
X110785383Y-78730897D01*
X110725334Y-78467805D01*
X110626743Y-78216602D01*
X110491815Y-77982898D01*
X110323561Y-77771915D01*
X110323560Y-77771914D01*
X110323557Y-77771910D01*
X110125741Y-77588365D01*
X109902775Y-77436349D01*
X109902769Y-77436346D01*
X109902768Y-77436345D01*
X109902767Y-77436344D01*
X109659643Y-77319263D01*
X109659645Y-77319263D01*
X109401773Y-77239720D01*
X109401767Y-77239718D01*
X109134936Y-77199500D01*
X109134929Y-77199500D01*
X108865071Y-77199500D01*
X108865063Y-77199500D01*
X108598232Y-77239718D01*
X108598226Y-77239720D01*
X108340358Y-77319262D01*
X108097230Y-77436346D01*
X107874258Y-77588365D01*
X107676442Y-77771910D01*
X107508185Y-77982898D01*
X107373258Y-78216599D01*
X107373256Y-78216603D01*
X107274666Y-78467804D01*
X107274664Y-78467811D01*
X107214616Y-78730898D01*
X107194451Y-78999995D01*
X101000000Y-78999995D01*
X101000000Y-74124000D01*
X101019685Y-74056961D01*
X101072489Y-74011206D01*
X101124000Y-74000000D01*
X115876000Y-74000000D01*
X115943039Y-74019685D01*
G37*
%TD.AperFunction*%
%TD*%
%TA.AperFunction,Conductor*%
%TO.N,GND*%
G36*
X112497203Y-62019685D02*
G01*
X112517845Y-62036319D01*
X115413681Y-64932155D01*
X115447166Y-64993478D01*
X115450000Y-65019836D01*
X115450000Y-65987639D01*
X115433351Y-65980743D01*
X115278793Y-65950000D01*
X115121207Y-65950000D01*
X114966649Y-65980743D01*
X114950000Y-65987639D01*
X114950000Y-64950000D01*
X113852155Y-64950000D01*
X113792627Y-64956401D01*
X113792620Y-64956403D01*
X113657913Y-65006645D01*
X113657906Y-65006649D01*
X113542812Y-65092809D01*
X113542809Y-65092812D01*
X113456649Y-65207906D01*
X113456645Y-65207913D01*
X113406403Y-65342620D01*
X113406401Y-65342627D01*
X113400000Y-65402155D01*
X113400000Y-66500000D01*
X114437639Y-66500000D01*
X114430743Y-66516649D01*
X114400000Y-66671207D01*
X114400000Y-66828793D01*
X114430743Y-66983351D01*
X114437639Y-67000000D01*
X113400000Y-67000000D01*
X113400000Y-68097844D01*
X113406401Y-68157372D01*
X113406403Y-68157379D01*
X113456645Y-68292086D01*
X113456649Y-68292093D01*
X113542809Y-68407187D01*
X113542812Y-68407190D01*
X113657906Y-68493350D01*
X113657913Y-68493354D01*
X113792620Y-68543596D01*
X113792627Y-68543598D01*
X113852155Y-68549999D01*
X113852172Y-68550000D01*
X114950000Y-68550000D01*
X114950000Y-67512360D01*
X114966649Y-67519257D01*
X115121207Y-67550000D01*
X115278793Y-67550000D01*
X115433351Y-67519257D01*
X115450000Y-67512360D01*
X115450000Y-68550000D01*
X115876000Y-68550000D01*
X115943039Y-68569685D01*
X115988794Y-68622489D01*
X116000000Y-68674000D01*
X116000000Y-71876000D01*
X115980315Y-71943039D01*
X115927511Y-71988794D01*
X115876000Y-72000000D01*
X114076762Y-72000000D01*
X114009723Y-71980315D01*
X113963968Y-71927511D01*
X113954024Y-71858353D01*
X113955871Y-71848408D01*
X113985383Y-71719103D01*
X113985383Y-71719101D01*
X114005549Y-71450004D01*
X114005549Y-71449995D01*
X113985383Y-71180898D01*
X113925335Y-70917811D01*
X113925334Y-70917805D01*
X113826743Y-70666602D01*
X113691815Y-70432898D01*
X113523561Y-70221915D01*
X113523560Y-70221914D01*
X113523557Y-70221910D01*
X113325741Y-70038365D01*
X113102775Y-69886349D01*
X113102769Y-69886346D01*
X113102768Y-69886345D01*
X113102767Y-69886344D01*
X112859643Y-69769263D01*
X112859645Y-69769263D01*
X112601773Y-69689720D01*
X112601767Y-69689718D01*
X112334936Y-69649500D01*
X112334929Y-69649500D01*
X112065071Y-69649500D01*
X112065063Y-69649500D01*
X111798232Y-69689718D01*
X111798226Y-69689720D01*
X111540358Y-69769262D01*
X111297230Y-69886346D01*
X111074258Y-70038365D01*
X110876442Y-70221910D01*
X110708185Y-70432898D01*
X110573258Y-70666599D01*
X110573256Y-70666603D01*
X110474666Y-70917804D01*
X110474664Y-70917811D01*
X110414616Y-71180898D01*
X110394451Y-71449995D01*
X110394451Y-71450004D01*
X110414616Y-71719101D01*
X110414616Y-71719103D01*
X110444129Y-71848408D01*
X110439856Y-71918147D01*
X110398557Y-71974504D01*
X110333345Y-71999587D01*
X110323238Y-72000000D01*
X101124000Y-72000000D01*
X101056961Y-71980315D01*
X101011206Y-71927511D01*
X101000000Y-71876000D01*
X101000000Y-66749995D01*
X107394451Y-66749995D01*
X107394451Y-66750004D01*
X107414616Y-67019101D01*
X107439687Y-67128942D01*
X107474666Y-67282195D01*
X107573257Y-67533398D01*
X107708185Y-67767102D01*
X107844080Y-67937509D01*
X107876442Y-67978089D01*
X108063183Y-68151358D01*
X108074259Y-68161635D01*
X108297226Y-68313651D01*
X108540359Y-68430738D01*
X108798228Y-68510280D01*
X108798229Y-68510280D01*
X108798232Y-68510281D01*
X109065063Y-68550499D01*
X109065068Y-68550499D01*
X109065071Y-68550500D01*
X109065072Y-68550500D01*
X109334928Y-68550500D01*
X109334929Y-68550500D01*
X109334936Y-68550499D01*
X109601767Y-68510281D01*
X109601768Y-68510280D01*
X109601772Y-68510280D01*
X109859641Y-68430738D01*
X110102775Y-68313651D01*
X110325741Y-68161635D01*
X110523561Y-67978085D01*
X110691815Y-67767102D01*
X110826743Y-67533398D01*
X110925334Y-67282195D01*
X110985383Y-67019103D01*
X110992105Y-66929402D01*
X111005549Y-66750004D01*
X111005549Y-66749995D01*
X110988062Y-66516649D01*
X110985383Y-66480897D01*
X110925334Y-66217805D01*
X110826743Y-65966602D01*
X110691815Y-65732898D01*
X110523561Y-65521915D01*
X110523560Y-65521914D01*
X110523557Y-65521910D01*
X110325741Y-65338365D01*
X110258949Y-65292827D01*
X110102775Y-65186349D01*
X110102769Y-65186346D01*
X110102768Y-65186345D01*
X110102767Y-65186344D01*
X109859643Y-65069263D01*
X109859645Y-65069263D01*
X109601773Y-64989720D01*
X109601767Y-64989718D01*
X109334936Y-64949500D01*
X109334929Y-64949500D01*
X109065071Y-64949500D01*
X109065063Y-64949500D01*
X108798232Y-64989718D01*
X108798226Y-64989720D01*
X108540358Y-65069262D01*
X108297230Y-65186346D01*
X108074258Y-65338365D01*
X107876442Y-65521910D01*
X107708185Y-65732898D01*
X107573258Y-65966599D01*
X107573256Y-65966603D01*
X107474666Y-66217804D01*
X107474664Y-66217811D01*
X107414616Y-66480898D01*
X107394451Y-66749995D01*
X101000000Y-66749995D01*
X101000000Y-62124000D01*
X101019685Y-62056961D01*
X101072489Y-62011206D01*
X101124000Y-62000000D01*
X112430164Y-62000000D01*
X112497203Y-62019685D01*
G37*
%TD.AperFunction*%
%TD*%
M02*
