%TF.GenerationSoftware,KiCad,Pcbnew,8.0.4*%
%TF.CreationDate,2024-09-29T14:54:36-07:00*%
%TF.ProjectId,PACE_PCB,50414345-5f50-4434-922e-6b696361645f,rev?*%
%TF.SameCoordinates,Original*%
%TF.FileFunction,Legend,Top*%
%TF.FilePolarity,Positive*%
%FSLAX46Y46*%
G04 Gerber Fmt 4.6, Leading zero omitted, Abs format (unit mm)*
G04 Created by KiCad (PCBNEW 8.0.4) date 2024-09-29 14:54:36*
%MOMM*%
%LPD*%
G01*
G04 APERTURE LIST*
%ADD10C,0.100000*%
%ADD11C,0.150000*%
%ADD12C,0.120000*%
%ADD13C,0.000000*%
G04 APERTURE END LIST*
D10*
X115280074Y-58872419D02*
X114803884Y-58872419D01*
X114803884Y-58872419D02*
X114803884Y-57872419D01*
X116041979Y-58872419D02*
X116041979Y-58348609D01*
X116041979Y-58348609D02*
X115994360Y-58253371D01*
X115994360Y-58253371D02*
X115899122Y-58205752D01*
X115899122Y-58205752D02*
X115708646Y-58205752D01*
X115708646Y-58205752D02*
X115613408Y-58253371D01*
X116041979Y-58824800D02*
X115946741Y-58872419D01*
X115946741Y-58872419D02*
X115708646Y-58872419D01*
X115708646Y-58872419D02*
X115613408Y-58824800D01*
X115613408Y-58824800D02*
X115565789Y-58729561D01*
X115565789Y-58729561D02*
X115565789Y-58634323D01*
X115565789Y-58634323D02*
X115613408Y-58539085D01*
X115613408Y-58539085D02*
X115708646Y-58491466D01*
X115708646Y-58491466D02*
X115946741Y-58491466D01*
X115946741Y-58491466D02*
X116041979Y-58443847D01*
X116470551Y-58824800D02*
X116565789Y-58872419D01*
X116565789Y-58872419D02*
X116756265Y-58872419D01*
X116756265Y-58872419D02*
X116851503Y-58824800D01*
X116851503Y-58824800D02*
X116899122Y-58729561D01*
X116899122Y-58729561D02*
X116899122Y-58681942D01*
X116899122Y-58681942D02*
X116851503Y-58586704D01*
X116851503Y-58586704D02*
X116756265Y-58539085D01*
X116756265Y-58539085D02*
X116613408Y-58539085D01*
X116613408Y-58539085D02*
X116518170Y-58491466D01*
X116518170Y-58491466D02*
X116470551Y-58396228D01*
X116470551Y-58396228D02*
X116470551Y-58348609D01*
X116470551Y-58348609D02*
X116518170Y-58253371D01*
X116518170Y-58253371D02*
X116613408Y-58205752D01*
X116613408Y-58205752D02*
X116756265Y-58205752D01*
X116756265Y-58205752D02*
X116851503Y-58253371D01*
X117708646Y-58824800D02*
X117613408Y-58872419D01*
X117613408Y-58872419D02*
X117422932Y-58872419D01*
X117422932Y-58872419D02*
X117327694Y-58824800D01*
X117327694Y-58824800D02*
X117280075Y-58729561D01*
X117280075Y-58729561D02*
X117280075Y-58348609D01*
X117280075Y-58348609D02*
X117327694Y-58253371D01*
X117327694Y-58253371D02*
X117422932Y-58205752D01*
X117422932Y-58205752D02*
X117613408Y-58205752D01*
X117613408Y-58205752D02*
X117708646Y-58253371D01*
X117708646Y-58253371D02*
X117756265Y-58348609D01*
X117756265Y-58348609D02*
X117756265Y-58443847D01*
X117756265Y-58443847D02*
X117280075Y-58539085D01*
X118184837Y-58872419D02*
X118184837Y-58205752D01*
X118184837Y-58396228D02*
X118232456Y-58300990D01*
X118232456Y-58300990D02*
X118280075Y-58253371D01*
X118280075Y-58253371D02*
X118375313Y-58205752D01*
X118375313Y-58205752D02*
X118470551Y-58205752D01*
X118756266Y-58824800D02*
X118851504Y-58872419D01*
X118851504Y-58872419D02*
X119041980Y-58872419D01*
X119041980Y-58872419D02*
X119137218Y-58824800D01*
X119137218Y-58824800D02*
X119184837Y-58729561D01*
X119184837Y-58729561D02*
X119184837Y-58681942D01*
X119184837Y-58681942D02*
X119137218Y-58586704D01*
X119137218Y-58586704D02*
X119041980Y-58539085D01*
X119041980Y-58539085D02*
X118899123Y-58539085D01*
X118899123Y-58539085D02*
X118803885Y-58491466D01*
X118803885Y-58491466D02*
X118756266Y-58396228D01*
X118756266Y-58396228D02*
X118756266Y-58348609D01*
X118756266Y-58348609D02*
X118803885Y-58253371D01*
X118803885Y-58253371D02*
X118899123Y-58205752D01*
X118899123Y-58205752D02*
X119041980Y-58205752D01*
X119041980Y-58205752D02*
X119137218Y-58253371D01*
X151303884Y-51872419D02*
X151303884Y-50872419D01*
X151303884Y-50872419D02*
X151684836Y-50872419D01*
X151684836Y-50872419D02*
X151780074Y-50920038D01*
X151780074Y-50920038D02*
X151827693Y-50967657D01*
X151827693Y-50967657D02*
X151875312Y-51062895D01*
X151875312Y-51062895D02*
X151875312Y-51205752D01*
X151875312Y-51205752D02*
X151827693Y-51300990D01*
X151827693Y-51300990D02*
X151780074Y-51348609D01*
X151780074Y-51348609D02*
X151684836Y-51396228D01*
X151684836Y-51396228D02*
X151303884Y-51396228D01*
X152303884Y-51872419D02*
X152303884Y-51205752D01*
X152303884Y-50872419D02*
X152256265Y-50920038D01*
X152256265Y-50920038D02*
X152303884Y-50967657D01*
X152303884Y-50967657D02*
X152351503Y-50920038D01*
X152351503Y-50920038D02*
X152303884Y-50872419D01*
X152303884Y-50872419D02*
X152303884Y-50967657D01*
X152780074Y-51205752D02*
X152780074Y-51872419D01*
X152780074Y-51300990D02*
X152827693Y-51253371D01*
X152827693Y-51253371D02*
X152922931Y-51205752D01*
X152922931Y-51205752D02*
X153065788Y-51205752D01*
X153065788Y-51205752D02*
X153161026Y-51253371D01*
X153161026Y-51253371D02*
X153208645Y-51348609D01*
X153208645Y-51348609D02*
X153208645Y-51872419D01*
X153637217Y-51824800D02*
X153732455Y-51872419D01*
X153732455Y-51872419D02*
X153922931Y-51872419D01*
X153922931Y-51872419D02*
X154018169Y-51824800D01*
X154018169Y-51824800D02*
X154065788Y-51729561D01*
X154065788Y-51729561D02*
X154065788Y-51681942D01*
X154065788Y-51681942D02*
X154018169Y-51586704D01*
X154018169Y-51586704D02*
X153922931Y-51539085D01*
X153922931Y-51539085D02*
X153780074Y-51539085D01*
X153780074Y-51539085D02*
X153684836Y-51491466D01*
X153684836Y-51491466D02*
X153637217Y-51396228D01*
X153637217Y-51396228D02*
X153637217Y-51348609D01*
X153637217Y-51348609D02*
X153684836Y-51253371D01*
X153684836Y-51253371D02*
X153780074Y-51205752D01*
X153780074Y-51205752D02*
X153922931Y-51205752D01*
X153922931Y-51205752D02*
X154018169Y-51253371D01*
X155827693Y-51872419D02*
X155494360Y-51396228D01*
X155256265Y-51872419D02*
X155256265Y-50872419D01*
X155256265Y-50872419D02*
X155637217Y-50872419D01*
X155637217Y-50872419D02*
X155732455Y-50920038D01*
X155732455Y-50920038D02*
X155780074Y-50967657D01*
X155780074Y-50967657D02*
X155827693Y-51062895D01*
X155827693Y-51062895D02*
X155827693Y-51205752D01*
X155827693Y-51205752D02*
X155780074Y-51300990D01*
X155780074Y-51300990D02*
X155732455Y-51348609D01*
X155732455Y-51348609D02*
X155637217Y-51396228D01*
X155637217Y-51396228D02*
X155256265Y-51396228D01*
X156161027Y-50872419D02*
X156827693Y-51872419D01*
X156827693Y-50872419D02*
X156161027Y-51872419D01*
X157208646Y-51491466D02*
X157970551Y-51491466D01*
X158351503Y-50872419D02*
X159018169Y-50872419D01*
X159018169Y-50872419D02*
X158589598Y-51872419D01*
X124375312Y-72372419D02*
X124041979Y-71896228D01*
X123803884Y-72372419D02*
X123803884Y-71372419D01*
X123803884Y-71372419D02*
X124184836Y-71372419D01*
X124184836Y-71372419D02*
X124280074Y-71420038D01*
X124280074Y-71420038D02*
X124327693Y-71467657D01*
X124327693Y-71467657D02*
X124375312Y-71562895D01*
X124375312Y-71562895D02*
X124375312Y-71705752D01*
X124375312Y-71705752D02*
X124327693Y-71800990D01*
X124327693Y-71800990D02*
X124280074Y-71848609D01*
X124280074Y-71848609D02*
X124184836Y-71896228D01*
X124184836Y-71896228D02*
X123803884Y-71896228D01*
X124756265Y-71467657D02*
X124803884Y-71420038D01*
X124803884Y-71420038D02*
X124899122Y-71372419D01*
X124899122Y-71372419D02*
X125137217Y-71372419D01*
X125137217Y-71372419D02*
X125232455Y-71420038D01*
X125232455Y-71420038D02*
X125280074Y-71467657D01*
X125280074Y-71467657D02*
X125327693Y-71562895D01*
X125327693Y-71562895D02*
X125327693Y-71658133D01*
X125327693Y-71658133D02*
X125280074Y-71800990D01*
X125280074Y-71800990D02*
X124708646Y-72372419D01*
X124708646Y-72372419D02*
X125327693Y-72372419D01*
X123303884Y-69372419D02*
X123303884Y-68372419D01*
X123303884Y-68372419D02*
X123541979Y-68372419D01*
X123541979Y-68372419D02*
X123684836Y-68420038D01*
X123684836Y-68420038D02*
X123780074Y-68515276D01*
X123780074Y-68515276D02*
X123827693Y-68610514D01*
X123827693Y-68610514D02*
X123875312Y-68800990D01*
X123875312Y-68800990D02*
X123875312Y-68943847D01*
X123875312Y-68943847D02*
X123827693Y-69134323D01*
X123827693Y-69134323D02*
X123780074Y-69229561D01*
X123780074Y-69229561D02*
X123684836Y-69324800D01*
X123684836Y-69324800D02*
X123541979Y-69372419D01*
X123541979Y-69372419D02*
X123303884Y-69372419D01*
X124827693Y-69372419D02*
X124256265Y-69372419D01*
X124541979Y-69372419D02*
X124541979Y-68372419D01*
X124541979Y-68372419D02*
X124446741Y-68515276D01*
X124446741Y-68515276D02*
X124351503Y-68610514D01*
X124351503Y-68610514D02*
X124256265Y-68658133D01*
D11*
X161869819Y-93091792D02*
X161393628Y-93425125D01*
X161869819Y-93663220D02*
X160869819Y-93663220D01*
X160869819Y-93663220D02*
X160869819Y-93282268D01*
X160869819Y-93282268D02*
X160917438Y-93187030D01*
X160917438Y-93187030D02*
X160965057Y-93139411D01*
X160965057Y-93139411D02*
X161060295Y-93091792D01*
X161060295Y-93091792D02*
X161203152Y-93091792D01*
X161203152Y-93091792D02*
X161298390Y-93139411D01*
X161298390Y-93139411D02*
X161346009Y-93187030D01*
X161346009Y-93187030D02*
X161393628Y-93282268D01*
X161393628Y-93282268D02*
X161393628Y-93663220D01*
X161869819Y-92520363D02*
X161822200Y-92615601D01*
X161822200Y-92615601D02*
X161774580Y-92663220D01*
X161774580Y-92663220D02*
X161679342Y-92710839D01*
X161679342Y-92710839D02*
X161393628Y-92710839D01*
X161393628Y-92710839D02*
X161298390Y-92663220D01*
X161298390Y-92663220D02*
X161250771Y-92615601D01*
X161250771Y-92615601D02*
X161203152Y-92520363D01*
X161203152Y-92520363D02*
X161203152Y-92377506D01*
X161203152Y-92377506D02*
X161250771Y-92282268D01*
X161250771Y-92282268D02*
X161298390Y-92234649D01*
X161298390Y-92234649D02*
X161393628Y-92187030D01*
X161393628Y-92187030D02*
X161679342Y-92187030D01*
X161679342Y-92187030D02*
X161774580Y-92234649D01*
X161774580Y-92234649D02*
X161822200Y-92282268D01*
X161822200Y-92282268D02*
X161869819Y-92377506D01*
X161869819Y-92377506D02*
X161869819Y-92520363D01*
X161203152Y-91901315D02*
X161203152Y-91520363D01*
X160869819Y-91758458D02*
X161726961Y-91758458D01*
X161726961Y-91758458D02*
X161822200Y-91710839D01*
X161822200Y-91710839D02*
X161869819Y-91615601D01*
X161869819Y-91615601D02*
X161869819Y-91520363D01*
X161869819Y-90758458D02*
X161346009Y-90758458D01*
X161346009Y-90758458D02*
X161250771Y-90806077D01*
X161250771Y-90806077D02*
X161203152Y-90901315D01*
X161203152Y-90901315D02*
X161203152Y-91091791D01*
X161203152Y-91091791D02*
X161250771Y-91187029D01*
X161822200Y-90758458D02*
X161869819Y-90853696D01*
X161869819Y-90853696D02*
X161869819Y-91091791D01*
X161869819Y-91091791D02*
X161822200Y-91187029D01*
X161822200Y-91187029D02*
X161726961Y-91234648D01*
X161726961Y-91234648D02*
X161631723Y-91234648D01*
X161631723Y-91234648D02*
X161536485Y-91187029D01*
X161536485Y-91187029D02*
X161488866Y-91091791D01*
X161488866Y-91091791D02*
X161488866Y-90853696D01*
X161488866Y-90853696D02*
X161441247Y-90758458D01*
X161869819Y-90282267D02*
X161203152Y-90282267D01*
X161393628Y-90282267D02*
X161298390Y-90234648D01*
X161298390Y-90234648D02*
X161250771Y-90187029D01*
X161250771Y-90187029D02*
X161203152Y-90091791D01*
X161203152Y-90091791D02*
X161203152Y-89996553D01*
X161203152Y-89758457D02*
X161869819Y-89520362D01*
X161203152Y-89282267D02*
X161869819Y-89520362D01*
X161869819Y-89520362D02*
X162107914Y-89615600D01*
X162107914Y-89615600D02*
X162155533Y-89663219D01*
X162155533Y-89663219D02*
X162203152Y-89758457D01*
X161346009Y-88139409D02*
X161346009Y-87806076D01*
X161869819Y-87663219D02*
X161869819Y-88139409D01*
X161869819Y-88139409D02*
X160869819Y-88139409D01*
X160869819Y-88139409D02*
X160869819Y-87663219D01*
X161203152Y-87234647D02*
X161869819Y-87234647D01*
X161298390Y-87234647D02*
X161250771Y-87187028D01*
X161250771Y-87187028D02*
X161203152Y-87091790D01*
X161203152Y-87091790D02*
X161203152Y-86948933D01*
X161203152Y-86948933D02*
X161250771Y-86853695D01*
X161250771Y-86853695D02*
X161346009Y-86806076D01*
X161346009Y-86806076D02*
X161869819Y-86806076D01*
X161822200Y-85901314D02*
X161869819Y-85996552D01*
X161869819Y-85996552D02*
X161869819Y-86187028D01*
X161869819Y-86187028D02*
X161822200Y-86282266D01*
X161822200Y-86282266D02*
X161774580Y-86329885D01*
X161774580Y-86329885D02*
X161679342Y-86377504D01*
X161679342Y-86377504D02*
X161393628Y-86377504D01*
X161393628Y-86377504D02*
X161298390Y-86329885D01*
X161298390Y-86329885D02*
X161250771Y-86282266D01*
X161250771Y-86282266D02*
X161203152Y-86187028D01*
X161203152Y-86187028D02*
X161203152Y-85996552D01*
X161203152Y-85996552D02*
X161250771Y-85901314D01*
X161869819Y-85329885D02*
X161822200Y-85425123D01*
X161822200Y-85425123D02*
X161774580Y-85472742D01*
X161774580Y-85472742D02*
X161679342Y-85520361D01*
X161679342Y-85520361D02*
X161393628Y-85520361D01*
X161393628Y-85520361D02*
X161298390Y-85472742D01*
X161298390Y-85472742D02*
X161250771Y-85425123D01*
X161250771Y-85425123D02*
X161203152Y-85329885D01*
X161203152Y-85329885D02*
X161203152Y-85187028D01*
X161203152Y-85187028D02*
X161250771Y-85091790D01*
X161250771Y-85091790D02*
X161298390Y-85044171D01*
X161298390Y-85044171D02*
X161393628Y-84996552D01*
X161393628Y-84996552D02*
X161679342Y-84996552D01*
X161679342Y-84996552D02*
X161774580Y-85044171D01*
X161774580Y-85044171D02*
X161822200Y-85091790D01*
X161822200Y-85091790D02*
X161869819Y-85187028D01*
X161869819Y-85187028D02*
X161869819Y-85329885D01*
X161869819Y-84139409D02*
X160869819Y-84139409D01*
X161822200Y-84139409D02*
X161869819Y-84234647D01*
X161869819Y-84234647D02*
X161869819Y-84425123D01*
X161869819Y-84425123D02*
X161822200Y-84520361D01*
X161822200Y-84520361D02*
X161774580Y-84567980D01*
X161774580Y-84567980D02*
X161679342Y-84615599D01*
X161679342Y-84615599D02*
X161393628Y-84615599D01*
X161393628Y-84615599D02*
X161298390Y-84567980D01*
X161298390Y-84567980D02*
X161250771Y-84520361D01*
X161250771Y-84520361D02*
X161203152Y-84425123D01*
X161203152Y-84425123D02*
X161203152Y-84234647D01*
X161203152Y-84234647D02*
X161250771Y-84139409D01*
X161822200Y-83282266D02*
X161869819Y-83377504D01*
X161869819Y-83377504D02*
X161869819Y-83567980D01*
X161869819Y-83567980D02*
X161822200Y-83663218D01*
X161822200Y-83663218D02*
X161726961Y-83710837D01*
X161726961Y-83710837D02*
X161346009Y-83710837D01*
X161346009Y-83710837D02*
X161250771Y-83663218D01*
X161250771Y-83663218D02*
X161203152Y-83567980D01*
X161203152Y-83567980D02*
X161203152Y-83377504D01*
X161203152Y-83377504D02*
X161250771Y-83282266D01*
X161250771Y-83282266D02*
X161346009Y-83234647D01*
X161346009Y-83234647D02*
X161441247Y-83234647D01*
X161441247Y-83234647D02*
X161536485Y-83710837D01*
X161869819Y-82806075D02*
X161203152Y-82806075D01*
X161393628Y-82806075D02*
X161298390Y-82758456D01*
X161298390Y-82758456D02*
X161250771Y-82710837D01*
X161250771Y-82710837D02*
X161203152Y-82615599D01*
X161203152Y-82615599D02*
X161203152Y-82520361D01*
D10*
X103803884Y-53872419D02*
X103803884Y-52872419D01*
X103803884Y-52872419D02*
X104184836Y-52872419D01*
X104184836Y-52872419D02*
X104280074Y-52920038D01*
X104280074Y-52920038D02*
X104327693Y-52967657D01*
X104327693Y-52967657D02*
X104375312Y-53062895D01*
X104375312Y-53062895D02*
X104375312Y-53205752D01*
X104375312Y-53205752D02*
X104327693Y-53300990D01*
X104327693Y-53300990D02*
X104280074Y-53348609D01*
X104280074Y-53348609D02*
X104184836Y-53396228D01*
X104184836Y-53396228D02*
X103803884Y-53396228D01*
X105232455Y-53205752D02*
X105232455Y-53872419D01*
X104803884Y-53205752D02*
X104803884Y-53729561D01*
X104803884Y-53729561D02*
X104851503Y-53824800D01*
X104851503Y-53824800D02*
X104946741Y-53872419D01*
X104946741Y-53872419D02*
X105089598Y-53872419D01*
X105089598Y-53872419D02*
X105184836Y-53824800D01*
X105184836Y-53824800D02*
X105232455Y-53777180D01*
X105708646Y-53872419D02*
X105708646Y-53205752D01*
X105708646Y-53300990D02*
X105756265Y-53253371D01*
X105756265Y-53253371D02*
X105851503Y-53205752D01*
X105851503Y-53205752D02*
X105994360Y-53205752D01*
X105994360Y-53205752D02*
X106089598Y-53253371D01*
X106089598Y-53253371D02*
X106137217Y-53348609D01*
X106137217Y-53348609D02*
X106137217Y-53872419D01*
X106137217Y-53348609D02*
X106184836Y-53253371D01*
X106184836Y-53253371D02*
X106280074Y-53205752D01*
X106280074Y-53205752D02*
X106422931Y-53205752D01*
X106422931Y-53205752D02*
X106518170Y-53253371D01*
X106518170Y-53253371D02*
X106565789Y-53348609D01*
X106565789Y-53348609D02*
X106565789Y-53872419D01*
X107041979Y-53205752D02*
X107041979Y-54205752D01*
X107041979Y-53253371D02*
X107137217Y-53205752D01*
X107137217Y-53205752D02*
X107327693Y-53205752D01*
X107327693Y-53205752D02*
X107422931Y-53253371D01*
X107422931Y-53253371D02*
X107470550Y-53300990D01*
X107470550Y-53300990D02*
X107518169Y-53396228D01*
X107518169Y-53396228D02*
X107518169Y-53681942D01*
X107518169Y-53681942D02*
X107470550Y-53777180D01*
X107470550Y-53777180D02*
X107422931Y-53824800D01*
X107422931Y-53824800D02*
X107327693Y-53872419D01*
X107327693Y-53872419D02*
X107137217Y-53872419D01*
X107137217Y-53872419D02*
X107041979Y-53824800D01*
X107899122Y-53824800D02*
X107994360Y-53872419D01*
X107994360Y-53872419D02*
X108184836Y-53872419D01*
X108184836Y-53872419D02*
X108280074Y-53824800D01*
X108280074Y-53824800D02*
X108327693Y-53729561D01*
X108327693Y-53729561D02*
X108327693Y-53681942D01*
X108327693Y-53681942D02*
X108280074Y-53586704D01*
X108280074Y-53586704D02*
X108184836Y-53539085D01*
X108184836Y-53539085D02*
X108041979Y-53539085D01*
X108041979Y-53539085D02*
X107946741Y-53491466D01*
X107946741Y-53491466D02*
X107899122Y-53396228D01*
X107899122Y-53396228D02*
X107899122Y-53348609D01*
X107899122Y-53348609D02*
X107946741Y-53253371D01*
X107946741Y-53253371D02*
X108041979Y-53205752D01*
X108041979Y-53205752D02*
X108184836Y-53205752D01*
X108184836Y-53205752D02*
X108280074Y-53253371D01*
X111375312Y-58277180D02*
X111327693Y-58324800D01*
X111327693Y-58324800D02*
X111184836Y-58372419D01*
X111184836Y-58372419D02*
X111089598Y-58372419D01*
X111089598Y-58372419D02*
X110946741Y-58324800D01*
X110946741Y-58324800D02*
X110851503Y-58229561D01*
X110851503Y-58229561D02*
X110803884Y-58134323D01*
X110803884Y-58134323D02*
X110756265Y-57943847D01*
X110756265Y-57943847D02*
X110756265Y-57800990D01*
X110756265Y-57800990D02*
X110803884Y-57610514D01*
X110803884Y-57610514D02*
X110851503Y-57515276D01*
X110851503Y-57515276D02*
X110946741Y-57420038D01*
X110946741Y-57420038D02*
X111089598Y-57372419D01*
X111089598Y-57372419D02*
X111184836Y-57372419D01*
X111184836Y-57372419D02*
X111327693Y-57420038D01*
X111327693Y-57420038D02*
X111375312Y-57467657D01*
X112327693Y-58372419D02*
X111756265Y-58372419D01*
X112041979Y-58372419D02*
X112041979Y-57372419D01*
X112041979Y-57372419D02*
X111946741Y-57515276D01*
X111946741Y-57515276D02*
X111851503Y-57610514D01*
X111851503Y-57610514D02*
X111756265Y-57658133D01*
X138803884Y-58872419D02*
X138803884Y-57872419D01*
X138803884Y-57872419D02*
X139184836Y-57872419D01*
X139184836Y-57872419D02*
X139280074Y-57920038D01*
X139280074Y-57920038D02*
X139327693Y-57967657D01*
X139327693Y-57967657D02*
X139375312Y-58062895D01*
X139375312Y-58062895D02*
X139375312Y-58205752D01*
X139375312Y-58205752D02*
X139327693Y-58300990D01*
X139327693Y-58300990D02*
X139280074Y-58348609D01*
X139280074Y-58348609D02*
X139184836Y-58396228D01*
X139184836Y-58396228D02*
X138803884Y-58396228D01*
X139803884Y-58872419D02*
X139803884Y-57872419D01*
X140232455Y-58872419D02*
X140232455Y-58348609D01*
X140232455Y-58348609D02*
X140184836Y-58253371D01*
X140184836Y-58253371D02*
X140089598Y-58205752D01*
X140089598Y-58205752D02*
X139946741Y-58205752D01*
X139946741Y-58205752D02*
X139851503Y-58253371D01*
X139851503Y-58253371D02*
X139803884Y-58300990D01*
X140851503Y-58872419D02*
X140756265Y-58824800D01*
X140756265Y-58824800D02*
X140708646Y-58777180D01*
X140708646Y-58777180D02*
X140661027Y-58681942D01*
X140661027Y-58681942D02*
X140661027Y-58396228D01*
X140661027Y-58396228D02*
X140708646Y-58300990D01*
X140708646Y-58300990D02*
X140756265Y-58253371D01*
X140756265Y-58253371D02*
X140851503Y-58205752D01*
X140851503Y-58205752D02*
X140994360Y-58205752D01*
X140994360Y-58205752D02*
X141089598Y-58253371D01*
X141089598Y-58253371D02*
X141137217Y-58300990D01*
X141137217Y-58300990D02*
X141184836Y-58396228D01*
X141184836Y-58396228D02*
X141184836Y-58681942D01*
X141184836Y-58681942D02*
X141137217Y-58777180D01*
X141137217Y-58777180D02*
X141089598Y-58824800D01*
X141089598Y-58824800D02*
X140994360Y-58872419D01*
X140994360Y-58872419D02*
X140851503Y-58872419D01*
X141470551Y-58205752D02*
X141851503Y-58205752D01*
X141613408Y-57872419D02*
X141613408Y-58729561D01*
X141613408Y-58729561D02*
X141661027Y-58824800D01*
X141661027Y-58824800D02*
X141756265Y-58872419D01*
X141756265Y-58872419D02*
X141851503Y-58872419D01*
X142327694Y-58872419D02*
X142232456Y-58824800D01*
X142232456Y-58824800D02*
X142184837Y-58777180D01*
X142184837Y-58777180D02*
X142137218Y-58681942D01*
X142137218Y-58681942D02*
X142137218Y-58396228D01*
X142137218Y-58396228D02*
X142184837Y-58300990D01*
X142184837Y-58300990D02*
X142232456Y-58253371D01*
X142232456Y-58253371D02*
X142327694Y-58205752D01*
X142327694Y-58205752D02*
X142470551Y-58205752D01*
X142470551Y-58205752D02*
X142565789Y-58253371D01*
X142565789Y-58253371D02*
X142613408Y-58300990D01*
X142613408Y-58300990D02*
X142661027Y-58396228D01*
X142661027Y-58396228D02*
X142661027Y-58681942D01*
X142661027Y-58681942D02*
X142613408Y-58777180D01*
X142613408Y-58777180D02*
X142565789Y-58824800D01*
X142565789Y-58824800D02*
X142470551Y-58872419D01*
X142470551Y-58872419D02*
X142327694Y-58872419D01*
X143089599Y-58872419D02*
X143089599Y-58205752D01*
X143089599Y-58396228D02*
X143137218Y-58300990D01*
X143137218Y-58300990D02*
X143184837Y-58253371D01*
X143184837Y-58253371D02*
X143280075Y-58205752D01*
X143280075Y-58205752D02*
X143375313Y-58205752D01*
X144089599Y-58824800D02*
X143994361Y-58872419D01*
X143994361Y-58872419D02*
X143803885Y-58872419D01*
X143803885Y-58872419D02*
X143708647Y-58824800D01*
X143708647Y-58824800D02*
X143661028Y-58729561D01*
X143661028Y-58729561D02*
X143661028Y-58348609D01*
X143661028Y-58348609D02*
X143708647Y-58253371D01*
X143708647Y-58253371D02*
X143803885Y-58205752D01*
X143803885Y-58205752D02*
X143994361Y-58205752D01*
X143994361Y-58205752D02*
X144089599Y-58253371D01*
X144089599Y-58253371D02*
X144137218Y-58348609D01*
X144137218Y-58348609D02*
X144137218Y-58443847D01*
X144137218Y-58443847D02*
X143661028Y-58539085D01*
X144518171Y-58824800D02*
X144613409Y-58872419D01*
X144613409Y-58872419D02*
X144803885Y-58872419D01*
X144803885Y-58872419D02*
X144899123Y-58824800D01*
X144899123Y-58824800D02*
X144946742Y-58729561D01*
X144946742Y-58729561D02*
X144946742Y-58681942D01*
X144946742Y-58681942D02*
X144899123Y-58586704D01*
X144899123Y-58586704D02*
X144803885Y-58539085D01*
X144803885Y-58539085D02*
X144661028Y-58539085D01*
X144661028Y-58539085D02*
X144565790Y-58491466D01*
X144565790Y-58491466D02*
X144518171Y-58396228D01*
X144518171Y-58396228D02*
X144518171Y-58348609D01*
X144518171Y-58348609D02*
X144565790Y-58253371D01*
X144565790Y-58253371D02*
X144661028Y-58205752D01*
X144661028Y-58205752D02*
X144803885Y-58205752D01*
X144803885Y-58205752D02*
X144899123Y-58253371D01*
X145375314Y-58872419D02*
X145375314Y-58205752D01*
X145375314Y-57872419D02*
X145327695Y-57920038D01*
X145327695Y-57920038D02*
X145375314Y-57967657D01*
X145375314Y-57967657D02*
X145422933Y-57920038D01*
X145422933Y-57920038D02*
X145375314Y-57872419D01*
X145375314Y-57872419D02*
X145375314Y-57967657D01*
X145803885Y-58824800D02*
X145899123Y-58872419D01*
X145899123Y-58872419D02*
X146089599Y-58872419D01*
X146089599Y-58872419D02*
X146184837Y-58824800D01*
X146184837Y-58824800D02*
X146232456Y-58729561D01*
X146232456Y-58729561D02*
X146232456Y-58681942D01*
X146232456Y-58681942D02*
X146184837Y-58586704D01*
X146184837Y-58586704D02*
X146089599Y-58539085D01*
X146089599Y-58539085D02*
X145946742Y-58539085D01*
X145946742Y-58539085D02*
X145851504Y-58491466D01*
X145851504Y-58491466D02*
X145803885Y-58396228D01*
X145803885Y-58396228D02*
X145803885Y-58348609D01*
X145803885Y-58348609D02*
X145851504Y-58253371D01*
X145851504Y-58253371D02*
X145946742Y-58205752D01*
X145946742Y-58205752D02*
X146089599Y-58205752D01*
X146089599Y-58205752D02*
X146184837Y-58253371D01*
X146518171Y-58205752D02*
X146899123Y-58205752D01*
X146661028Y-57872419D02*
X146661028Y-58729561D01*
X146661028Y-58729561D02*
X146708647Y-58824800D01*
X146708647Y-58824800D02*
X146803885Y-58872419D01*
X146803885Y-58872419D02*
X146899123Y-58872419D01*
X147375314Y-58872419D02*
X147280076Y-58824800D01*
X147280076Y-58824800D02*
X147232457Y-58777180D01*
X147232457Y-58777180D02*
X147184838Y-58681942D01*
X147184838Y-58681942D02*
X147184838Y-58396228D01*
X147184838Y-58396228D02*
X147232457Y-58300990D01*
X147232457Y-58300990D02*
X147280076Y-58253371D01*
X147280076Y-58253371D02*
X147375314Y-58205752D01*
X147375314Y-58205752D02*
X147518171Y-58205752D01*
X147518171Y-58205752D02*
X147613409Y-58253371D01*
X147613409Y-58253371D02*
X147661028Y-58300990D01*
X147661028Y-58300990D02*
X147708647Y-58396228D01*
X147708647Y-58396228D02*
X147708647Y-58681942D01*
X147708647Y-58681942D02*
X147661028Y-58777180D01*
X147661028Y-58777180D02*
X147613409Y-58824800D01*
X147613409Y-58824800D02*
X147518171Y-58872419D01*
X147518171Y-58872419D02*
X147375314Y-58872419D01*
X148137219Y-58872419D02*
X148137219Y-58205752D01*
X148137219Y-58396228D02*
X148184838Y-58300990D01*
X148184838Y-58300990D02*
X148232457Y-58253371D01*
X148232457Y-58253371D02*
X148327695Y-58205752D01*
X148327695Y-58205752D02*
X148422933Y-58205752D01*
X148708648Y-58824800D02*
X148803886Y-58872419D01*
X148803886Y-58872419D02*
X148994362Y-58872419D01*
X148994362Y-58872419D02*
X149089600Y-58824800D01*
X149089600Y-58824800D02*
X149137219Y-58729561D01*
X149137219Y-58729561D02*
X149137219Y-58681942D01*
X149137219Y-58681942D02*
X149089600Y-58586704D01*
X149089600Y-58586704D02*
X148994362Y-58539085D01*
X148994362Y-58539085D02*
X148851505Y-58539085D01*
X148851505Y-58539085D02*
X148756267Y-58491466D01*
X148756267Y-58491466D02*
X148708648Y-58396228D01*
X148708648Y-58396228D02*
X148708648Y-58348609D01*
X148708648Y-58348609D02*
X148756267Y-58253371D01*
X148756267Y-58253371D02*
X148851505Y-58205752D01*
X148851505Y-58205752D02*
X148994362Y-58205752D01*
X148994362Y-58205752D02*
X149089600Y-58253371D01*
X142875312Y-72872419D02*
X142541979Y-72396228D01*
X142303884Y-72872419D02*
X142303884Y-71872419D01*
X142303884Y-71872419D02*
X142684836Y-71872419D01*
X142684836Y-71872419D02*
X142780074Y-71920038D01*
X142780074Y-71920038D02*
X142827693Y-71967657D01*
X142827693Y-71967657D02*
X142875312Y-72062895D01*
X142875312Y-72062895D02*
X142875312Y-72205752D01*
X142875312Y-72205752D02*
X142827693Y-72300990D01*
X142827693Y-72300990D02*
X142780074Y-72348609D01*
X142780074Y-72348609D02*
X142684836Y-72396228D01*
X142684836Y-72396228D02*
X142303884Y-72396228D01*
X143780074Y-71872419D02*
X143303884Y-71872419D01*
X143303884Y-71872419D02*
X143256265Y-72348609D01*
X143256265Y-72348609D02*
X143303884Y-72300990D01*
X143303884Y-72300990D02*
X143399122Y-72253371D01*
X143399122Y-72253371D02*
X143637217Y-72253371D01*
X143637217Y-72253371D02*
X143732455Y-72300990D01*
X143732455Y-72300990D02*
X143780074Y-72348609D01*
X143780074Y-72348609D02*
X143827693Y-72443847D01*
X143827693Y-72443847D02*
X143827693Y-72681942D01*
X143827693Y-72681942D02*
X143780074Y-72777180D01*
X143780074Y-72777180D02*
X143732455Y-72824800D01*
X143732455Y-72824800D02*
X143637217Y-72872419D01*
X143637217Y-72872419D02*
X143399122Y-72872419D01*
X143399122Y-72872419D02*
X143303884Y-72824800D01*
X143303884Y-72824800D02*
X143256265Y-72777180D01*
X125803884Y-51872419D02*
X125803884Y-50872419D01*
X125803884Y-50872419D02*
X126184836Y-50872419D01*
X126184836Y-50872419D02*
X126280074Y-50920038D01*
X126280074Y-50920038D02*
X126327693Y-50967657D01*
X126327693Y-50967657D02*
X126375312Y-51062895D01*
X126375312Y-51062895D02*
X126375312Y-51205752D01*
X126375312Y-51205752D02*
X126327693Y-51300990D01*
X126327693Y-51300990D02*
X126280074Y-51348609D01*
X126280074Y-51348609D02*
X126184836Y-51396228D01*
X126184836Y-51396228D02*
X125803884Y-51396228D01*
X126803884Y-51872419D02*
X126803884Y-51205752D01*
X126803884Y-50872419D02*
X126756265Y-50920038D01*
X126756265Y-50920038D02*
X126803884Y-50967657D01*
X126803884Y-50967657D02*
X126851503Y-50920038D01*
X126851503Y-50920038D02*
X126803884Y-50872419D01*
X126803884Y-50872419D02*
X126803884Y-50967657D01*
X127280074Y-51205752D02*
X127280074Y-51872419D01*
X127280074Y-51300990D02*
X127327693Y-51253371D01*
X127327693Y-51253371D02*
X127422931Y-51205752D01*
X127422931Y-51205752D02*
X127565788Y-51205752D01*
X127565788Y-51205752D02*
X127661026Y-51253371D01*
X127661026Y-51253371D02*
X127708645Y-51348609D01*
X127708645Y-51348609D02*
X127708645Y-51872419D01*
X128137217Y-51824800D02*
X128232455Y-51872419D01*
X128232455Y-51872419D02*
X128422931Y-51872419D01*
X128422931Y-51872419D02*
X128518169Y-51824800D01*
X128518169Y-51824800D02*
X128565788Y-51729561D01*
X128565788Y-51729561D02*
X128565788Y-51681942D01*
X128565788Y-51681942D02*
X128518169Y-51586704D01*
X128518169Y-51586704D02*
X128422931Y-51539085D01*
X128422931Y-51539085D02*
X128280074Y-51539085D01*
X128280074Y-51539085D02*
X128184836Y-51491466D01*
X128184836Y-51491466D02*
X128137217Y-51396228D01*
X128137217Y-51396228D02*
X128137217Y-51348609D01*
X128137217Y-51348609D02*
X128184836Y-51253371D01*
X128184836Y-51253371D02*
X128280074Y-51205752D01*
X128280074Y-51205752D02*
X128422931Y-51205752D01*
X128422931Y-51205752D02*
X128518169Y-51253371D01*
X129708646Y-51586704D02*
X130184836Y-51586704D01*
X129613408Y-51872419D02*
X129946741Y-50872419D01*
X129946741Y-50872419D02*
X130280074Y-51872419D01*
X131184836Y-51872419D02*
X130851503Y-51396228D01*
X130613408Y-51872419D02*
X130613408Y-50872419D01*
X130613408Y-50872419D02*
X130994360Y-50872419D01*
X130994360Y-50872419D02*
X131089598Y-50920038D01*
X131089598Y-50920038D02*
X131137217Y-50967657D01*
X131137217Y-50967657D02*
X131184836Y-51062895D01*
X131184836Y-51062895D02*
X131184836Y-51205752D01*
X131184836Y-51205752D02*
X131137217Y-51300990D01*
X131137217Y-51300990D02*
X131089598Y-51348609D01*
X131089598Y-51348609D02*
X130994360Y-51396228D01*
X130994360Y-51396228D02*
X130613408Y-51396228D01*
X131613408Y-51348609D02*
X131946741Y-51348609D01*
X132089598Y-51872419D02*
X131613408Y-51872419D01*
X131613408Y-51872419D02*
X131613408Y-50872419D01*
X131613408Y-50872419D02*
X132089598Y-50872419D01*
X132851503Y-51348609D02*
X132518170Y-51348609D01*
X132518170Y-51872419D02*
X132518170Y-50872419D01*
X132518170Y-50872419D02*
X132994360Y-50872419D01*
X133375313Y-51491466D02*
X134137218Y-51491466D01*
X134756265Y-51300990D02*
X134661027Y-51253371D01*
X134661027Y-51253371D02*
X134613408Y-51205752D01*
X134613408Y-51205752D02*
X134565789Y-51110514D01*
X134565789Y-51110514D02*
X134565789Y-51062895D01*
X134565789Y-51062895D02*
X134613408Y-50967657D01*
X134613408Y-50967657D02*
X134661027Y-50920038D01*
X134661027Y-50920038D02*
X134756265Y-50872419D01*
X134756265Y-50872419D02*
X134946741Y-50872419D01*
X134946741Y-50872419D02*
X135041979Y-50920038D01*
X135041979Y-50920038D02*
X135089598Y-50967657D01*
X135089598Y-50967657D02*
X135137217Y-51062895D01*
X135137217Y-51062895D02*
X135137217Y-51110514D01*
X135137217Y-51110514D02*
X135089598Y-51205752D01*
X135089598Y-51205752D02*
X135041979Y-51253371D01*
X135041979Y-51253371D02*
X134946741Y-51300990D01*
X134946741Y-51300990D02*
X134756265Y-51300990D01*
X134756265Y-51300990D02*
X134661027Y-51348609D01*
X134661027Y-51348609D02*
X134613408Y-51396228D01*
X134613408Y-51396228D02*
X134565789Y-51491466D01*
X134565789Y-51491466D02*
X134565789Y-51681942D01*
X134565789Y-51681942D02*
X134613408Y-51777180D01*
X134613408Y-51777180D02*
X134661027Y-51824800D01*
X134661027Y-51824800D02*
X134756265Y-51872419D01*
X134756265Y-51872419D02*
X134946741Y-51872419D01*
X134946741Y-51872419D02*
X135041979Y-51824800D01*
X135041979Y-51824800D02*
X135089598Y-51777180D01*
X135089598Y-51777180D02*
X135137217Y-51681942D01*
X135137217Y-51681942D02*
X135137217Y-51491466D01*
X135137217Y-51491466D02*
X135089598Y-51396228D01*
X135089598Y-51396228D02*
X135041979Y-51348609D01*
X135041979Y-51348609D02*
X134946741Y-51300990D01*
X131467657Y-78529449D02*
X131420038Y-78624687D01*
X131420038Y-78624687D02*
X131324800Y-78719925D01*
X131324800Y-78719925D02*
X131181942Y-78862782D01*
X131181942Y-78862782D02*
X131134323Y-78958020D01*
X131134323Y-78958020D02*
X131134323Y-79053258D01*
X131372419Y-79005639D02*
X131324800Y-79100877D01*
X131324800Y-79100877D02*
X131229561Y-79196115D01*
X131229561Y-79196115D02*
X131039085Y-79243734D01*
X131039085Y-79243734D02*
X130705752Y-79243734D01*
X130705752Y-79243734D02*
X130515276Y-79196115D01*
X130515276Y-79196115D02*
X130420038Y-79100877D01*
X130420038Y-79100877D02*
X130372419Y-79005639D01*
X130372419Y-79005639D02*
X130372419Y-78815163D01*
X130372419Y-78815163D02*
X130420038Y-78719925D01*
X130420038Y-78719925D02*
X130515276Y-78624687D01*
X130515276Y-78624687D02*
X130705752Y-78577068D01*
X130705752Y-78577068D02*
X131039085Y-78577068D01*
X131039085Y-78577068D02*
X131229561Y-78624687D01*
X131229561Y-78624687D02*
X131324800Y-78719925D01*
X131324800Y-78719925D02*
X131372419Y-78815163D01*
X131372419Y-78815163D02*
X131372419Y-79005639D01*
X131372419Y-77624687D02*
X131372419Y-78196115D01*
X131372419Y-77910401D02*
X130372419Y-77910401D01*
X130372419Y-77910401D02*
X130515276Y-78005639D01*
X130515276Y-78005639D02*
X130610514Y-78100877D01*
X130610514Y-78100877D02*
X130658133Y-78196115D01*
X152803884Y-95872419D02*
X152803884Y-94872419D01*
X152803884Y-94872419D02*
X153184836Y-94872419D01*
X153184836Y-94872419D02*
X153280074Y-94920038D01*
X153280074Y-94920038D02*
X153327693Y-94967657D01*
X153327693Y-94967657D02*
X153375312Y-95062895D01*
X153375312Y-95062895D02*
X153375312Y-95205752D01*
X153375312Y-95205752D02*
X153327693Y-95300990D01*
X153327693Y-95300990D02*
X153280074Y-95348609D01*
X153280074Y-95348609D02*
X153184836Y-95396228D01*
X153184836Y-95396228D02*
X152803884Y-95396228D01*
X153803884Y-95872419D02*
X153803884Y-95205752D01*
X153803884Y-94872419D02*
X153756265Y-94920038D01*
X153756265Y-94920038D02*
X153803884Y-94967657D01*
X153803884Y-94967657D02*
X153851503Y-94920038D01*
X153851503Y-94920038D02*
X153803884Y-94872419D01*
X153803884Y-94872419D02*
X153803884Y-94967657D01*
X154280074Y-95205752D02*
X154280074Y-95872419D01*
X154280074Y-95300990D02*
X154327693Y-95253371D01*
X154327693Y-95253371D02*
X154422931Y-95205752D01*
X154422931Y-95205752D02*
X154565788Y-95205752D01*
X154565788Y-95205752D02*
X154661026Y-95253371D01*
X154661026Y-95253371D02*
X154708645Y-95348609D01*
X154708645Y-95348609D02*
X154708645Y-95872419D01*
X155137217Y-95824800D02*
X155232455Y-95872419D01*
X155232455Y-95872419D02*
X155422931Y-95872419D01*
X155422931Y-95872419D02*
X155518169Y-95824800D01*
X155518169Y-95824800D02*
X155565788Y-95729561D01*
X155565788Y-95729561D02*
X155565788Y-95681942D01*
X155565788Y-95681942D02*
X155518169Y-95586704D01*
X155518169Y-95586704D02*
X155422931Y-95539085D01*
X155422931Y-95539085D02*
X155280074Y-95539085D01*
X155280074Y-95539085D02*
X155184836Y-95491466D01*
X155184836Y-95491466D02*
X155137217Y-95396228D01*
X155137217Y-95396228D02*
X155137217Y-95348609D01*
X155137217Y-95348609D02*
X155184836Y-95253371D01*
X155184836Y-95253371D02*
X155280074Y-95205752D01*
X155280074Y-95205752D02*
X155422931Y-95205752D01*
X155422931Y-95205752D02*
X155518169Y-95253371D01*
X156708646Y-95586704D02*
X157184836Y-95586704D01*
X156613408Y-95872419D02*
X156946741Y-94872419D01*
X156946741Y-94872419D02*
X157280074Y-95872419D01*
X158089598Y-94872419D02*
X157613408Y-94872419D01*
X157613408Y-94872419D02*
X157565789Y-95348609D01*
X157565789Y-95348609D02*
X157613408Y-95300990D01*
X157613408Y-95300990D02*
X157708646Y-95253371D01*
X157708646Y-95253371D02*
X157946741Y-95253371D01*
X157946741Y-95253371D02*
X158041979Y-95300990D01*
X158041979Y-95300990D02*
X158089598Y-95348609D01*
X158089598Y-95348609D02*
X158137217Y-95443847D01*
X158137217Y-95443847D02*
X158137217Y-95681942D01*
X158137217Y-95681942D02*
X158089598Y-95777180D01*
X158089598Y-95777180D02*
X158041979Y-95824800D01*
X158041979Y-95824800D02*
X157946741Y-95872419D01*
X157946741Y-95872419D02*
X157708646Y-95872419D01*
X157708646Y-95872419D02*
X157613408Y-95824800D01*
X157613408Y-95824800D02*
X157565789Y-95777180D01*
X158565789Y-95491466D02*
X159327694Y-95491466D01*
X159756265Y-95586704D02*
X160232455Y-95586704D01*
X159661027Y-95872419D02*
X159994360Y-94872419D01*
X159994360Y-94872419D02*
X160327693Y-95872419D01*
X160851503Y-94872419D02*
X160946741Y-94872419D01*
X160946741Y-94872419D02*
X161041979Y-94920038D01*
X161041979Y-94920038D02*
X161089598Y-94967657D01*
X161089598Y-94967657D02*
X161137217Y-95062895D01*
X161137217Y-95062895D02*
X161184836Y-95253371D01*
X161184836Y-95253371D02*
X161184836Y-95491466D01*
X161184836Y-95491466D02*
X161137217Y-95681942D01*
X161137217Y-95681942D02*
X161089598Y-95777180D01*
X161089598Y-95777180D02*
X161041979Y-95824800D01*
X161041979Y-95824800D02*
X160946741Y-95872419D01*
X160946741Y-95872419D02*
X160851503Y-95872419D01*
X160851503Y-95872419D02*
X160756265Y-95824800D01*
X160756265Y-95824800D02*
X160708646Y-95777180D01*
X160708646Y-95777180D02*
X160661027Y-95681942D01*
X160661027Y-95681942D02*
X160613408Y-95491466D01*
X160613408Y-95491466D02*
X160613408Y-95253371D01*
X160613408Y-95253371D02*
X160661027Y-95062895D01*
X160661027Y-95062895D02*
X160708646Y-94967657D01*
X160708646Y-94967657D02*
X160756265Y-94920038D01*
X160756265Y-94920038D02*
X160851503Y-94872419D01*
X130803884Y-95872419D02*
X130803884Y-94872419D01*
X130803884Y-94872419D02*
X131184836Y-94872419D01*
X131184836Y-94872419D02*
X131280074Y-94920038D01*
X131280074Y-94920038D02*
X131327693Y-94967657D01*
X131327693Y-94967657D02*
X131375312Y-95062895D01*
X131375312Y-95062895D02*
X131375312Y-95205752D01*
X131375312Y-95205752D02*
X131327693Y-95300990D01*
X131327693Y-95300990D02*
X131280074Y-95348609D01*
X131280074Y-95348609D02*
X131184836Y-95396228D01*
X131184836Y-95396228D02*
X130803884Y-95396228D01*
X131803884Y-95872419D02*
X131803884Y-95205752D01*
X131803884Y-94872419D02*
X131756265Y-94920038D01*
X131756265Y-94920038D02*
X131803884Y-94967657D01*
X131803884Y-94967657D02*
X131851503Y-94920038D01*
X131851503Y-94920038D02*
X131803884Y-94872419D01*
X131803884Y-94872419D02*
X131803884Y-94967657D01*
X132280074Y-95205752D02*
X132280074Y-95872419D01*
X132280074Y-95300990D02*
X132327693Y-95253371D01*
X132327693Y-95253371D02*
X132422931Y-95205752D01*
X132422931Y-95205752D02*
X132565788Y-95205752D01*
X132565788Y-95205752D02*
X132661026Y-95253371D01*
X132661026Y-95253371D02*
X132708645Y-95348609D01*
X132708645Y-95348609D02*
X132708645Y-95872419D01*
X133137217Y-95824800D02*
X133232455Y-95872419D01*
X133232455Y-95872419D02*
X133422931Y-95872419D01*
X133422931Y-95872419D02*
X133518169Y-95824800D01*
X133518169Y-95824800D02*
X133565788Y-95729561D01*
X133565788Y-95729561D02*
X133565788Y-95681942D01*
X133565788Y-95681942D02*
X133518169Y-95586704D01*
X133518169Y-95586704D02*
X133422931Y-95539085D01*
X133422931Y-95539085D02*
X133280074Y-95539085D01*
X133280074Y-95539085D02*
X133184836Y-95491466D01*
X133184836Y-95491466D02*
X133137217Y-95396228D01*
X133137217Y-95396228D02*
X133137217Y-95348609D01*
X133137217Y-95348609D02*
X133184836Y-95253371D01*
X133184836Y-95253371D02*
X133280074Y-95205752D01*
X133280074Y-95205752D02*
X133422931Y-95205752D01*
X133422931Y-95205752D02*
X133518169Y-95253371D01*
X134756265Y-95872419D02*
X134756265Y-94872419D01*
X135422931Y-94872419D02*
X135613407Y-94872419D01*
X135613407Y-94872419D02*
X135708645Y-94920038D01*
X135708645Y-94920038D02*
X135803883Y-95015276D01*
X135803883Y-95015276D02*
X135851502Y-95205752D01*
X135851502Y-95205752D02*
X135851502Y-95539085D01*
X135851502Y-95539085D02*
X135803883Y-95729561D01*
X135803883Y-95729561D02*
X135708645Y-95824800D01*
X135708645Y-95824800D02*
X135613407Y-95872419D01*
X135613407Y-95872419D02*
X135422931Y-95872419D01*
X135422931Y-95872419D02*
X135327693Y-95824800D01*
X135327693Y-95824800D02*
X135232455Y-95729561D01*
X135232455Y-95729561D02*
X135184836Y-95539085D01*
X135184836Y-95539085D02*
X135184836Y-95205752D01*
X135184836Y-95205752D02*
X135232455Y-95015276D01*
X135232455Y-95015276D02*
X135327693Y-94920038D01*
X135327693Y-94920038D02*
X135422931Y-94872419D01*
X136851502Y-95872419D02*
X136518169Y-95396228D01*
X136280074Y-95872419D02*
X136280074Y-94872419D01*
X136280074Y-94872419D02*
X136661026Y-94872419D01*
X136661026Y-94872419D02*
X136756264Y-94920038D01*
X136756264Y-94920038D02*
X136803883Y-94967657D01*
X136803883Y-94967657D02*
X136851502Y-95062895D01*
X136851502Y-95062895D02*
X136851502Y-95205752D01*
X136851502Y-95205752D02*
X136803883Y-95300990D01*
X136803883Y-95300990D02*
X136756264Y-95348609D01*
X136756264Y-95348609D02*
X136661026Y-95396228D01*
X136661026Y-95396228D02*
X136280074Y-95396228D01*
X137280074Y-95348609D02*
X137613407Y-95348609D01*
X137756264Y-95872419D02*
X137280074Y-95872419D01*
X137280074Y-95872419D02*
X137280074Y-94872419D01*
X137280074Y-94872419D02*
X137756264Y-94872419D01*
X138518169Y-95348609D02*
X138184836Y-95348609D01*
X138184836Y-95872419D02*
X138184836Y-94872419D01*
X138184836Y-94872419D02*
X138661026Y-94872419D01*
X139041979Y-95491466D02*
X139803884Y-95491466D01*
X140137217Y-94872419D02*
X140470550Y-95872419D01*
X140470550Y-95872419D02*
X140803883Y-94872419D01*
X141137217Y-95872419D02*
X141137217Y-94872419D01*
X141613407Y-95872419D02*
X141613407Y-94872419D01*
X141613407Y-94872419D02*
X142184835Y-95872419D01*
X142184835Y-95872419D02*
X142184835Y-94872419D01*
X104327693Y-72872419D02*
X103756265Y-72872419D01*
X104041979Y-72872419D02*
X104041979Y-71872419D01*
X104041979Y-71872419D02*
X103946741Y-72015276D01*
X103946741Y-72015276D02*
X103851503Y-72110514D01*
X103851503Y-72110514D02*
X103756265Y-72158133D01*
X104708646Y-71967657D02*
X104756265Y-71920038D01*
X104756265Y-71920038D02*
X104851503Y-71872419D01*
X104851503Y-71872419D02*
X105089598Y-71872419D01*
X105089598Y-71872419D02*
X105184836Y-71920038D01*
X105184836Y-71920038D02*
X105232455Y-71967657D01*
X105232455Y-71967657D02*
X105280074Y-72062895D01*
X105280074Y-72062895D02*
X105280074Y-72158133D01*
X105280074Y-72158133D02*
X105232455Y-72300990D01*
X105232455Y-72300990D02*
X104661027Y-72872419D01*
X104661027Y-72872419D02*
X105280074Y-72872419D01*
X105565789Y-71872419D02*
X105899122Y-72872419D01*
X105899122Y-72872419D02*
X106232455Y-71872419D01*
X106565789Y-72491466D02*
X107327694Y-72491466D01*
X106946741Y-72872419D02*
X106946741Y-72110514D01*
X105280074Y-93872419D02*
X104803884Y-93872419D01*
X104803884Y-93872419D02*
X104803884Y-92872419D01*
X106184836Y-93777180D02*
X106137217Y-93824800D01*
X106137217Y-93824800D02*
X105994360Y-93872419D01*
X105994360Y-93872419D02*
X105899122Y-93872419D01*
X105899122Y-93872419D02*
X105756265Y-93824800D01*
X105756265Y-93824800D02*
X105661027Y-93729561D01*
X105661027Y-93729561D02*
X105613408Y-93634323D01*
X105613408Y-93634323D02*
X105565789Y-93443847D01*
X105565789Y-93443847D02*
X105565789Y-93300990D01*
X105565789Y-93300990D02*
X105613408Y-93110514D01*
X105613408Y-93110514D02*
X105661027Y-93015276D01*
X105661027Y-93015276D02*
X105756265Y-92920038D01*
X105756265Y-92920038D02*
X105899122Y-92872419D01*
X105899122Y-92872419D02*
X105994360Y-92872419D01*
X105994360Y-92872419D02*
X106137217Y-92920038D01*
X106137217Y-92920038D02*
X106184836Y-92967657D01*
X106613408Y-93872419D02*
X106613408Y-92872419D01*
X106613408Y-92872419D02*
X106851503Y-92872419D01*
X106851503Y-92872419D02*
X106994360Y-92920038D01*
X106994360Y-92920038D02*
X107089598Y-93015276D01*
X107089598Y-93015276D02*
X107137217Y-93110514D01*
X107137217Y-93110514D02*
X107184836Y-93300990D01*
X107184836Y-93300990D02*
X107184836Y-93443847D01*
X107184836Y-93443847D02*
X107137217Y-93634323D01*
X107137217Y-93634323D02*
X107089598Y-93729561D01*
X107089598Y-93729561D02*
X106994360Y-93824800D01*
X106994360Y-93824800D02*
X106851503Y-93872419D01*
X106851503Y-93872419D02*
X106613408Y-93872419D01*
X102780074Y-84372419D02*
X102303884Y-84372419D01*
X102303884Y-84372419D02*
X102256265Y-84848609D01*
X102256265Y-84848609D02*
X102303884Y-84800990D01*
X102303884Y-84800990D02*
X102399122Y-84753371D01*
X102399122Y-84753371D02*
X102637217Y-84753371D01*
X102637217Y-84753371D02*
X102732455Y-84800990D01*
X102732455Y-84800990D02*
X102780074Y-84848609D01*
X102780074Y-84848609D02*
X102827693Y-84943847D01*
X102827693Y-84943847D02*
X102827693Y-85181942D01*
X102827693Y-85181942D02*
X102780074Y-85277180D01*
X102780074Y-85277180D02*
X102732455Y-85324800D01*
X102732455Y-85324800D02*
X102637217Y-85372419D01*
X102637217Y-85372419D02*
X102399122Y-85372419D01*
X102399122Y-85372419D02*
X102303884Y-85324800D01*
X102303884Y-85324800D02*
X102256265Y-85277180D01*
X103113408Y-84372419D02*
X103446741Y-85372419D01*
X103446741Y-85372419D02*
X103780074Y-84372419D01*
X104113408Y-84991466D02*
X104875313Y-84991466D01*
X104494360Y-85372419D02*
X104494360Y-84610514D01*
D11*
X162322200Y-77210839D02*
X162369819Y-77067982D01*
X162369819Y-77067982D02*
X162369819Y-76829887D01*
X162369819Y-76829887D02*
X162322200Y-76734649D01*
X162322200Y-76734649D02*
X162274580Y-76687030D01*
X162274580Y-76687030D02*
X162179342Y-76639411D01*
X162179342Y-76639411D02*
X162084104Y-76639411D01*
X162084104Y-76639411D02*
X161988866Y-76687030D01*
X161988866Y-76687030D02*
X161941247Y-76734649D01*
X161941247Y-76734649D02*
X161893628Y-76829887D01*
X161893628Y-76829887D02*
X161846009Y-77020363D01*
X161846009Y-77020363D02*
X161798390Y-77115601D01*
X161798390Y-77115601D02*
X161750771Y-77163220D01*
X161750771Y-77163220D02*
X161655533Y-77210839D01*
X161655533Y-77210839D02*
X161560295Y-77210839D01*
X161560295Y-77210839D02*
X161465057Y-77163220D01*
X161465057Y-77163220D02*
X161417438Y-77115601D01*
X161417438Y-77115601D02*
X161369819Y-77020363D01*
X161369819Y-77020363D02*
X161369819Y-76782268D01*
X161369819Y-76782268D02*
X161417438Y-76639411D01*
X161703152Y-76353696D02*
X161703152Y-75972744D01*
X161369819Y-76210839D02*
X162226961Y-76210839D01*
X162226961Y-76210839D02*
X162322200Y-76163220D01*
X162322200Y-76163220D02*
X162369819Y-76067982D01*
X162369819Y-76067982D02*
X162369819Y-75972744D01*
X162369819Y-75639410D02*
X161703152Y-75639410D01*
X161369819Y-75639410D02*
X161417438Y-75687029D01*
X161417438Y-75687029D02*
X161465057Y-75639410D01*
X161465057Y-75639410D02*
X161417438Y-75591791D01*
X161417438Y-75591791D02*
X161369819Y-75639410D01*
X161369819Y-75639410D02*
X161465057Y-75639410D01*
X162369819Y-75163220D02*
X161703152Y-75163220D01*
X161893628Y-75163220D02*
X161798390Y-75115601D01*
X161798390Y-75115601D02*
X161750771Y-75067982D01*
X161750771Y-75067982D02*
X161703152Y-74972744D01*
X161703152Y-74972744D02*
X161703152Y-74877506D01*
X162369819Y-73782267D02*
X161369819Y-73782267D01*
X161369819Y-73782267D02*
X162084104Y-73448934D01*
X162084104Y-73448934D02*
X161369819Y-73115601D01*
X161369819Y-73115601D02*
X162369819Y-73115601D01*
X162369819Y-72496553D02*
X162322200Y-72591791D01*
X162322200Y-72591791D02*
X162274580Y-72639410D01*
X162274580Y-72639410D02*
X162179342Y-72687029D01*
X162179342Y-72687029D02*
X161893628Y-72687029D01*
X161893628Y-72687029D02*
X161798390Y-72639410D01*
X161798390Y-72639410D02*
X161750771Y-72591791D01*
X161750771Y-72591791D02*
X161703152Y-72496553D01*
X161703152Y-72496553D02*
X161703152Y-72353696D01*
X161703152Y-72353696D02*
X161750771Y-72258458D01*
X161750771Y-72258458D02*
X161798390Y-72210839D01*
X161798390Y-72210839D02*
X161893628Y-72163220D01*
X161893628Y-72163220D02*
X162179342Y-72163220D01*
X162179342Y-72163220D02*
X162274580Y-72210839D01*
X162274580Y-72210839D02*
X162322200Y-72258458D01*
X162322200Y-72258458D02*
X162369819Y-72353696D01*
X162369819Y-72353696D02*
X162369819Y-72496553D01*
X161703152Y-71877505D02*
X161703152Y-71496553D01*
X161369819Y-71734648D02*
X162226961Y-71734648D01*
X162226961Y-71734648D02*
X162322200Y-71687029D01*
X162322200Y-71687029D02*
X162369819Y-71591791D01*
X162369819Y-71591791D02*
X162369819Y-71496553D01*
X162369819Y-71020362D02*
X162322200Y-71115600D01*
X162322200Y-71115600D02*
X162274580Y-71163219D01*
X162274580Y-71163219D02*
X162179342Y-71210838D01*
X162179342Y-71210838D02*
X161893628Y-71210838D01*
X161893628Y-71210838D02*
X161798390Y-71163219D01*
X161798390Y-71163219D02*
X161750771Y-71115600D01*
X161750771Y-71115600D02*
X161703152Y-71020362D01*
X161703152Y-71020362D02*
X161703152Y-70877505D01*
X161703152Y-70877505D02*
X161750771Y-70782267D01*
X161750771Y-70782267D02*
X161798390Y-70734648D01*
X161798390Y-70734648D02*
X161893628Y-70687029D01*
X161893628Y-70687029D02*
X162179342Y-70687029D01*
X162179342Y-70687029D02*
X162274580Y-70734648D01*
X162274580Y-70734648D02*
X162322200Y-70782267D01*
X162322200Y-70782267D02*
X162369819Y-70877505D01*
X162369819Y-70877505D02*
X162369819Y-71020362D01*
X162369819Y-70258457D02*
X161703152Y-70258457D01*
X161893628Y-70258457D02*
X161798390Y-70210838D01*
X161798390Y-70210838D02*
X161750771Y-70163219D01*
X161750771Y-70163219D02*
X161703152Y-70067981D01*
X161703152Y-70067981D02*
X161703152Y-69972743D01*
X162369819Y-68877504D02*
X161369819Y-68877504D01*
X161369819Y-68877504D02*
X161369819Y-68496552D01*
X161369819Y-68496552D02*
X161417438Y-68401314D01*
X161417438Y-68401314D02*
X161465057Y-68353695D01*
X161465057Y-68353695D02*
X161560295Y-68306076D01*
X161560295Y-68306076D02*
X161703152Y-68306076D01*
X161703152Y-68306076D02*
X161798390Y-68353695D01*
X161798390Y-68353695D02*
X161846009Y-68401314D01*
X161846009Y-68401314D02*
X161893628Y-68496552D01*
X161893628Y-68496552D02*
X161893628Y-68877504D01*
X162369819Y-67877504D02*
X161703152Y-67877504D01*
X161369819Y-67877504D02*
X161417438Y-67925123D01*
X161417438Y-67925123D02*
X161465057Y-67877504D01*
X161465057Y-67877504D02*
X161417438Y-67829885D01*
X161417438Y-67829885D02*
X161369819Y-67877504D01*
X161369819Y-67877504D02*
X161465057Y-67877504D01*
X161703152Y-67401314D02*
X162369819Y-67401314D01*
X161798390Y-67401314D02*
X161750771Y-67353695D01*
X161750771Y-67353695D02*
X161703152Y-67258457D01*
X161703152Y-67258457D02*
X161703152Y-67115600D01*
X161703152Y-67115600D02*
X161750771Y-67020362D01*
X161750771Y-67020362D02*
X161846009Y-66972743D01*
X161846009Y-66972743D02*
X162369819Y-66972743D01*
X162322200Y-66544171D02*
X162369819Y-66448933D01*
X162369819Y-66448933D02*
X162369819Y-66258457D01*
X162369819Y-66258457D02*
X162322200Y-66163219D01*
X162322200Y-66163219D02*
X162226961Y-66115600D01*
X162226961Y-66115600D02*
X162179342Y-66115600D01*
X162179342Y-66115600D02*
X162084104Y-66163219D01*
X162084104Y-66163219D02*
X162036485Y-66258457D01*
X162036485Y-66258457D02*
X162036485Y-66401314D01*
X162036485Y-66401314D02*
X161988866Y-66496552D01*
X161988866Y-66496552D02*
X161893628Y-66544171D01*
X161893628Y-66544171D02*
X161846009Y-66544171D01*
X161846009Y-66544171D02*
X161750771Y-66496552D01*
X161750771Y-66496552D02*
X161703152Y-66401314D01*
X161703152Y-66401314D02*
X161703152Y-66258457D01*
X161703152Y-66258457D02*
X161750771Y-66163219D01*
D10*
X124303884Y-80372419D02*
X124303884Y-79372419D01*
X124303884Y-79372419D02*
X124541979Y-79372419D01*
X124541979Y-79372419D02*
X124684836Y-79420038D01*
X124684836Y-79420038D02*
X124780074Y-79515276D01*
X124780074Y-79515276D02*
X124827693Y-79610514D01*
X124827693Y-79610514D02*
X124875312Y-79800990D01*
X124875312Y-79800990D02*
X124875312Y-79943847D01*
X124875312Y-79943847D02*
X124827693Y-80134323D01*
X124827693Y-80134323D02*
X124780074Y-80229561D01*
X124780074Y-80229561D02*
X124684836Y-80324800D01*
X124684836Y-80324800D02*
X124541979Y-80372419D01*
X124541979Y-80372419D02*
X124303884Y-80372419D01*
X125256265Y-79467657D02*
X125303884Y-79420038D01*
X125303884Y-79420038D02*
X125399122Y-79372419D01*
X125399122Y-79372419D02*
X125637217Y-79372419D01*
X125637217Y-79372419D02*
X125732455Y-79420038D01*
X125732455Y-79420038D02*
X125780074Y-79467657D01*
X125780074Y-79467657D02*
X125827693Y-79562895D01*
X125827693Y-79562895D02*
X125827693Y-79658133D01*
X125827693Y-79658133D02*
X125780074Y-79800990D01*
X125780074Y-79800990D02*
X125208646Y-80372419D01*
X125208646Y-80372419D02*
X125827693Y-80372419D01*
X126756265Y-58824800D02*
X126899122Y-58872419D01*
X126899122Y-58872419D02*
X127137217Y-58872419D01*
X127137217Y-58872419D02*
X127232455Y-58824800D01*
X127232455Y-58824800D02*
X127280074Y-58777180D01*
X127280074Y-58777180D02*
X127327693Y-58681942D01*
X127327693Y-58681942D02*
X127327693Y-58586704D01*
X127327693Y-58586704D02*
X127280074Y-58491466D01*
X127280074Y-58491466D02*
X127232455Y-58443847D01*
X127232455Y-58443847D02*
X127137217Y-58396228D01*
X127137217Y-58396228D02*
X126946741Y-58348609D01*
X126946741Y-58348609D02*
X126851503Y-58300990D01*
X126851503Y-58300990D02*
X126803884Y-58253371D01*
X126803884Y-58253371D02*
X126756265Y-58158133D01*
X126756265Y-58158133D02*
X126756265Y-58062895D01*
X126756265Y-58062895D02*
X126803884Y-57967657D01*
X126803884Y-57967657D02*
X126851503Y-57920038D01*
X126851503Y-57920038D02*
X126946741Y-57872419D01*
X126946741Y-57872419D02*
X127184836Y-57872419D01*
X127184836Y-57872419D02*
X127327693Y-57920038D01*
X127756265Y-58872419D02*
X127756265Y-57872419D01*
X127756265Y-57872419D02*
X127994360Y-57872419D01*
X127994360Y-57872419D02*
X128137217Y-57920038D01*
X128137217Y-57920038D02*
X128232455Y-58015276D01*
X128232455Y-58015276D02*
X128280074Y-58110514D01*
X128280074Y-58110514D02*
X128327693Y-58300990D01*
X128327693Y-58300990D02*
X128327693Y-58443847D01*
X128327693Y-58443847D02*
X128280074Y-58634323D01*
X128280074Y-58634323D02*
X128232455Y-58729561D01*
X128232455Y-58729561D02*
X128137217Y-58824800D01*
X128137217Y-58824800D02*
X127994360Y-58872419D01*
X127994360Y-58872419D02*
X127756265Y-58872419D01*
X130089598Y-58777180D02*
X130041979Y-58824800D01*
X130041979Y-58824800D02*
X129899122Y-58872419D01*
X129899122Y-58872419D02*
X129803884Y-58872419D01*
X129803884Y-58872419D02*
X129661027Y-58824800D01*
X129661027Y-58824800D02*
X129565789Y-58729561D01*
X129565789Y-58729561D02*
X129518170Y-58634323D01*
X129518170Y-58634323D02*
X129470551Y-58443847D01*
X129470551Y-58443847D02*
X129470551Y-58300990D01*
X129470551Y-58300990D02*
X129518170Y-58110514D01*
X129518170Y-58110514D02*
X129565789Y-58015276D01*
X129565789Y-58015276D02*
X129661027Y-57920038D01*
X129661027Y-57920038D02*
X129803884Y-57872419D01*
X129803884Y-57872419D02*
X129899122Y-57872419D01*
X129899122Y-57872419D02*
X130041979Y-57920038D01*
X130041979Y-57920038D02*
X130089598Y-57967657D01*
X130946741Y-58872419D02*
X130946741Y-58348609D01*
X130946741Y-58348609D02*
X130899122Y-58253371D01*
X130899122Y-58253371D02*
X130803884Y-58205752D01*
X130803884Y-58205752D02*
X130613408Y-58205752D01*
X130613408Y-58205752D02*
X130518170Y-58253371D01*
X130946741Y-58824800D02*
X130851503Y-58872419D01*
X130851503Y-58872419D02*
X130613408Y-58872419D01*
X130613408Y-58872419D02*
X130518170Y-58824800D01*
X130518170Y-58824800D02*
X130470551Y-58729561D01*
X130470551Y-58729561D02*
X130470551Y-58634323D01*
X130470551Y-58634323D02*
X130518170Y-58539085D01*
X130518170Y-58539085D02*
X130613408Y-58491466D01*
X130613408Y-58491466D02*
X130851503Y-58491466D01*
X130851503Y-58491466D02*
X130946741Y-58443847D01*
X131422932Y-58872419D02*
X131422932Y-58205752D01*
X131422932Y-58396228D02*
X131470551Y-58300990D01*
X131470551Y-58300990D02*
X131518170Y-58253371D01*
X131518170Y-58253371D02*
X131613408Y-58205752D01*
X131613408Y-58205752D02*
X131708646Y-58205752D01*
X132470551Y-58872419D02*
X132470551Y-57872419D01*
X132470551Y-58824800D02*
X132375313Y-58872419D01*
X132375313Y-58872419D02*
X132184837Y-58872419D01*
X132184837Y-58872419D02*
X132089599Y-58824800D01*
X132089599Y-58824800D02*
X132041980Y-58777180D01*
X132041980Y-58777180D02*
X131994361Y-58681942D01*
X131994361Y-58681942D02*
X131994361Y-58396228D01*
X131994361Y-58396228D02*
X132041980Y-58300990D01*
X132041980Y-58300990D02*
X132089599Y-58253371D01*
X132089599Y-58253371D02*
X132184837Y-58205752D01*
X132184837Y-58205752D02*
X132375313Y-58205752D01*
X132375313Y-58205752D02*
X132470551Y-58253371D01*
X162372419Y-58219925D02*
X162372419Y-58696115D01*
X162372419Y-58696115D02*
X161372419Y-58696115D01*
X161848609Y-57886591D02*
X161848609Y-57553258D01*
X162372419Y-57410401D02*
X162372419Y-57886591D01*
X162372419Y-57886591D02*
X161372419Y-57886591D01*
X161372419Y-57886591D02*
X161372419Y-57410401D01*
X162372419Y-56981829D02*
X161372419Y-56981829D01*
X161372419Y-56981829D02*
X161372419Y-56743734D01*
X161372419Y-56743734D02*
X161420038Y-56600877D01*
X161420038Y-56600877D02*
X161515276Y-56505639D01*
X161515276Y-56505639D02*
X161610514Y-56458020D01*
X161610514Y-56458020D02*
X161800990Y-56410401D01*
X161800990Y-56410401D02*
X161943847Y-56410401D01*
X161943847Y-56410401D02*
X162134323Y-56458020D01*
X162134323Y-56458020D02*
X162229561Y-56505639D01*
X162229561Y-56505639D02*
X162324800Y-56600877D01*
X162324800Y-56600877D02*
X162372419Y-56743734D01*
X162372419Y-56743734D02*
X162372419Y-56981829D01*
X162324800Y-56029448D02*
X162372419Y-55934210D01*
X162372419Y-55934210D02*
X162372419Y-55743734D01*
X162372419Y-55743734D02*
X162324800Y-55648496D01*
X162324800Y-55648496D02*
X162229561Y-55600877D01*
X162229561Y-55600877D02*
X162181942Y-55600877D01*
X162181942Y-55600877D02*
X162086704Y-55648496D01*
X162086704Y-55648496D02*
X162039085Y-55743734D01*
X162039085Y-55743734D02*
X162039085Y-55886591D01*
X162039085Y-55886591D02*
X161991466Y-55981829D01*
X161991466Y-55981829D02*
X161896228Y-56029448D01*
X161896228Y-56029448D02*
X161848609Y-56029448D01*
X161848609Y-56029448D02*
X161753371Y-55981829D01*
X161753371Y-55981829D02*
X161705752Y-55886591D01*
X161705752Y-55886591D02*
X161705752Y-55743734D01*
X161705752Y-55743734D02*
X161753371Y-55648496D01*
D11*
X142498333Y-68454819D02*
X142165000Y-67978628D01*
X141926905Y-68454819D02*
X141926905Y-67454819D01*
X141926905Y-67454819D02*
X142307857Y-67454819D01*
X142307857Y-67454819D02*
X142403095Y-67502438D01*
X142403095Y-67502438D02*
X142450714Y-67550057D01*
X142450714Y-67550057D02*
X142498333Y-67645295D01*
X142498333Y-67645295D02*
X142498333Y-67788152D01*
X142498333Y-67788152D02*
X142450714Y-67883390D01*
X142450714Y-67883390D02*
X142403095Y-67931009D01*
X142403095Y-67931009D02*
X142307857Y-67978628D01*
X142307857Y-67978628D02*
X141926905Y-67978628D01*
X143355476Y-67788152D02*
X143355476Y-68454819D01*
X143117381Y-67407200D02*
X142879286Y-68121485D01*
X142879286Y-68121485D02*
X143498333Y-68121485D01*
X123238095Y-80454819D02*
X123238095Y-79454819D01*
X123809523Y-80454819D02*
X123380952Y-79883390D01*
X123809523Y-79454819D02*
X123238095Y-80026247D01*
X130105057Y-66095238D02*
X130057438Y-66190476D01*
X130057438Y-66190476D02*
X129962200Y-66285714D01*
X129962200Y-66285714D02*
X129819342Y-66428571D01*
X129819342Y-66428571D02*
X129771723Y-66523809D01*
X129771723Y-66523809D02*
X129771723Y-66619047D01*
X130009819Y-66571428D02*
X129962200Y-66666666D01*
X129962200Y-66666666D02*
X129866961Y-66761904D01*
X129866961Y-66761904D02*
X129676485Y-66809523D01*
X129676485Y-66809523D02*
X129343152Y-66809523D01*
X129343152Y-66809523D02*
X129152676Y-66761904D01*
X129152676Y-66761904D02*
X129057438Y-66666666D01*
X129057438Y-66666666D02*
X129009819Y-66571428D01*
X129009819Y-66571428D02*
X129009819Y-66380952D01*
X129009819Y-66380952D02*
X129057438Y-66285714D01*
X129057438Y-66285714D02*
X129152676Y-66190476D01*
X129152676Y-66190476D02*
X129343152Y-66142857D01*
X129343152Y-66142857D02*
X129676485Y-66142857D01*
X129676485Y-66142857D02*
X129866961Y-66190476D01*
X129866961Y-66190476D02*
X129962200Y-66285714D01*
X129962200Y-66285714D02*
X130009819Y-66380952D01*
X130009819Y-66380952D02*
X130009819Y-66571428D01*
X129105057Y-65761904D02*
X129057438Y-65714285D01*
X129057438Y-65714285D02*
X129009819Y-65619047D01*
X129009819Y-65619047D02*
X129009819Y-65380952D01*
X129009819Y-65380952D02*
X129057438Y-65285714D01*
X129057438Y-65285714D02*
X129105057Y-65238095D01*
X129105057Y-65238095D02*
X129200295Y-65190476D01*
X129200295Y-65190476D02*
X129295533Y-65190476D01*
X129295533Y-65190476D02*
X129438390Y-65238095D01*
X129438390Y-65238095D02*
X130009819Y-65809523D01*
X130009819Y-65809523D02*
X130009819Y-65190476D01*
X123333333Y-61454819D02*
X123000000Y-60978628D01*
X122761905Y-61454819D02*
X122761905Y-60454819D01*
X122761905Y-60454819D02*
X123142857Y-60454819D01*
X123142857Y-60454819D02*
X123238095Y-60502438D01*
X123238095Y-60502438D02*
X123285714Y-60550057D01*
X123285714Y-60550057D02*
X123333333Y-60645295D01*
X123333333Y-60645295D02*
X123333333Y-60788152D01*
X123333333Y-60788152D02*
X123285714Y-60883390D01*
X123285714Y-60883390D02*
X123238095Y-60931009D01*
X123238095Y-60931009D02*
X123142857Y-60978628D01*
X123142857Y-60978628D02*
X122761905Y-60978628D01*
X124285714Y-61454819D02*
X123714286Y-61454819D01*
X124000000Y-61454819D02*
X124000000Y-60454819D01*
X124000000Y-60454819D02*
X123904762Y-60597676D01*
X123904762Y-60597676D02*
X123809524Y-60692914D01*
X123809524Y-60692914D02*
X123714286Y-60740533D01*
X158954819Y-76798094D02*
X157954819Y-76798094D01*
X157954819Y-76798094D02*
X157954819Y-76559999D01*
X157954819Y-76559999D02*
X158002438Y-76417142D01*
X158002438Y-76417142D02*
X158097676Y-76321904D01*
X158097676Y-76321904D02*
X158192914Y-76274285D01*
X158192914Y-76274285D02*
X158383390Y-76226666D01*
X158383390Y-76226666D02*
X158526247Y-76226666D01*
X158526247Y-76226666D02*
X158716723Y-76274285D01*
X158716723Y-76274285D02*
X158811961Y-76321904D01*
X158811961Y-76321904D02*
X158907200Y-76417142D01*
X158907200Y-76417142D02*
X158954819Y-76559999D01*
X158954819Y-76559999D02*
X158954819Y-76798094D01*
X157954819Y-75893332D02*
X157954819Y-75274285D01*
X157954819Y-75274285D02*
X158335771Y-75607618D01*
X158335771Y-75607618D02*
X158335771Y-75464761D01*
X158335771Y-75464761D02*
X158383390Y-75369523D01*
X158383390Y-75369523D02*
X158431009Y-75321904D01*
X158431009Y-75321904D02*
X158526247Y-75274285D01*
X158526247Y-75274285D02*
X158764342Y-75274285D01*
X158764342Y-75274285D02*
X158859580Y-75321904D01*
X158859580Y-75321904D02*
X158907200Y-75369523D01*
X158907200Y-75369523D02*
X158954819Y-75464761D01*
X158954819Y-75464761D02*
X158954819Y-75750475D01*
X158954819Y-75750475D02*
X158907200Y-75845713D01*
X158907200Y-75845713D02*
X158859580Y-75893332D01*
X157454819Y-75821904D02*
X156454819Y-75821904D01*
X157454819Y-75250476D02*
X156883390Y-75679047D01*
X156454819Y-75250476D02*
X157026247Y-75821904D01*
X151050057Y-70095238D02*
X151002438Y-70190476D01*
X151002438Y-70190476D02*
X150907200Y-70285714D01*
X150907200Y-70285714D02*
X150764342Y-70428571D01*
X150764342Y-70428571D02*
X150716723Y-70523809D01*
X150716723Y-70523809D02*
X150716723Y-70619047D01*
X150954819Y-70571428D02*
X150907200Y-70666666D01*
X150907200Y-70666666D02*
X150811961Y-70761904D01*
X150811961Y-70761904D02*
X150621485Y-70809523D01*
X150621485Y-70809523D02*
X150288152Y-70809523D01*
X150288152Y-70809523D02*
X150097676Y-70761904D01*
X150097676Y-70761904D02*
X150002438Y-70666666D01*
X150002438Y-70666666D02*
X149954819Y-70571428D01*
X149954819Y-70571428D02*
X149954819Y-70380952D01*
X149954819Y-70380952D02*
X150002438Y-70285714D01*
X150002438Y-70285714D02*
X150097676Y-70190476D01*
X150097676Y-70190476D02*
X150288152Y-70142857D01*
X150288152Y-70142857D02*
X150621485Y-70142857D01*
X150621485Y-70142857D02*
X150811961Y-70190476D01*
X150811961Y-70190476D02*
X150907200Y-70285714D01*
X150907200Y-70285714D02*
X150954819Y-70380952D01*
X150954819Y-70380952D02*
X150954819Y-70571428D01*
X149954819Y-69809523D02*
X149954819Y-69190476D01*
X149954819Y-69190476D02*
X150335771Y-69523809D01*
X150335771Y-69523809D02*
X150335771Y-69380952D01*
X150335771Y-69380952D02*
X150383390Y-69285714D01*
X150383390Y-69285714D02*
X150431009Y-69238095D01*
X150431009Y-69238095D02*
X150526247Y-69190476D01*
X150526247Y-69190476D02*
X150764342Y-69190476D01*
X150764342Y-69190476D02*
X150859580Y-69238095D01*
X150859580Y-69238095D02*
X150907200Y-69285714D01*
X150907200Y-69285714D02*
X150954819Y-69380952D01*
X150954819Y-69380952D02*
X150954819Y-69666666D01*
X150954819Y-69666666D02*
X150907200Y-69761904D01*
X150907200Y-69761904D02*
X150859580Y-69809523D01*
X112333333Y-89359580D02*
X112285714Y-89407200D01*
X112285714Y-89407200D02*
X112142857Y-89454819D01*
X112142857Y-89454819D02*
X112047619Y-89454819D01*
X112047619Y-89454819D02*
X111904762Y-89407200D01*
X111904762Y-89407200D02*
X111809524Y-89311961D01*
X111809524Y-89311961D02*
X111761905Y-89216723D01*
X111761905Y-89216723D02*
X111714286Y-89026247D01*
X111714286Y-89026247D02*
X111714286Y-88883390D01*
X111714286Y-88883390D02*
X111761905Y-88692914D01*
X111761905Y-88692914D02*
X111809524Y-88597676D01*
X111809524Y-88597676D02*
X111904762Y-88502438D01*
X111904762Y-88502438D02*
X112047619Y-88454819D01*
X112047619Y-88454819D02*
X112142857Y-88454819D01*
X112142857Y-88454819D02*
X112285714Y-88502438D01*
X112285714Y-88502438D02*
X112333333Y-88550057D01*
X112714286Y-88550057D02*
X112761905Y-88502438D01*
X112761905Y-88502438D02*
X112857143Y-88454819D01*
X112857143Y-88454819D02*
X113095238Y-88454819D01*
X113095238Y-88454819D02*
X113190476Y-88502438D01*
X113190476Y-88502438D02*
X113238095Y-88550057D01*
X113238095Y-88550057D02*
X113285714Y-88645295D01*
X113285714Y-88645295D02*
X113285714Y-88740533D01*
X113285714Y-88740533D02*
X113238095Y-88883390D01*
X113238095Y-88883390D02*
X112666667Y-89454819D01*
X112666667Y-89454819D02*
X113285714Y-89454819D01*
X156333333Y-56954819D02*
X156000000Y-56478628D01*
X155761905Y-56954819D02*
X155761905Y-55954819D01*
X155761905Y-55954819D02*
X156142857Y-55954819D01*
X156142857Y-55954819D02*
X156238095Y-56002438D01*
X156238095Y-56002438D02*
X156285714Y-56050057D01*
X156285714Y-56050057D02*
X156333333Y-56145295D01*
X156333333Y-56145295D02*
X156333333Y-56288152D01*
X156333333Y-56288152D02*
X156285714Y-56383390D01*
X156285714Y-56383390D02*
X156238095Y-56431009D01*
X156238095Y-56431009D02*
X156142857Y-56478628D01*
X156142857Y-56478628D02*
X155761905Y-56478628D01*
X157190476Y-55954819D02*
X157000000Y-55954819D01*
X157000000Y-55954819D02*
X156904762Y-56002438D01*
X156904762Y-56002438D02*
X156857143Y-56050057D01*
X156857143Y-56050057D02*
X156761905Y-56192914D01*
X156761905Y-56192914D02*
X156714286Y-56383390D01*
X156714286Y-56383390D02*
X156714286Y-56764342D01*
X156714286Y-56764342D02*
X156761905Y-56859580D01*
X156761905Y-56859580D02*
X156809524Y-56907200D01*
X156809524Y-56907200D02*
X156904762Y-56954819D01*
X156904762Y-56954819D02*
X157095238Y-56954819D01*
X157095238Y-56954819D02*
X157190476Y-56907200D01*
X157190476Y-56907200D02*
X157238095Y-56859580D01*
X157238095Y-56859580D02*
X157285714Y-56764342D01*
X157285714Y-56764342D02*
X157285714Y-56526247D01*
X157285714Y-56526247D02*
X157238095Y-56431009D01*
X157238095Y-56431009D02*
X157190476Y-56383390D01*
X157190476Y-56383390D02*
X157095238Y-56335771D01*
X157095238Y-56335771D02*
X156904762Y-56335771D01*
X156904762Y-56335771D02*
X156809524Y-56383390D01*
X156809524Y-56383390D02*
X156761905Y-56431009D01*
X156761905Y-56431009D02*
X156714286Y-56526247D01*
X142498333Y-63954819D02*
X142165000Y-63478628D01*
X141926905Y-63954819D02*
X141926905Y-62954819D01*
X141926905Y-62954819D02*
X142307857Y-62954819D01*
X142307857Y-62954819D02*
X142403095Y-63002438D01*
X142403095Y-63002438D02*
X142450714Y-63050057D01*
X142450714Y-63050057D02*
X142498333Y-63145295D01*
X142498333Y-63145295D02*
X142498333Y-63288152D01*
X142498333Y-63288152D02*
X142450714Y-63383390D01*
X142450714Y-63383390D02*
X142403095Y-63431009D01*
X142403095Y-63431009D02*
X142307857Y-63478628D01*
X142307857Y-63478628D02*
X141926905Y-63478628D01*
X142831667Y-62954819D02*
X143450714Y-62954819D01*
X143450714Y-62954819D02*
X143117381Y-63335771D01*
X143117381Y-63335771D02*
X143260238Y-63335771D01*
X143260238Y-63335771D02*
X143355476Y-63383390D01*
X143355476Y-63383390D02*
X143403095Y-63431009D01*
X143403095Y-63431009D02*
X143450714Y-63526247D01*
X143450714Y-63526247D02*
X143450714Y-63764342D01*
X143450714Y-63764342D02*
X143403095Y-63859580D01*
X143403095Y-63859580D02*
X143355476Y-63907200D01*
X143355476Y-63907200D02*
X143260238Y-63954819D01*
X143260238Y-63954819D02*
X142974524Y-63954819D01*
X142974524Y-63954819D02*
X142879286Y-63907200D01*
X142879286Y-63907200D02*
X142831667Y-63859580D01*
X122238095Y-69454819D02*
X122238095Y-68454819D01*
X122809523Y-69454819D02*
X122380952Y-68883390D01*
X122809523Y-68454819D02*
X122238095Y-69026247D01*
X151333333Y-60859580D02*
X151285714Y-60907200D01*
X151285714Y-60907200D02*
X151142857Y-60954819D01*
X151142857Y-60954819D02*
X151047619Y-60954819D01*
X151047619Y-60954819D02*
X150904762Y-60907200D01*
X150904762Y-60907200D02*
X150809524Y-60811961D01*
X150809524Y-60811961D02*
X150761905Y-60716723D01*
X150761905Y-60716723D02*
X150714286Y-60526247D01*
X150714286Y-60526247D02*
X150714286Y-60383390D01*
X150714286Y-60383390D02*
X150761905Y-60192914D01*
X150761905Y-60192914D02*
X150809524Y-60097676D01*
X150809524Y-60097676D02*
X150904762Y-60002438D01*
X150904762Y-60002438D02*
X151047619Y-59954819D01*
X151047619Y-59954819D02*
X151142857Y-59954819D01*
X151142857Y-59954819D02*
X151285714Y-60002438D01*
X151285714Y-60002438D02*
X151333333Y-60050057D01*
X151666667Y-59954819D02*
X152285714Y-59954819D01*
X152285714Y-59954819D02*
X151952381Y-60335771D01*
X151952381Y-60335771D02*
X152095238Y-60335771D01*
X152095238Y-60335771D02*
X152190476Y-60383390D01*
X152190476Y-60383390D02*
X152238095Y-60431009D01*
X152238095Y-60431009D02*
X152285714Y-60526247D01*
X152285714Y-60526247D02*
X152285714Y-60764342D01*
X152285714Y-60764342D02*
X152238095Y-60859580D01*
X152238095Y-60859580D02*
X152190476Y-60907200D01*
X152190476Y-60907200D02*
X152095238Y-60954819D01*
X152095238Y-60954819D02*
X151809524Y-60954819D01*
X151809524Y-60954819D02*
X151714286Y-60907200D01*
X151714286Y-60907200D02*
X151666667Y-60859580D01*
D12*
%TO.C,J1*%
X122360000Y-57360000D02*
X122360000Y-56110000D01*
X122060000Y-57060000D02*
X122060000Y-52340000D01*
X122060000Y-55750000D02*
X121450000Y-55750000D01*
X122060000Y-54450000D02*
X121450000Y-54450000D01*
X122060000Y-52340000D02*
X111940000Y-52340000D01*
X121450000Y-56450000D02*
X121450000Y-52950000D01*
X121450000Y-52950000D02*
X112550000Y-52950000D01*
X121110000Y-57360000D02*
X122360000Y-57360000D01*
X120600000Y-57260000D02*
X120600000Y-57060000D01*
X120300000Y-57260000D02*
X120600000Y-57260000D01*
X120300000Y-57160000D02*
X120600000Y-57160000D01*
X120300000Y-57060000D02*
X120300000Y-57260000D01*
X119500000Y-57060000D02*
X119500000Y-56450000D01*
X119500000Y-56450000D02*
X121450000Y-56450000D01*
X119100000Y-53450000D02*
X118900000Y-53450000D01*
X119100000Y-52950000D02*
X119100000Y-53450000D01*
X119000000Y-52950000D02*
X119000000Y-53450000D01*
X118900000Y-53450000D02*
X118900000Y-52950000D01*
X117100000Y-53450000D02*
X116900000Y-53450000D01*
X117100000Y-52950000D02*
X117100000Y-53450000D01*
X117000000Y-52950000D02*
X117000000Y-53450000D01*
X116900000Y-53450000D02*
X116900000Y-52950000D01*
X115100000Y-53450000D02*
X114900000Y-53450000D01*
X115100000Y-52950000D02*
X115100000Y-53450000D01*
X115000000Y-52950000D02*
X115000000Y-53450000D01*
X114900000Y-53450000D02*
X114900000Y-52950000D01*
X114500000Y-56450000D02*
X114500000Y-57060000D01*
X112550000Y-56450000D02*
X114500000Y-56450000D01*
X112550000Y-52950000D02*
X112550000Y-56450000D01*
X111940000Y-57060000D02*
X122060000Y-57060000D01*
X111940000Y-55750000D02*
X112550000Y-55750000D01*
X111940000Y-54450000D02*
X112550000Y-54450000D01*
X111940000Y-52340000D02*
X111940000Y-57060000D01*
%TO.C,12v+1*%
X101400000Y-62150000D02*
X116000000Y-62150000D01*
X101400000Y-71350000D02*
X101400000Y-62150000D01*
X110400000Y-71350000D02*
X101400000Y-71350000D01*
X114500000Y-61910000D02*
X116240000Y-61910000D01*
X116000000Y-62150000D02*
X116000000Y-64950000D01*
X116000000Y-68550000D02*
X116000000Y-71350000D01*
X116000000Y-71350000D02*
X114000000Y-71350000D01*
X116240000Y-61910000D02*
X116240000Y-63650000D01*
%TO.C,R4*%
X138625000Y-65500000D02*
X139395000Y-65500000D01*
X139395000Y-64130000D02*
X139395000Y-66870000D01*
X139395000Y-66870000D02*
X145935000Y-66870000D01*
X145935000Y-64130000D02*
X139395000Y-64130000D01*
X145935000Y-66870000D02*
X145935000Y-64130000D01*
X146705000Y-65500000D02*
X145935000Y-65500000D01*
%TO.C,D1*%
X121780000Y-76030000D02*
X121780000Y-76160000D01*
X121780000Y-78970000D02*
X121780000Y-78840000D01*
X126200000Y-78970000D02*
X126200000Y-76030000D01*
X126320000Y-78970000D02*
X126320000Y-76030000D01*
X126440000Y-78970000D02*
X126440000Y-76030000D01*
X127220000Y-76030000D02*
X121780000Y-76030000D01*
X127220000Y-76160000D02*
X127220000Y-76030000D01*
X127220000Y-78840000D02*
X127220000Y-78970000D01*
X127220000Y-78970000D02*
X121780000Y-78970000D01*
%TO.C,Q1*%
X132184000Y-73380000D02*
X132184000Y-83620000D01*
X135315000Y-73380000D02*
X135315000Y-83620000D01*
X136825000Y-73380000D02*
X132184000Y-73380000D01*
X136825000Y-73380000D02*
X136825000Y-83620000D01*
X136825000Y-76650000D02*
X135315000Y-76650000D01*
X136825000Y-80351000D02*
X135315000Y-80351000D01*
X136825000Y-83620000D02*
X132184000Y-83620000D01*
%TO.C,C1*%
X109770000Y-58000000D02*
G75*
G02*
X103230000Y-58000000I-3270000J0D01*
G01*
X103230000Y-58000000D02*
G75*
G02*
X109770000Y-58000000I3270000J0D01*
G01*
%TO.C,Q2*%
X130684000Y-60380000D02*
X130684000Y-70620000D01*
X133815000Y-60380000D02*
X133815000Y-70620000D01*
X135325000Y-60380000D02*
X130684000Y-60380000D01*
X135325000Y-60380000D02*
X135325000Y-70620000D01*
X135325000Y-63650000D02*
X133815000Y-63650000D01*
X135325000Y-67351000D02*
X133815000Y-67351000D01*
X135325000Y-70620000D02*
X130684000Y-70620000D01*
D13*
%TO.C,G\u002A\u002A\u002A*%
G36*
X145481077Y-89098526D02*
G01*
X145484409Y-89466141D01*
X145409984Y-89466141D01*
X145335559Y-89466141D01*
X145337528Y-89098526D01*
X145339497Y-88730911D01*
X145408621Y-88730911D01*
X145477745Y-88730911D01*
X145481077Y-89098526D01*
G37*
G36*
X147271811Y-88730769D02*
G01*
X147277034Y-88757902D01*
X147278732Y-88776248D01*
X147282489Y-88834154D01*
X147223564Y-88842230D01*
X147186360Y-88845565D01*
X147132137Y-88848230D01*
X147069007Y-88849901D01*
X147021260Y-88850307D01*
X146877882Y-88850307D01*
X146881624Y-88928857D01*
X146885365Y-89007407D01*
X147067602Y-89013691D01*
X147249838Y-89019975D01*
X147253703Y-89073390D01*
X147253935Y-89106349D01*
X147249949Y-89126052D01*
X147247419Y-89128337D01*
X147231795Y-89129428D01*
X147195901Y-89131365D01*
X147144580Y-89133903D01*
X147082673Y-89136797D01*
X147061318Y-89137763D01*
X146885365Y-89145656D01*
X146885365Y-89239916D01*
X146885365Y-89334176D01*
X147092738Y-89340460D01*
X147300110Y-89346744D01*
X147300110Y-89403300D01*
X147300110Y-89459857D01*
X147029089Y-89463237D01*
X146948962Y-89463849D01*
X146877431Y-89463657D01*
X146818276Y-89462731D01*
X146775273Y-89461142D01*
X146752199Y-89458962D01*
X146749450Y-89458001D01*
X146747244Y-89443687D01*
X146745247Y-89407471D01*
X146743534Y-89352586D01*
X146742180Y-89282267D01*
X146741259Y-89199746D01*
X146740848Y-89108258D01*
X146740833Y-89087005D01*
X146740833Y-88724627D01*
X146998478Y-88724627D01*
X147076615Y-88724480D01*
X147146149Y-88724070D01*
X147203178Y-88723442D01*
X147243804Y-88722644D01*
X147264127Y-88721719D01*
X147265548Y-88721485D01*
X147271811Y-88730769D01*
G37*
G36*
X149456924Y-88736395D02*
G01*
X149516448Y-88773636D01*
X149561008Y-88826878D01*
X149587544Y-88893673D01*
X149593777Y-88950600D01*
X149589573Y-88996912D01*
X149575401Y-89040111D01*
X149548924Y-89083225D01*
X149507803Y-89129281D01*
X149449700Y-89181305D01*
X149372277Y-89242325D01*
X149363066Y-89249276D01*
X149321472Y-89282058D01*
X149297743Y-89305961D01*
X149293187Y-89322359D01*
X149309111Y-89332623D01*
X149346825Y-89338127D01*
X149407637Y-89340243D01*
X149449967Y-89340460D01*
X149607790Y-89340460D01*
X149603926Y-89393874D01*
X149600061Y-89447289D01*
X149350785Y-89450700D01*
X149101508Y-89454111D01*
X149109636Y-89412996D01*
X149125438Y-89350889D01*
X149148135Y-89299007D01*
X149181625Y-89251780D01*
X149229804Y-89203640D01*
X149291811Y-89152702D01*
X149351494Y-89105391D01*
X149393814Y-89068624D01*
X149421945Y-89038449D01*
X149439061Y-89010917D01*
X149448336Y-88982078D01*
X149452509Y-88952720D01*
X149450633Y-88898255D01*
X149431808Y-88861982D01*
X149394702Y-88842398D01*
X149350648Y-88837739D01*
X149299894Y-88845970D01*
X149265651Y-88872119D01*
X149245325Y-88918372D01*
X149243077Y-88928342D01*
X149236023Y-88953606D01*
X149223225Y-88966405D01*
X149196992Y-88971876D01*
X149175435Y-88973534D01*
X149116192Y-88977364D01*
X149116192Y-88935351D01*
X149125665Y-88883548D01*
X149150354Y-88828234D01*
X149184657Y-88779869D01*
X149212906Y-88754722D01*
X149252953Y-88734846D01*
X149298777Y-88720891D01*
X149305235Y-88719717D01*
X149385500Y-88717605D01*
X149456924Y-88736395D01*
G37*
G36*
X143702174Y-86522078D02*
G01*
X143705652Y-86707457D01*
X143812481Y-86713741D01*
X143919309Y-86720025D01*
X143922923Y-86836279D01*
X143926536Y-86952534D01*
X143837262Y-86952534D01*
X143794520Y-86952302D01*
X143761632Y-86953539D01*
X143737327Y-86959145D01*
X143720332Y-86972019D01*
X143709374Y-86995059D01*
X143703182Y-87031167D01*
X143700482Y-87083240D01*
X143700003Y-87154178D01*
X143700471Y-87246881D01*
X143700549Y-87264035D01*
X143701841Y-87409468D01*
X143704446Y-87530596D01*
X143708414Y-87628217D01*
X143713796Y-87703130D01*
X143720644Y-87756135D01*
X143729008Y-87788029D01*
X143734520Y-87797116D01*
X143754572Y-87806038D01*
X143791889Y-87814064D01*
X143838610Y-87819531D01*
X143841348Y-87819728D01*
X143931877Y-87826012D01*
X143931877Y-87945285D01*
X143931877Y-88064558D01*
X143894173Y-88072620D01*
X143842437Y-88079081D01*
X143775338Y-88081152D01*
X143702210Y-88079132D01*
X143632384Y-88073323D01*
X143575194Y-88064024D01*
X143567404Y-88062119D01*
X143490614Y-88034154D01*
X143434554Y-87994984D01*
X143396564Y-87942612D01*
X143390338Y-87929049D01*
X143384402Y-87912479D01*
X143379519Y-87891975D01*
X143375544Y-87864869D01*
X143372332Y-87828493D01*
X143369738Y-87780181D01*
X143367616Y-87717264D01*
X143365822Y-87637075D01*
X143364211Y-87536947D01*
X143362721Y-87421216D01*
X143357279Y-86966147D01*
X143267537Y-86962482D01*
X143177795Y-86958818D01*
X143174189Y-86843123D01*
X143170582Y-86727429D01*
X143262165Y-86723727D01*
X143353747Y-86720025D01*
X143357217Y-86528362D01*
X143360686Y-86336700D01*
X143529691Y-86336700D01*
X143698696Y-86336700D01*
X143702174Y-86522078D01*
G37*
G36*
X150814413Y-88714554D02*
G01*
X150895633Y-88728434D01*
X150959459Y-88760000D01*
X151005098Y-88808454D01*
X151031755Y-88872997D01*
X151038894Y-88940183D01*
X151034504Y-88992010D01*
X151019825Y-89037874D01*
X150992073Y-89081860D01*
X150948466Y-89128051D01*
X150886221Y-89180531D01*
X150862782Y-89198657D01*
X150815863Y-89235708D01*
X150776936Y-89268902D01*
X150750147Y-89294534D01*
X150739689Y-89308627D01*
X150741140Y-89316701D01*
X150752003Y-89322194D01*
X150776020Y-89325576D01*
X150816931Y-89327315D01*
X150878479Y-89327879D01*
X150893647Y-89327892D01*
X151051669Y-89327892D01*
X151051669Y-89384448D01*
X151051669Y-89441005D01*
X150800623Y-89441005D01*
X150549576Y-89441005D01*
X150556716Y-89400158D01*
X150582772Y-89320706D01*
X150632634Y-89245947D01*
X150700310Y-89180308D01*
X150748412Y-89139954D01*
X150798197Y-89096856D01*
X150839306Y-89059990D01*
X150841155Y-89058280D01*
X150873873Y-89026383D01*
X150891791Y-89002073D01*
X150899316Y-88976721D01*
X150900853Y-88941698D01*
X150900853Y-88941371D01*
X150892305Y-88884888D01*
X150866953Y-88846783D01*
X150825233Y-88827553D01*
X150798726Y-88825171D01*
X150756832Y-88833754D01*
X150722176Y-88855805D01*
X150702093Y-88885774D01*
X150699764Y-88900041D01*
X150695638Y-88935517D01*
X150679829Y-88954973D01*
X150647186Y-88962660D01*
X150623011Y-88963419D01*
X150586340Y-88962635D01*
X150568283Y-88957377D01*
X150562317Y-88943290D01*
X150561870Y-88922573D01*
X150573765Y-88861775D01*
X150604987Y-88803565D01*
X150650382Y-88756236D01*
X150675288Y-88740035D01*
X150712946Y-88722824D01*
X150749441Y-88714742D01*
X150795974Y-88713738D01*
X150814413Y-88714554D01*
G37*
G36*
X151689780Y-88947709D02*
G01*
X151693206Y-89177076D01*
X151730627Y-89177076D01*
X151754624Y-89179087D01*
X151765292Y-89189922D01*
X151767990Y-89216779D01*
X151768047Y-89227348D01*
X151766540Y-89259591D01*
X151758480Y-89273925D01*
X151738553Y-89277546D01*
X151730943Y-89277620D01*
X151710669Y-89278713D01*
X151699233Y-89285856D01*
X151693618Y-89304844D01*
X151690813Y-89341475D01*
X151690097Y-89356170D01*
X151686355Y-89434721D01*
X151626529Y-89438556D01*
X151583435Y-89438026D01*
X151562688Y-89429223D01*
X151560918Y-89425988D01*
X151556864Y-89404427D01*
X151553082Y-89368116D01*
X151551620Y-89346744D01*
X151548107Y-89283904D01*
X151406716Y-89280350D01*
X151265326Y-89276797D01*
X151265326Y-89209779D01*
X151270080Y-89161366D01*
X151368090Y-89161366D01*
X151373325Y-89169892D01*
X151396487Y-89174915D01*
X151440649Y-89176962D01*
X151459209Y-89177076D01*
X151554391Y-89177076D01*
X151554391Y-89020370D01*
X151553802Y-88952506D01*
X151551829Y-88906784D01*
X151548162Y-88880230D01*
X151542490Y-88869872D01*
X151538681Y-88869886D01*
X151527815Y-88882235D01*
X151508007Y-88911600D01*
X151482245Y-88952875D01*
X151453520Y-89000952D01*
X151424819Y-89050724D01*
X151399132Y-89097084D01*
X151379449Y-89134924D01*
X151368757Y-89159138D01*
X151368090Y-89161366D01*
X151270080Y-89161366D01*
X151271064Y-89151350D01*
X151288323Y-89112789D01*
X151307698Y-89084627D01*
X151318903Y-89063963D01*
X151327835Y-89047000D01*
X151347375Y-89012853D01*
X151375031Y-88965788D01*
X151408309Y-88910071D01*
X151425414Y-88881727D01*
X151524341Y-88718343D01*
X151605348Y-88718343D01*
X151686355Y-88718343D01*
X151689780Y-88947709D01*
G37*
G36*
X150142668Y-88722708D02*
G01*
X150206903Y-88753978D01*
X150256170Y-88804850D01*
X150279003Y-88846994D01*
X150289068Y-88879070D01*
X150300003Y-88926711D01*
X150309695Y-88980523D01*
X150311078Y-88989685D01*
X150317574Y-89070967D01*
X150315281Y-89156833D01*
X150305076Y-89239773D01*
X150287841Y-89312275D01*
X150267570Y-89361452D01*
X150228451Y-89407844D01*
X150173129Y-89441659D01*
X150108069Y-89461180D01*
X150039737Y-89464686D01*
X149974600Y-89450459D01*
X149958782Y-89443543D01*
X149905396Y-89403314D01*
X149864900Y-89341583D01*
X149837330Y-89258448D01*
X149822724Y-89154010D01*
X149820383Y-89081239D01*
X149964534Y-89081239D01*
X149964928Y-89157227D01*
X149966403Y-89212476D01*
X149969401Y-89251375D01*
X149974365Y-89278311D01*
X149981734Y-89297674D01*
X149987261Y-89307127D01*
X150023033Y-89344117D01*
X150063458Y-89358153D01*
X150103672Y-89349546D01*
X150138811Y-89318608D01*
X150152123Y-89296579D01*
X150163025Y-89269844D01*
X150170212Y-89238440D01*
X150174380Y-89196648D01*
X150176224Y-89138749D01*
X150176503Y-89096066D01*
X150174210Y-89001915D01*
X150166809Y-88930504D01*
X150153883Y-88879878D01*
X150135015Y-88848082D01*
X150121454Y-88837642D01*
X150073869Y-88825076D01*
X150026767Y-88834745D01*
X149995003Y-88857603D01*
X149983341Y-88871076D01*
X149975110Y-88885510D01*
X149969715Y-88905288D01*
X149966557Y-88934793D01*
X149965040Y-88978407D01*
X149964566Y-89040512D01*
X149964534Y-89081239D01*
X149820383Y-89081239D01*
X149820198Y-89075502D01*
X149827511Y-88963282D01*
X149848878Y-88871559D01*
X149884215Y-88800460D01*
X149933436Y-88750109D01*
X149996458Y-88720634D01*
X150065078Y-88712059D01*
X150142668Y-88722708D01*
G37*
G36*
X143996227Y-88738320D02*
G01*
X144018388Y-88743333D01*
X144028709Y-88754687D01*
X144031954Y-88765473D01*
X144034046Y-88786374D01*
X144036189Y-88828086D01*
X144038236Y-88886286D01*
X144040038Y-88956650D01*
X144041448Y-89034853D01*
X144041620Y-89047268D01*
X144042857Y-89133227D01*
X144044253Y-89197705D01*
X144046238Y-89244356D01*
X144049243Y-89276833D01*
X144053697Y-89298791D01*
X144060032Y-89313882D01*
X144068678Y-89325761D01*
X144075277Y-89332999D01*
X144120784Y-89363861D01*
X144178138Y-89375373D01*
X144241915Y-89366446D01*
X144241977Y-89366427D01*
X144277766Y-89351175D01*
X144301376Y-89326481D01*
X144315897Y-89298819D01*
X144324181Y-89277881D01*
X144330338Y-89254071D01*
X144334678Y-89223442D01*
X144337511Y-89182048D01*
X144339149Y-89125941D01*
X144339902Y-89051174D01*
X144340062Y-88991697D01*
X144340338Y-88737195D01*
X144407592Y-88737195D01*
X144474846Y-88737195D01*
X144481901Y-88972845D01*
X144484181Y-89082801D01*
X144483460Y-89171221D01*
X144479342Y-89241571D01*
X144471430Y-89297317D01*
X144459328Y-89341925D01*
X144442639Y-89378859D01*
X144433772Y-89393524D01*
X144403520Y-89431827D01*
X144367855Y-89458264D01*
X144321563Y-89474936D01*
X144259427Y-89483944D01*
X144202090Y-89486861D01*
X144146613Y-89487394D01*
X144098046Y-89486075D01*
X144063705Y-89483181D01*
X144054326Y-89481282D01*
X144013560Y-89460429D01*
X143969713Y-89425807D01*
X143932124Y-89385501D01*
X143916476Y-89361981D01*
X143909258Y-89345416D01*
X143903624Y-89323416D01*
X143899305Y-89292621D01*
X143896035Y-89249671D01*
X143893548Y-89191205D01*
X143891576Y-89113861D01*
X143890086Y-89029401D01*
X143885537Y-88737195D01*
X143955598Y-88737195D01*
X143996227Y-88738320D01*
G37*
G36*
X142451776Y-88752165D02*
G01*
X142456481Y-88752354D01*
X142545806Y-88756047D01*
X142589594Y-88875443D01*
X142611958Y-88936605D01*
X142639180Y-89011327D01*
X142667590Y-89089521D01*
X142690204Y-89151940D01*
X142714683Y-89219493D01*
X142739186Y-89286899D01*
X142760849Y-89346292D01*
X142776658Y-89389395D01*
X142790662Y-89431310D01*
X142798920Y-89464033D01*
X142799649Y-89480497D01*
X142799638Y-89480513D01*
X142783851Y-89486929D01*
X142752586Y-89490307D01*
X142715325Y-89490571D01*
X142681553Y-89487641D01*
X142661074Y-89481658D01*
X142649549Y-89465444D01*
X142634359Y-89433178D01*
X142622915Y-89403300D01*
X142598756Y-89334176D01*
X142465980Y-89330628D01*
X142403529Y-89329262D01*
X142360998Y-89330942D01*
X142333171Y-89338394D01*
X142314835Y-89354343D01*
X142300776Y-89381514D01*
X142285778Y-89422633D01*
X142284843Y-89425295D01*
X142261647Y-89491277D01*
X142188721Y-89491277D01*
X142149688Y-89490599D01*
X142123223Y-89488843D01*
X142115796Y-89486944D01*
X142119542Y-89473735D01*
X142129300Y-89443640D01*
X142141183Y-89408393D01*
X142159114Y-89355968D01*
X142180136Y-89294493D01*
X142196647Y-89246200D01*
X142211348Y-89203471D01*
X142214733Y-89193692D01*
X142367157Y-89193692D01*
X142370739Y-89204608D01*
X142384784Y-89211026D01*
X142414237Y-89214048D01*
X142461656Y-89214780D01*
X142556156Y-89214780D01*
X142547636Y-89180835D01*
X142533907Y-89130749D01*
X142517206Y-89076574D01*
X142499481Y-89023833D01*
X142482674Y-88978048D01*
X142468733Y-88944742D01*
X142459603Y-88929438D01*
X142458959Y-88929085D01*
X142450963Y-88938587D01*
X142438004Y-88966490D01*
X142422078Y-89007042D01*
X142405181Y-89054491D01*
X142389309Y-89103085D01*
X142376457Y-89147071D01*
X142368621Y-89180697D01*
X142367157Y-89193692D01*
X142214733Y-89193692D01*
X142232112Y-89143485D01*
X142256694Y-89072711D01*
X142282849Y-88997614D01*
X142296940Y-88957246D01*
X142320063Y-88890850D01*
X142339980Y-88833251D01*
X142355336Y-88788404D01*
X142364774Y-88760264D01*
X142367157Y-88752465D01*
X142378658Y-88751079D01*
X142408965Y-88750976D01*
X142451776Y-88752165D01*
G37*
G36*
X148286766Y-88959769D02*
G01*
X148287223Y-89046602D01*
X148288451Y-89134351D01*
X148290303Y-89216297D01*
X148292629Y-89285723D01*
X148294946Y-89331034D01*
X148303060Y-89453573D01*
X148232041Y-89453573D01*
X148161021Y-89453573D01*
X148161021Y-89164508D01*
X148160497Y-89066689D01*
X148158972Y-88987228D01*
X148156516Y-88927781D01*
X148153201Y-88890001D01*
X148149096Y-88875544D01*
X148148692Y-88875443D01*
X148136569Y-88886046D01*
X148129651Y-88903721D01*
X148123222Y-88932014D01*
X148112652Y-88979882D01*
X148099030Y-89042313D01*
X148083444Y-89114295D01*
X148066982Y-89190817D01*
X148050731Y-89266868D01*
X148047108Y-89283904D01*
X148035645Y-89337532D01*
X148025479Y-89384491D01*
X148018216Y-89417387D01*
X148016403Y-89425295D01*
X148009960Y-89441301D01*
X147995987Y-89449811D01*
X147967985Y-89453120D01*
X147936359Y-89453573D01*
X147862993Y-89453573D01*
X147822453Y-89280762D01*
X147804898Y-89205857D01*
X147786700Y-89128087D01*
X147769957Y-89056427D01*
X147756770Y-88999854D01*
X147756288Y-88997782D01*
X147743754Y-88948151D01*
X147731878Y-88908475D01*
X147722527Y-88884713D01*
X147719617Y-88880786D01*
X147716388Y-88890737D01*
X147713559Y-88922693D01*
X147711252Y-88973524D01*
X147709590Y-89040099D01*
X147708694Y-89119290D01*
X147708572Y-89163766D01*
X147708572Y-89453573D01*
X147639258Y-89453573D01*
X147569944Y-89453573D01*
X147573275Y-89085958D01*
X147576607Y-88718343D01*
X147683071Y-88718343D01*
X147789534Y-88718343D01*
X147816744Y-88825171D01*
X147830294Y-88879395D01*
X147847386Y-88949305D01*
X147865888Y-89026100D01*
X147883665Y-89100980D01*
X147884612Y-89105008D01*
X147899893Y-89167608D01*
X147914005Y-89221009D01*
X147925658Y-89260631D01*
X147933556Y-89281893D01*
X147935182Y-89284143D01*
X147940436Y-89280154D01*
X147947930Y-89261677D01*
X147958135Y-89226895D01*
X147971519Y-89173993D01*
X147988552Y-89101157D01*
X148009703Y-89006570D01*
X148024640Y-88938283D01*
X148037698Y-88879878D01*
X148050643Y-88824778D01*
X148061405Y-88781688D01*
X148064962Y-88768615D01*
X148079329Y-88718343D01*
X148183015Y-88714692D01*
X148286701Y-88711042D01*
X148286766Y-88959769D01*
G37*
G36*
X146161331Y-88718801D02*
G01*
X146203216Y-88720987D01*
X146232900Y-88726113D01*
X146256847Y-88735391D01*
X146281523Y-88750036D01*
X146286256Y-88753147D01*
X146329252Y-88787847D01*
X146367994Y-88830068D01*
X146397536Y-88873302D01*
X146412931Y-88911039D01*
X146414064Y-88921317D01*
X146411910Y-88938536D01*
X146401278Y-88947253D01*
X146375916Y-88950221D01*
X146348082Y-88950367D01*
X146308066Y-88948601D01*
X146284017Y-88941326D01*
X146266806Y-88924453D01*
X146256898Y-88909521D01*
X146213495Y-88862387D01*
X146156005Y-88834916D01*
X146087766Y-88828655D01*
X146083217Y-88829004D01*
X146015166Y-88846376D01*
X145959793Y-88884382D01*
X145919058Y-88940921D01*
X145894920Y-89013892D01*
X145891712Y-89034420D01*
X145887550Y-89119066D01*
X145896091Y-89195691D01*
X145916453Y-89257814D01*
X145923895Y-89271311D01*
X145959542Y-89309925D01*
X146010158Y-89341911D01*
X146065604Y-89361776D01*
X146097951Y-89365596D01*
X146160271Y-89355313D01*
X146215613Y-89327258D01*
X146258246Y-89285624D01*
X146282439Y-89234602D01*
X146283477Y-89229886D01*
X146291526Y-89189644D01*
X146208262Y-89189644D01*
X146124999Y-89189644D01*
X146124999Y-89133088D01*
X146124999Y-89076532D01*
X146275816Y-89076532D01*
X146426632Y-89076532D01*
X146426632Y-89271336D01*
X146426632Y-89466141D01*
X146376360Y-89466141D01*
X146344125Y-89464652D01*
X146329795Y-89456583D01*
X146326167Y-89436533D01*
X146326088Y-89428437D01*
X146322122Y-89400625D01*
X146308779Y-89392841D01*
X146283892Y-89405044D01*
X146256472Y-89427183D01*
X146210750Y-89456352D01*
X146154950Y-89476453D01*
X146150507Y-89477455D01*
X146098220Y-89486919D01*
X146055910Y-89488797D01*
X146010814Y-89482898D01*
X145974183Y-89474858D01*
X145919593Y-89451303D01*
X145864340Y-89409403D01*
X145814202Y-89355110D01*
X145774960Y-89294375D01*
X145757120Y-89251379D01*
X145736381Y-89147646D01*
X145737763Y-89046554D01*
X145760193Y-88951472D01*
X145802595Y-88865773D01*
X145863896Y-88792825D01*
X145916322Y-88751903D01*
X145941575Y-88736738D01*
X145965523Y-88726974D01*
X145994622Y-88721438D01*
X146035331Y-88718953D01*
X146094104Y-88718345D01*
X146100781Y-88718343D01*
X146161331Y-88718801D01*
G37*
G36*
X143402942Y-88731169D02*
G01*
X143471022Y-88750473D01*
X143525481Y-88784374D01*
X143549498Y-88807876D01*
X143570359Y-88837594D01*
X143588494Y-88874103D01*
X143600882Y-88909520D01*
X143604501Y-88935963D01*
X143601621Y-88943865D01*
X143585972Y-88947944D01*
X143554032Y-88950461D01*
X143533578Y-88950851D01*
X143495186Y-88949027D01*
X143474153Y-88941550D01*
X143462844Y-88925417D01*
X143461707Y-88922573D01*
X143438360Y-88882085D01*
X143402938Y-88857191D01*
X143351091Y-88845582D01*
X143313636Y-88844023D01*
X143267861Y-88845125D01*
X143238997Y-88850154D01*
X143218857Y-88861691D01*
X143201843Y-88879286D01*
X143176761Y-88917755D01*
X143173258Y-88951037D01*
X143192142Y-88980116D01*
X143234221Y-89005975D01*
X143300302Y-89029599D01*
X143332389Y-89038326D01*
X143426007Y-89063806D01*
X143497728Y-89087683D01*
X143550551Y-89111825D01*
X143587474Y-89138100D01*
X143611498Y-89168374D01*
X143625619Y-89204517D01*
X143629584Y-89223440D01*
X143631033Y-89297125D01*
X143610950Y-89362172D01*
X143571947Y-89416936D01*
X143516636Y-89459772D01*
X143447629Y-89489031D01*
X143367538Y-89503070D01*
X143278976Y-89500242D01*
X143211541Y-89486866D01*
X143146531Y-89458525D01*
X143090919Y-89413545D01*
X143051281Y-89357794D01*
X143041964Y-89335565D01*
X143032129Y-89301152D01*
X143028857Y-89277477D01*
X143030174Y-89272329D01*
X143045932Y-89268172D01*
X143078217Y-89265538D01*
X143101726Y-89265052D01*
X143140303Y-89266301D01*
X143161715Y-89272557D01*
X143173900Y-89287579D01*
X143179997Y-89302134D01*
X143207119Y-89342258D01*
X143249667Y-89370204D01*
X143301650Y-89385731D01*
X143357079Y-89388597D01*
X143409962Y-89378561D01*
X143454311Y-89355382D01*
X143484135Y-89318817D01*
X143486066Y-89314470D01*
X143494553Y-89280973D01*
X143488238Y-89252793D01*
X143465024Y-89228372D01*
X143422816Y-89206154D01*
X143359517Y-89184582D01*
X143284623Y-89164879D01*
X143205730Y-89144295D01*
X143147755Y-89124632D01*
X143106740Y-89103222D01*
X143078726Y-89077394D01*
X143059754Y-89044476D01*
X143046515Y-89004265D01*
X143038593Y-88949777D01*
X143046323Y-88898748D01*
X143074212Y-88829937D01*
X143116823Y-88779258D01*
X143175766Y-88745678D01*
X143252651Y-88728163D01*
X143316869Y-88724903D01*
X143402942Y-88731169D01*
G37*
G36*
X145216020Y-86665945D02*
G01*
X145289476Y-86668298D01*
X145343469Y-86671168D01*
X145383671Y-86675486D01*
X145415750Y-86682180D01*
X145445377Y-86692180D01*
X145478223Y-86706414D01*
X145486612Y-86710284D01*
X145573999Y-86757341D01*
X145643942Y-86811202D01*
X145704129Y-86878155D01*
X145722573Y-86903358D01*
X145782247Y-86999383D01*
X145824294Y-87094719D01*
X145850699Y-87195985D01*
X145863446Y-87309802D01*
X145865353Y-87379847D01*
X145864614Y-87451003D01*
X145861016Y-87506175D01*
X145853370Y-87554462D01*
X145840490Y-87604960D01*
X145832552Y-87631207D01*
X145782514Y-87756002D01*
X145716338Y-87862028D01*
X145634528Y-87948793D01*
X145537589Y-88015807D01*
X145426027Y-88062579D01*
X145374720Y-88076116D01*
X145289446Y-88089219D01*
X145193288Y-88094518D01*
X145095770Y-88092120D01*
X145006414Y-88082136D01*
X144956172Y-88071344D01*
X144864920Y-88039402D01*
X144786099Y-87994987D01*
X144717391Y-87939930D01*
X144636612Y-87850564D01*
X144573278Y-87746321D01*
X144527696Y-87630710D01*
X144500171Y-87507239D01*
X144491008Y-87379417D01*
X144491788Y-87368866D01*
X144846399Y-87368866D01*
X144852044Y-87470489D01*
X144872012Y-87565356D01*
X144905524Y-87649193D01*
X144951804Y-87717728D01*
X144988445Y-87752107D01*
X145057878Y-87790068D01*
X145138088Y-87809115D01*
X145222529Y-87808549D01*
X145304655Y-87787669D01*
X145308077Y-87786288D01*
X145367546Y-87750152D01*
X145421238Y-87695832D01*
X145462779Y-87630272D01*
X145473029Y-87606584D01*
X145494382Y-87527819D01*
X145505796Y-87435165D01*
X145506858Y-87337993D01*
X145497152Y-87245676D01*
X145490444Y-87213365D01*
X145459713Y-87120876D01*
X145416685Y-87049363D01*
X145359628Y-86996995D01*
X145286809Y-86961940D01*
X145241144Y-86949735D01*
X145153386Y-86943066D01*
X145071770Y-86959579D01*
X144999263Y-86997518D01*
X144938834Y-87055131D01*
X144893450Y-87130663D01*
X144881185Y-87162445D01*
X144855854Y-87264760D01*
X144846399Y-87368866D01*
X144491788Y-87368866D01*
X144500514Y-87250752D01*
X144528994Y-87124753D01*
X144576753Y-87004929D01*
X144628294Y-86916971D01*
X144676453Y-86852490D01*
X144724161Y-86803436D01*
X144779916Y-86761748D01*
X144813733Y-86740990D01*
X144871698Y-86710428D01*
X144928588Y-86688564D01*
X144989977Y-86674358D01*
X145061440Y-86666769D01*
X145148552Y-86664759D01*
X145216020Y-86665945D01*
G37*
G36*
X142098791Y-86648830D02*
G01*
X142197980Y-86678469D01*
X142291719Y-86727619D01*
X142359324Y-86780083D01*
X142427998Y-86855345D01*
X142480686Y-86942480D01*
X142518407Y-87044125D01*
X142542175Y-87162917D01*
X142552231Y-87280774D01*
X142553655Y-87402037D01*
X142545844Y-87506540D01*
X142527951Y-87601219D01*
X142503351Y-87681480D01*
X142452168Y-87790445D01*
X142383959Y-87882834D01*
X142300976Y-87957139D01*
X142205473Y-88011848D01*
X142099704Y-88045452D01*
X141985924Y-88056441D01*
X141946127Y-88054781D01*
X141849975Y-88038898D01*
X141768465Y-88005591D01*
X141695983Y-87952320D01*
X141675319Y-87932229D01*
X141640680Y-87899828D01*
X141613572Y-87880576D01*
X141598797Y-87877340D01*
X141594188Y-87888357D01*
X141590860Y-87916038D01*
X141588766Y-87962092D01*
X141587859Y-88028229D01*
X141588092Y-88116159D01*
X141589313Y-88220597D01*
X141594222Y-88554958D01*
X141429747Y-88558451D01*
X141265272Y-88561943D01*
X141256937Y-88031674D01*
X141254996Y-87896903D01*
X141253215Y-87751465D01*
X141251649Y-87601460D01*
X141250351Y-87452990D01*
X141249731Y-87363499D01*
X141582108Y-87363499D01*
X141586520Y-87453430D01*
X141600199Y-87534917D01*
X141623144Y-87600671D01*
X141624463Y-87603277D01*
X141664270Y-87661397D01*
X141717221Y-87712701D01*
X141774265Y-87748482D01*
X141776459Y-87749448D01*
X141825734Y-87762461D01*
X141887074Y-87767376D01*
X141948685Y-87764014D01*
X141997263Y-87752790D01*
X142067770Y-87712815D01*
X142123610Y-87652563D01*
X142164657Y-87572263D01*
X142190782Y-87472143D01*
X142200179Y-87389531D01*
X142198798Y-87282443D01*
X142181331Y-87184189D01*
X142149064Y-87098273D01*
X142103283Y-87028197D01*
X142050037Y-86980530D01*
X142020358Y-86962883D01*
X141992010Y-86952564D01*
X141956577Y-86947702D01*
X141905645Y-86946424D01*
X141896773Y-86946425D01*
X141811550Y-86953013D01*
X141744348Y-86974133D01*
X141691101Y-87012315D01*
X141647743Y-87070091D01*
X141624467Y-87115918D01*
X141601081Y-87187455D01*
X141586961Y-87272411D01*
X141582108Y-87363499D01*
X141249731Y-87363499D01*
X141249375Y-87312156D01*
X141248775Y-87185059D01*
X141248601Y-87090652D01*
X141248601Y-86679900D01*
X141400680Y-86671722D01*
X141460447Y-86669104D01*
X141511131Y-86668002D01*
X141547420Y-86668453D01*
X141564004Y-86670497D01*
X141564064Y-86670533D01*
X141569918Y-86685818D01*
X141574004Y-86718776D01*
X141575370Y-86757729D01*
X141576949Y-86800222D01*
X141581069Y-86831750D01*
X141586234Y-86844652D01*
X141599285Y-86839348D01*
X141622535Y-86818860D01*
X141647751Y-86791294D01*
X141719912Y-86724236D01*
X141804714Y-86676404D01*
X141898540Y-86647854D01*
X141997772Y-86638643D01*
X142098791Y-86648830D01*
G37*
G36*
X146995336Y-86374653D02*
G01*
X147127098Y-86375085D01*
X147236625Y-86376365D01*
X147326810Y-86378747D01*
X147400546Y-86382481D01*
X147460726Y-86387820D01*
X147510243Y-86395015D01*
X147551992Y-86404319D01*
X147588865Y-86415983D01*
X147621267Y-86429148D01*
X147713414Y-86481542D01*
X147786375Y-86548721D01*
X147840595Y-86631475D01*
X147876519Y-86730592D01*
X147894595Y-86846860D01*
X147897092Y-86916804D01*
X147888940Y-87044263D01*
X147864395Y-87152939D01*
X147823326Y-87243218D01*
X147765601Y-87315485D01*
X147758087Y-87322479D01*
X147707587Y-87362924D01*
X147653388Y-87394785D01*
X147591941Y-87418917D01*
X147519694Y-87436174D01*
X147433098Y-87447413D01*
X147328602Y-87453488D01*
X147206771Y-87455255D01*
X147120335Y-87455611D01*
X147055855Y-87456832D01*
X147010158Y-87459143D01*
X146980070Y-87462772D01*
X146962420Y-87467945D01*
X146955224Y-87473223D01*
X146949860Y-87488838D01*
X146945919Y-87522153D01*
X146943321Y-87574919D01*
X146941990Y-87648888D01*
X146941847Y-87745812D01*
X146941975Y-87771713D01*
X146942421Y-87853809D01*
X146942745Y-87927842D01*
X146942936Y-87989979D01*
X146942985Y-88036390D01*
X146942881Y-88063241D01*
X146942780Y-88067947D01*
X146935399Y-88074855D01*
X146912274Y-88079582D01*
X146870603Y-88082400D01*
X146807588Y-88083580D01*
X146780632Y-88083657D01*
X146719327Y-88083038D01*
X146667379Y-88081346D01*
X146629816Y-88078830D01*
X146611664Y-88075737D01*
X146610963Y-88075278D01*
X146609543Y-88061605D01*
X146608198Y-88024873D01*
X146606949Y-87967161D01*
X146605817Y-87890546D01*
X146604822Y-87797105D01*
X146603984Y-87688917D01*
X146603324Y-87568060D01*
X146602862Y-87436610D01*
X146602618Y-87296646D01*
X146602585Y-87220652D01*
X146602585Y-86983902D01*
X146944037Y-86983902D01*
X146944039Y-87051583D01*
X146944729Y-87106953D01*
X146946053Y-87145769D01*
X146947957Y-87163784D01*
X146948000Y-87163903D01*
X146954877Y-87170310D01*
X146971921Y-87174717D01*
X147002349Y-87177310D01*
X147049378Y-87178274D01*
X147116224Y-87177794D01*
X147171370Y-87176807D01*
X147251048Y-87174960D01*
X147310036Y-87172783D01*
X147352782Y-87169698D01*
X147383731Y-87165130D01*
X147407328Y-87158503D01*
X147428020Y-87149241D01*
X147441541Y-87141808D01*
X147493113Y-87098718D01*
X147530156Y-87040136D01*
X147551853Y-86971635D01*
X147557389Y-86898788D01*
X147545948Y-86827168D01*
X147516713Y-86762348D01*
X147500345Y-86740154D01*
X147472456Y-86713123D01*
X147438094Y-86692968D01*
X147393665Y-86678935D01*
X147335578Y-86670270D01*
X147260238Y-86666221D01*
X147164055Y-86666033D01*
X147148201Y-86666281D01*
X146948205Y-86669753D01*
X146944776Y-86908158D01*
X146944037Y-86983902D01*
X146602585Y-86983902D01*
X146602585Y-86374404D01*
X146995336Y-86374653D01*
G37*
G36*
X149209187Y-86361836D02*
G01*
X149401842Y-86361836D01*
X149423308Y-86421534D01*
X149440100Y-86467452D01*
X149456789Y-86511902D01*
X149461919Y-86525220D01*
X149480199Y-86573177D01*
X149504268Y-86637799D01*
X149531553Y-86712046D01*
X149559480Y-86788879D01*
X149585478Y-86861257D01*
X149606613Y-86921113D01*
X149625821Y-86975636D01*
X149650172Y-87043910D01*
X149676145Y-87116092D01*
X149694321Y-87166190D01*
X149719254Y-87234938D01*
X149745211Y-87307055D01*
X149768657Y-87372695D01*
X149782298Y-87411267D01*
X149801607Y-87465809D01*
X149826014Y-87534108D01*
X149851988Y-87606310D01*
X149870100Y-87656344D01*
X149915016Y-87780682D01*
X149951227Y-87882403D01*
X149978669Y-87961320D01*
X149997278Y-88017249D01*
X150006991Y-88050002D01*
X150008522Y-88058335D01*
X149996863Y-88064128D01*
X149961566Y-88067678D01*
X149902152Y-88069010D01*
X149824872Y-88068283D01*
X149641221Y-88064805D01*
X149597812Y-87926556D01*
X149578581Y-87866729D01*
X149560093Y-87811700D01*
X149544698Y-87768327D01*
X149536144Y-87746527D01*
X149517884Y-87704746D01*
X149207067Y-87713456D01*
X149121148Y-87716163D01*
X149043709Y-87719175D01*
X148978245Y-87722310D01*
X148928253Y-87725385D01*
X148897228Y-87728217D01*
X148888479Y-87730101D01*
X148881940Y-87744344D01*
X148869361Y-87777951D01*
X148852376Y-87826348D01*
X148832619Y-87884965D01*
X148826164Y-87904562D01*
X148771622Y-88071089D01*
X148592879Y-88071089D01*
X148414136Y-88071089D01*
X148425076Y-88036527D01*
X148451989Y-87953575D01*
X148482539Y-87863699D01*
X148513432Y-87775740D01*
X148561869Y-87639251D01*
X148603116Y-87522830D01*
X148638437Y-87422873D01*
X148641416Y-87414409D01*
X148990440Y-87414409D01*
X148996676Y-87420469D01*
X149017081Y-87424875D01*
X149054287Y-87427821D01*
X149110932Y-87429501D01*
X149189649Y-87430108D01*
X149204168Y-87430119D01*
X149282048Y-87429976D01*
X149338298Y-87429281D01*
X149376424Y-87427629D01*
X149399932Y-87424618D01*
X149412327Y-87419845D01*
X149417115Y-87412908D01*
X149417824Y-87405574D01*
X149413077Y-87374143D01*
X149406129Y-87352160D01*
X149398391Y-87330460D01*
X149384774Y-87289687D01*
X149366889Y-87234762D01*
X149346346Y-87170607D01*
X149335003Y-87134770D01*
X149300824Y-87027030D01*
X149273099Y-86941337D01*
X149251080Y-86875657D01*
X149234019Y-86827955D01*
X149221168Y-86796196D01*
X149211779Y-86778345D01*
X149205105Y-86772368D01*
X149202224Y-86773497D01*
X149194392Y-86789167D01*
X149180419Y-86824889D01*
X149161611Y-86876707D01*
X149139276Y-86940665D01*
X149114720Y-87012810D01*
X149089251Y-87089184D01*
X149064176Y-87165834D01*
X149040801Y-87238803D01*
X149020434Y-87304136D01*
X149004381Y-87357877D01*
X148993951Y-87396072D01*
X148990440Y-87414409D01*
X148641416Y-87414409D01*
X148669097Y-87335775D01*
X148696358Y-87257933D01*
X148721485Y-87185742D01*
X148745742Y-87115599D01*
X148770394Y-87043899D01*
X148782321Y-87009090D01*
X148797666Y-86964736D01*
X148818964Y-86903807D01*
X148843725Y-86833405D01*
X148869454Y-86760629D01*
X148877173Y-86738877D01*
X148902205Y-86668258D01*
X148926571Y-86599245D01*
X148947949Y-86538438D01*
X148964013Y-86492439D01*
X148967891Y-86481232D01*
X148982897Y-86436688D01*
X148995207Y-86404798D01*
X149009059Y-86383464D01*
X149028695Y-86370588D01*
X149058353Y-86364071D01*
X149102275Y-86361816D01*
X149164701Y-86361724D01*
X149209187Y-86361836D01*
G37*
G36*
X150339423Y-78011989D02*
G01*
X150421362Y-78016305D01*
X150494725Y-78025364D01*
X150567394Y-78040472D01*
X150647248Y-78062940D01*
X150742165Y-78094077D01*
X150743752Y-78094619D01*
X150947236Y-78170732D01*
X151129748Y-78253681D01*
X151295126Y-78346244D01*
X151447205Y-78451200D01*
X151589820Y-78571326D01*
X151726807Y-78709400D01*
X151862003Y-78868201D01*
X151926170Y-78950991D01*
X151961591Y-78998746D01*
X151993998Y-79043895D01*
X152018425Y-79079455D01*
X152025854Y-79091065D01*
X152051153Y-79132583D01*
X152097649Y-79055349D01*
X152124359Y-79012060D01*
X152159818Y-78956075D01*
X152198800Y-78895590D01*
X152226309Y-78853561D01*
X152258396Y-78804011D01*
X152284616Y-78761790D01*
X152302222Y-78731443D01*
X152308473Y-78717625D01*
X152316886Y-78704297D01*
X152339405Y-78678212D01*
X152371948Y-78643966D01*
X152389399Y-78626502D01*
X152430507Y-78582258D01*
X152467810Y-78535571D01*
X152494716Y-78494868D01*
X152499369Y-78485942D01*
X152525647Y-78441933D01*
X152551015Y-78422268D01*
X152555458Y-78421267D01*
X152578177Y-78409999D01*
X152609987Y-78384578D01*
X152645573Y-78350567D01*
X152679617Y-78313528D01*
X152706802Y-78279022D01*
X152721812Y-78252612D01*
X152723218Y-78245766D01*
X152734212Y-78213518D01*
X152761397Y-78191302D01*
X152796081Y-78185605D01*
X152802248Y-78186784D01*
X152842603Y-78184088D01*
X152890111Y-78157937D01*
X152940027Y-78112947D01*
X152970388Y-78088579D01*
X152994103Y-78084312D01*
X152994590Y-78084490D01*
X153016634Y-78085325D01*
X153053967Y-78079811D01*
X153091982Y-78070837D01*
X153150943Y-78058975D01*
X153226398Y-78051822D01*
X153322320Y-78049018D01*
X153332768Y-78048964D01*
X153402134Y-78049161D01*
X153452679Y-78050864D01*
X153490712Y-78054924D01*
X153522538Y-78062194D01*
X153554466Y-78073528D01*
X153573720Y-78081530D01*
X153684160Y-78139658D01*
X153782813Y-78213390D01*
X153866140Y-78299234D01*
X153930599Y-78393697D01*
X153963840Y-78466457D01*
X153995585Y-78588094D01*
X154002902Y-78709185D01*
X153985892Y-78827599D01*
X153944655Y-78941207D01*
X153940816Y-78949021D01*
X153914664Y-78994432D01*
X153883826Y-79031585D01*
X153843188Y-79064875D01*
X153787640Y-79098695D01*
X153734379Y-79126421D01*
X153644350Y-79165558D01*
X153562920Y-79186967D01*
X153482211Y-79191909D01*
X153394350Y-79181642D01*
X153391890Y-79181181D01*
X153295891Y-79155792D01*
X153217353Y-79117760D01*
X153150463Y-79063936D01*
X153125053Y-79036568D01*
X153088965Y-78990480D01*
X153069840Y-78951323D01*
X153065262Y-78910020D01*
X153072818Y-78857493D01*
X153074878Y-78847950D01*
X153095623Y-78791795D01*
X153671148Y-78791795D01*
X153681206Y-78805446D01*
X153691698Y-78808446D01*
X153703298Y-78800014D01*
X153703525Y-78797973D01*
X153695326Y-78779759D01*
X153678307Y-78777230D01*
X153676431Y-78778236D01*
X153671148Y-78791795D01*
X153095623Y-78791795D01*
X153105464Y-78765158D01*
X153156417Y-78691062D01*
X153223079Y-78631986D01*
X153243171Y-78619429D01*
X153284016Y-78598513D01*
X153321206Y-78587226D01*
X153366088Y-78582821D01*
X153396511Y-78582340D01*
X153493342Y-78590332D01*
X153571370Y-78614534D01*
X153630335Y-78654856D01*
X153640102Y-78665171D01*
X153677980Y-78708311D01*
X153703320Y-78682971D01*
X153725789Y-78664436D01*
X153740959Y-78657630D01*
X153746027Y-78648047D01*
X153739177Y-78626725D01*
X153731924Y-78598601D01*
X153741464Y-78571248D01*
X153746685Y-78562869D01*
X153761165Y-78529022D01*
X153756486Y-78504781D01*
X153733676Y-78494366D01*
X153729953Y-78494246D01*
X153696645Y-78483078D01*
X153672862Y-78455035D01*
X153665821Y-78425453D01*
X153654065Y-78398814D01*
X153619792Y-78380210D01*
X153564493Y-78370235D01*
X153522555Y-78368635D01*
X153464377Y-78371118D01*
X153416858Y-78380407D01*
X153374028Y-78399475D01*
X153329916Y-78431298D01*
X153278553Y-78478851D01*
X153256199Y-78501351D01*
X153158512Y-78607239D01*
X153071549Y-78715703D01*
X152991295Y-78832511D01*
X152913738Y-78963429D01*
X152848059Y-79087887D01*
X152809568Y-79165797D01*
X152772403Y-79244079D01*
X152739147Y-79317063D01*
X152712384Y-79379081D01*
X152694761Y-79424280D01*
X152674324Y-79482734D01*
X152653720Y-79541738D01*
X152636748Y-79590412D01*
X152633744Y-79599042D01*
X152620360Y-79644229D01*
X152611792Y-79686073D01*
X152610106Y-79704978D01*
X152605542Y-79748354D01*
X152591107Y-79805300D01*
X152569276Y-79870445D01*
X152560255Y-79908948D01*
X152553045Y-79966019D01*
X152548217Y-80035120D01*
X152546342Y-80109714D01*
X152546437Y-80131832D01*
X152540894Y-80185651D01*
X152520886Y-80227592D01*
X152519341Y-80229718D01*
X152501839Y-80257705D01*
X152500110Y-80277773D01*
X152506840Y-80291788D01*
X152519658Y-80321960D01*
X152518126Y-80354105D01*
X152501266Y-80395135D01*
X152489104Y-80417155D01*
X152459865Y-80471232D01*
X152445051Y-80510306D01*
X152444127Y-80539574D01*
X152456561Y-80564233D01*
X152472268Y-80580923D01*
X152502100Y-80619169D01*
X152507029Y-80655104D01*
X152486997Y-80688967D01*
X152441944Y-80720991D01*
X152436166Y-80724047D01*
X152394191Y-80745737D01*
X152402648Y-80818597D01*
X152406033Y-80865695D01*
X152401417Y-80901601D01*
X152386528Y-80939599D01*
X152379554Y-80953718D01*
X152356909Y-81013189D01*
X152339392Y-81093080D01*
X152331942Y-81144678D01*
X152315881Y-81273377D01*
X152415466Y-81469692D01*
X152485227Y-81601793D01*
X152552592Y-81716379D01*
X152621075Y-81817456D01*
X152694191Y-81909030D01*
X152775456Y-81995108D01*
X152868383Y-82079696D01*
X152976488Y-82166800D01*
X153103286Y-82260426D01*
X153119111Y-82271711D01*
X153325441Y-82410887D01*
X153526849Y-82530691D01*
X153729536Y-82634293D01*
X153939700Y-82724864D01*
X154162258Y-82805148D01*
X154217299Y-82824067D01*
X154265418Y-82841939D01*
X154300249Y-82856328D01*
X154313074Y-82862866D01*
X154341906Y-82875072D01*
X154393068Y-82889688D01*
X154463932Y-82906152D01*
X154551868Y-82923898D01*
X154654247Y-82942366D01*
X154768441Y-82960990D01*
X154778092Y-82962483D01*
X154851220Y-82973918D01*
X154920075Y-82984991D01*
X154978819Y-82994741D01*
X155021613Y-83002207D01*
X155035736Y-83004890D01*
X155070294Y-83009919D01*
X155122896Y-83015225D01*
X155186463Y-83020184D01*
X155253921Y-83024174D01*
X155255677Y-83024259D01*
X155371278Y-83030431D01*
X155463119Y-83036581D01*
X155532575Y-83042817D01*
X155581021Y-83049249D01*
X155588730Y-83050650D01*
X155631483Y-83057055D01*
X155694845Y-83064072D01*
X155774307Y-83071382D01*
X155865358Y-83078664D01*
X155963491Y-83085598D01*
X156064194Y-83091864D01*
X156162958Y-83097140D01*
X156255274Y-83101108D01*
X156330244Y-83103319D01*
X156432639Y-83104854D01*
X156515450Y-83104543D01*
X156584176Y-83102162D01*
X156644318Y-83097486D01*
X156701376Y-83090292D01*
X156719853Y-83087425D01*
X156960504Y-83041835D01*
X157202324Y-82983220D01*
X157279131Y-82961767D01*
X157351324Y-82941287D01*
X157428290Y-82920103D01*
X157499542Y-82901072D01*
X157543060Y-82889895D01*
X157656172Y-82861638D01*
X157704090Y-82767378D01*
X157735415Y-82708803D01*
X157773026Y-82642832D01*
X157809218Y-82582950D01*
X157812046Y-82578473D01*
X157841987Y-82528970D01*
X157858298Y-82495431D01*
X157862630Y-82473866D01*
X157859529Y-82463927D01*
X157852377Y-82434301D01*
X157867451Y-82409602D01*
X157901645Y-82394656D01*
X157930204Y-82382679D01*
X157959432Y-82355781D01*
X157989557Y-82316361D01*
X158019344Y-82274184D01*
X158047483Y-82235203D01*
X158065271Y-82211311D01*
X158091766Y-82176817D01*
X158058476Y-82164160D01*
X158033602Y-82148189D01*
X158029138Y-82123807D01*
X158029199Y-82123363D01*
X158045124Y-82095299D01*
X158080889Y-82073682D01*
X158131514Y-82060979D01*
X158159514Y-82058776D01*
X158190139Y-82055600D01*
X158216577Y-82045405D01*
X158246051Y-82024232D01*
X158282180Y-81991538D01*
X158317307Y-81957425D01*
X158336846Y-81934500D01*
X158343910Y-81917154D01*
X158341614Y-81899781D01*
X158338331Y-81890394D01*
X158331762Y-81859021D01*
X158339253Y-81826127D01*
X158346500Y-81809624D01*
X158378793Y-81765303D01*
X158421656Y-81742893D01*
X158472146Y-81743678D01*
X158487249Y-81748229D01*
X158511542Y-81755674D01*
X158530713Y-81755058D01*
X158552199Y-81743773D01*
X158583440Y-81719215D01*
X158593122Y-81711134D01*
X158636496Y-81672522D01*
X158662883Y-81641461D01*
X158676204Y-81611555D01*
X158680383Y-81576406D01*
X158680467Y-81568669D01*
X158687680Y-81528791D01*
X158708399Y-81505003D01*
X158740670Y-81491686D01*
X158782881Y-81485669D01*
X158825851Y-81486912D01*
X158860400Y-81495377D01*
X158874753Y-81505706D01*
X158886121Y-81517075D01*
X158901149Y-81517557D01*
X158927601Y-81506476D01*
X158940539Y-81499973D01*
X158986717Y-81469867D01*
X159025138Y-81432850D01*
X159050399Y-81395023D01*
X159057508Y-81367874D01*
X159064678Y-81336278D01*
X159077073Y-81312282D01*
X159105879Y-81291281D01*
X159148488Y-81283713D01*
X159197939Y-81288841D01*
X159247272Y-81305930D01*
X159289527Y-81334243D01*
X159290142Y-81334816D01*
X159311327Y-81349582D01*
X159336363Y-81352101D01*
X159365550Y-81346698D01*
X159412803Y-81340730D01*
X159462402Y-81341631D01*
X159468152Y-81342341D01*
X159501280Y-81345849D01*
X159517144Y-81341341D01*
X159523258Y-81325041D01*
X159524709Y-81313911D01*
X159531393Y-81288829D01*
X159549145Y-81277459D01*
X159571953Y-81273956D01*
X159645534Y-81276272D01*
X159708184Y-81299626D01*
X159747927Y-81329089D01*
X159777153Y-81353827D01*
X159794895Y-81362785D01*
X159807133Y-81358258D01*
X159811556Y-81353515D01*
X159835271Y-81340418D01*
X159873235Y-81334675D01*
X159877448Y-81334622D01*
X159909728Y-81337460D01*
X159935564Y-81349214D01*
X159963950Y-81374743D01*
X159976339Y-81388036D01*
X160011286Y-81426113D01*
X160046006Y-81463526D01*
X160061144Y-81479648D01*
X160091239Y-81516682D01*
X160117121Y-81556799D01*
X160119527Y-81561340D01*
X160141872Y-81597528D01*
X160172284Y-81638095D01*
X160185503Y-81653598D01*
X160235551Y-81723282D01*
X160274100Y-81809038D01*
X160302525Y-81914174D01*
X160309547Y-81951507D01*
X160323374Y-82058077D01*
X160324412Y-82149948D01*
X160311962Y-82234458D01*
X160285322Y-82318944D01*
X160271306Y-82352632D01*
X160245341Y-82407960D01*
X160217158Y-82459175D01*
X160183764Y-82510491D01*
X160142164Y-82566122D01*
X160089362Y-82630281D01*
X160022366Y-82707184D01*
X160007435Y-82723976D01*
X159948543Y-82793227D01*
X159905232Y-82851103D01*
X159879036Y-82895498D01*
X159874430Y-82906768D01*
X159858983Y-82942810D01*
X159839461Y-82962665D01*
X159808507Y-82974643D01*
X159772441Y-82991938D01*
X159725636Y-83027220D01*
X159666405Y-83081778D01*
X159659981Y-83088099D01*
X159615911Y-83132285D01*
X159587180Y-83163514D01*
X159570888Y-83186124D01*
X159564134Y-83204454D01*
X159564018Y-83222842D01*
X159565015Y-83230136D01*
X159564342Y-83280669D01*
X159547986Y-83321159D01*
X159519724Y-83347546D01*
X159483333Y-83355769D01*
X159454943Y-83348497D01*
X159426828Y-83341318D01*
X159410472Y-83349475D01*
X159387389Y-83362697D01*
X159378321Y-83364213D01*
X159361393Y-83371916D01*
X159330817Y-83392420D01*
X159291909Y-83422024D01*
X159271975Y-83438262D01*
X159230030Y-83473829D01*
X159203922Y-83499063D01*
X159189908Y-83519398D01*
X159184244Y-83540262D01*
X159183188Y-83567084D01*
X159182461Y-83594874D01*
X159177764Y-83615559D01*
X159165323Y-83634659D01*
X159141365Y-83657696D01*
X159102115Y-83690189D01*
X159095212Y-83695785D01*
X159047275Y-83731522D01*
X159009010Y-83751228D01*
X158973370Y-83757642D01*
X158942594Y-83755138D01*
X158921687Y-83752927D01*
X158902064Y-83755053D01*
X158879345Y-83763619D01*
X158849151Y-83780726D01*
X158807101Y-83808477D01*
X158752606Y-83846318D01*
X158694284Y-83886504D01*
X158637127Y-83924706D01*
X158587349Y-83956843D01*
X158551164Y-83978837D01*
X158548502Y-83980338D01*
X158504525Y-84010638D01*
X158463538Y-84048168D01*
X158447684Y-84066915D01*
X158411075Y-84104089D01*
X158359222Y-84140827D01*
X158298697Y-84174019D01*
X158236071Y-84200558D01*
X158177916Y-84217336D01*
X158130804Y-84221244D01*
X158123488Y-84220246D01*
X158085393Y-84218816D01*
X158041342Y-84229989D01*
X158010442Y-84242543D01*
X157967980Y-84260385D01*
X157911021Y-84283061D01*
X157848742Y-84306956D01*
X157815876Y-84319187D01*
X157759636Y-84340366D01*
X157722730Y-84356261D01*
X157700696Y-84369684D01*
X157689070Y-84383442D01*
X157683388Y-84400346D01*
X157682853Y-84402922D01*
X157668834Y-84436846D01*
X157644111Y-84471514D01*
X157639334Y-84476550D01*
X157622149Y-84492899D01*
X157606244Y-84503051D01*
X157585682Y-84508077D01*
X157554525Y-84509048D01*
X157506835Y-84507033D01*
X157478940Y-84505469D01*
X157423791Y-84501486D01*
X157376907Y-84496543D01*
X157344783Y-84491404D01*
X157335351Y-84488573D01*
X157314382Y-84486658D01*
X157276322Y-84490657D01*
X157228296Y-84499751D01*
X157218692Y-84501973D01*
X157160126Y-84514834D01*
X157099857Y-84526328D01*
X157050824Y-84533990D01*
X157050365Y-84534048D01*
X157006589Y-84541754D01*
X156974686Y-84555305D01*
X156943649Y-84580361D01*
X156925928Y-84598033D01*
X156862480Y-84651723D01*
X156800367Y-84680617D01*
X156738993Y-84684982D01*
X156732616Y-84684036D01*
X156703323Y-84681394D01*
X156679354Y-84687594D01*
X156651801Y-84706126D01*
X156630525Y-84724024D01*
X156602185Y-84750324D01*
X156561402Y-84790413D01*
X156512806Y-84839631D01*
X156461031Y-84893323D01*
X156439074Y-84916488D01*
X156387058Y-84972322D01*
X156347297Y-85017524D01*
X156315563Y-85058198D01*
X156287628Y-85100451D01*
X156259264Y-85150385D01*
X156226245Y-85214107D01*
X156208411Y-85249565D01*
X156137649Y-85395808D01*
X156080599Y-85526091D01*
X156036200Y-85644788D01*
X156003394Y-85756277D01*
X155981120Y-85864934D01*
X155968319Y-85975135D01*
X155963930Y-86091257D01*
X155966894Y-86217676D01*
X155968124Y-86241817D01*
X155974838Y-86347925D01*
X155982907Y-86433513D01*
X155993507Y-86503199D01*
X156007812Y-86561599D01*
X156027000Y-86613328D01*
X156052247Y-86663004D01*
X156084727Y-86715242D01*
X156091175Y-86724890D01*
X156124979Y-86772972D01*
X156156303Y-86813773D01*
X156181145Y-86842282D01*
X156193334Y-86852705D01*
X156229542Y-86884980D01*
X156254588Y-86932212D01*
X156265923Y-86985745D01*
X156260998Y-87036923D01*
X156253228Y-87056082D01*
X156246799Y-87081096D01*
X156242494Y-87124264D01*
X156240913Y-87178652D01*
X156241069Y-87196646D01*
X156243452Y-87257887D01*
X156248693Y-87299893D01*
X156257791Y-87328495D01*
X156266046Y-87342386D01*
X156295537Y-87396809D01*
X156301646Y-87448600D01*
X156284016Y-87500417D01*
X156242285Y-87554917D01*
X156236430Y-87560965D01*
X156204248Y-87598220D01*
X156179305Y-87639853D01*
X156156859Y-87694421D01*
X156147825Y-87720855D01*
X156126617Y-87781654D01*
X156102597Y-87845133D01*
X156080519Y-87898796D01*
X156077891Y-87904730D01*
X156059040Y-87949846D01*
X156050682Y-87980744D01*
X156051343Y-88005311D01*
X156055995Y-88021862D01*
X156064893Y-88078434D01*
X156056738Y-88139016D01*
X156034512Y-88198423D01*
X156001198Y-88251468D01*
X155959779Y-88292966D01*
X155913239Y-88317728D01*
X155883138Y-88322402D01*
X155862219Y-88331692D01*
X155832785Y-88360409D01*
X155793477Y-88409920D01*
X155786189Y-88419852D01*
X155709677Y-88523885D01*
X155644838Y-88609362D01*
X155589576Y-88678756D01*
X155541794Y-88734541D01*
X155499396Y-88779189D01*
X155460285Y-88815174D01*
X155431630Y-88838130D01*
X155289547Y-88941032D01*
X155158152Y-89026693D01*
X155032294Y-89097390D01*
X154906820Y-89155397D01*
X154776577Y-89202992D01*
X154636413Y-89242448D01*
X154481176Y-89276043D01*
X154411424Y-89288747D01*
X154341133Y-89302782D01*
X154283924Y-89317814D01*
X154244791Y-89332451D01*
X154235472Y-89337778D01*
X154203136Y-89358687D01*
X154161366Y-89383830D01*
X154140735Y-89395664D01*
X154098879Y-89422007D01*
X154054510Y-89454423D01*
X154012996Y-89488415D01*
X153979703Y-89519488D01*
X153960000Y-89543146D01*
X153957138Y-89549470D01*
X153962591Y-89567346D01*
X153980825Y-89596872D01*
X154003465Y-89626216D01*
X154051655Y-89693266D01*
X154076781Y-89753829D01*
X154079226Y-89810475D01*
X154059375Y-89865769D01*
X154043109Y-89891117D01*
X153989391Y-89946084D01*
X153924270Y-89978730D01*
X153848211Y-89988897D01*
X153782743Y-89981358D01*
X153742488Y-89970462D01*
X153691674Y-89953333D01*
X153650779Y-89937508D01*
X153597982Y-89917043D01*
X153543301Y-89898111D01*
X153508720Y-89887668D01*
X153473868Y-89875698D01*
X153442837Y-89857691D01*
X153409254Y-89829036D01*
X153366747Y-89785124D01*
X153366342Y-89784685D01*
X153328819Y-89742544D01*
X153296369Y-89703294D01*
X153274096Y-89673218D01*
X153268991Y-89664811D01*
X153253113Y-89620568D01*
X153241543Y-89561698D01*
X153235489Y-89498519D01*
X153236159Y-89441348D01*
X153239864Y-89416056D01*
X153272621Y-89323053D01*
X153327835Y-89229500D01*
X153402967Y-89137462D01*
X153495473Y-89049003D01*
X153602814Y-88966187D01*
X153722447Y-88891080D01*
X153851830Y-88825745D01*
X153988423Y-88772247D01*
X154059351Y-88750379D01*
X154188318Y-88706946D01*
X154315548Y-88648476D01*
X154416812Y-88591332D01*
X154526922Y-88521812D01*
X154614960Y-88459540D01*
X154682473Y-88403159D01*
X154731008Y-88351311D01*
X154762108Y-88302638D01*
X154771297Y-88280008D01*
X154786939Y-88246776D01*
X154805897Y-88224174D01*
X154809049Y-88222153D01*
X154825460Y-88201933D01*
X154843604Y-88159144D01*
X154859828Y-88105995D01*
X154876751Y-88026388D01*
X154881771Y-87951033D01*
X154874425Y-87872976D01*
X154854246Y-87785261D01*
X154834002Y-87719695D01*
X154794280Y-87611261D01*
X154749244Y-87512580D01*
X154695907Y-87418999D01*
X154631285Y-87325867D01*
X154552392Y-87228528D01*
X154456244Y-87122331D01*
X154439340Y-87104501D01*
X154391158Y-87053263D01*
X154349743Y-87007915D01*
X154317970Y-86971715D01*
X154298718Y-86947918D01*
X154294222Y-86940244D01*
X154286072Y-86923719D01*
X154264178Y-86893599D01*
X154232373Y-86854257D01*
X154194493Y-86810064D01*
X154154372Y-86765393D01*
X154115844Y-86724617D01*
X154082743Y-86692107D01*
X154059606Y-86672714D01*
X154042593Y-86661365D01*
X154026056Y-86652409D01*
X154006957Y-86645593D01*
X153982261Y-86640662D01*
X153948930Y-86637362D01*
X153903928Y-86635439D01*
X153844218Y-86634638D01*
X153766763Y-86634706D01*
X153668528Y-86635389D01*
X153618690Y-86635812D01*
X153326484Y-86638333D01*
X153326484Y-86820569D01*
X153327053Y-86896237D01*
X153328918Y-86949539D01*
X153332315Y-86983219D01*
X153337480Y-87000026D01*
X153342194Y-87003220D01*
X153358228Y-87003405D01*
X153396238Y-87003736D01*
X153453068Y-87004187D01*
X153525557Y-87004734D01*
X153610548Y-87005354D01*
X153704881Y-87006022D01*
X153753797Y-87006362D01*
X154149690Y-87009090D01*
X154153244Y-87150480D01*
X154156797Y-87291870D01*
X153932159Y-87291870D01*
X153840385Y-87292406D01*
X153739286Y-87293878D01*
X153638922Y-87296088D01*
X153549355Y-87298835D01*
X153517002Y-87300117D01*
X153326484Y-87308363D01*
X153326484Y-87526190D01*
X153326484Y-87744017D01*
X153800927Y-87747311D01*
X154275370Y-87750604D01*
X154275370Y-87877536D01*
X154273898Y-87946676D01*
X154269276Y-87993484D01*
X154261195Y-88020603D01*
X154258121Y-88025210D01*
X154252380Y-88029928D01*
X154242291Y-88033878D01*
X154225774Y-88037128D01*
X154200747Y-88039744D01*
X154165129Y-88041794D01*
X154116840Y-88043345D01*
X154053800Y-88044463D01*
X153973926Y-88045216D01*
X153875139Y-88045671D01*
X153755357Y-88045894D01*
X153614010Y-88045953D01*
X152987147Y-88045953D01*
X152987147Y-87198955D01*
X152987191Y-87031265D01*
X152987352Y-86886964D01*
X152987669Y-86764307D01*
X152988184Y-86661547D01*
X152988937Y-86576938D01*
X152989968Y-86508734D01*
X152991319Y-86455189D01*
X152993029Y-86414556D01*
X152995140Y-86385088D01*
X152997693Y-86365041D01*
X153000726Y-86352667D01*
X153004283Y-86346220D01*
X153007027Y-86344328D01*
X153027090Y-86341271D01*
X153066346Y-86338798D01*
X153118855Y-86337186D01*
X153170411Y-86336700D01*
X153227094Y-86335816D01*
X153273213Y-86333413D01*
X153303790Y-86329867D01*
X153313916Y-86325888D01*
X153302615Y-86318172D01*
X153272131Y-86305962D01*
X153227587Y-86291158D01*
X153191377Y-86280438D01*
X153134841Y-86264312D01*
X153083489Y-86249410D01*
X153044728Y-86237892D01*
X153031135Y-86233679D01*
X152940718Y-86205829D01*
X152863105Y-86185356D01*
X152791167Y-86171217D01*
X152717774Y-86162369D01*
X152635796Y-86157769D01*
X152538104Y-86156371D01*
X152503277Y-86156427D01*
X152418641Y-86156978D01*
X152354238Y-86158166D01*
X152305168Y-86160498D01*
X152266528Y-86164479D01*
X152233416Y-86170616D01*
X152200931Y-86179414D01*
X152164170Y-86191379D01*
X152163940Y-86191457D01*
X152101316Y-86214654D01*
X152040359Y-86240740D01*
X151985927Y-86267258D01*
X151942883Y-86291750D01*
X151916084Y-86311758D01*
X151910074Y-86319846D01*
X151910023Y-86345073D01*
X151919947Y-86383596D01*
X151936693Y-86427274D01*
X151957110Y-86467966D01*
X151978046Y-86497530D01*
X151979409Y-86498932D01*
X152057010Y-86590088D01*
X152119585Y-86691402D01*
X152162997Y-86795850D01*
X152171109Y-86824516D01*
X152179750Y-86868140D01*
X152176297Y-86894922D01*
X152157089Y-86908891D01*
X152118466Y-86914075D01*
X152089208Y-86914637D01*
X152027300Y-86923079D01*
X151977753Y-86946110D01*
X151944503Y-86980909D01*
X151931484Y-87024655D01*
X151931432Y-87027765D01*
X151919816Y-87079060D01*
X151885796Y-87136868D01*
X151830608Y-87199171D01*
X151820216Y-87209121D01*
X151788018Y-87233382D01*
X151750727Y-87246410D01*
X151711788Y-87251522D01*
X151659836Y-87252269D01*
X151626626Y-87242036D01*
X151607058Y-87217795D01*
X151597267Y-87183538D01*
X151589207Y-87140571D01*
X151524668Y-87148723D01*
X151470723Y-87161396D01*
X151436274Y-87184122D01*
X151434994Y-87185546D01*
X151407221Y-87206227D01*
X151364506Y-87218480D01*
X151340734Y-87221719D01*
X151275011Y-87221977D01*
X151227965Y-87206165D01*
X151198665Y-87173945D01*
X151196368Y-87169120D01*
X151171740Y-87143772D01*
X151139812Y-87133143D01*
X151105750Y-87124534D01*
X151081836Y-87114173D01*
X151080498Y-87113197D01*
X151059727Y-87106586D01*
X151044634Y-87123054D01*
X151035476Y-87161138D01*
X151032508Y-87219374D01*
X151035986Y-87296296D01*
X151040383Y-87342789D01*
X151062687Y-87465923D01*
X151100527Y-87570925D01*
X151153368Y-87657091D01*
X151220672Y-87723720D01*
X151301904Y-87770108D01*
X151384431Y-87793619D01*
X151487628Y-87800730D01*
X151581713Y-87785469D01*
X151664753Y-87748898D01*
X151734815Y-87692081D01*
X151789968Y-87616081D01*
X151817498Y-87555286D01*
X151844806Y-87480391D01*
X152015161Y-87480391D01*
X152185517Y-87480391D01*
X152177073Y-87514953D01*
X152143030Y-87630439D01*
X152100292Y-87728239D01*
X152045122Y-87815310D01*
X151973779Y-87898609D01*
X151967354Y-87905224D01*
X151892858Y-87971446D01*
X151812019Y-88022144D01*
X151716821Y-88062064D01*
X151685283Y-88072334D01*
X151646968Y-88083181D01*
X151611309Y-88090269D01*
X151572046Y-88094085D01*
X151522922Y-88095112D01*
X151457678Y-88093838D01*
X151422901Y-88092697D01*
X151339917Y-88088846D01*
X151275319Y-88082934D01*
X151222363Y-88073490D01*
X151174306Y-88059041D01*
X151124406Y-88038117D01*
X151085063Y-88018978D01*
X150980702Y-87952791D01*
X150888429Y-87866714D01*
X150811184Y-87764270D01*
X150751904Y-87648980D01*
X150732794Y-87596719D01*
X150706148Y-87494164D01*
X150687386Y-87379975D01*
X150677170Y-87262389D01*
X150676160Y-87149640D01*
X150685016Y-87049962D01*
X150687675Y-87034226D01*
X150700103Y-86965761D01*
X150707560Y-86916638D01*
X150709381Y-86881434D01*
X150704900Y-86854726D01*
X150693451Y-86831091D01*
X150674371Y-86805107D01*
X150656924Y-86783608D01*
X150623233Y-86742856D01*
X150591462Y-86705452D01*
X150568802Y-86679839D01*
X150545524Y-86645264D01*
X150531955Y-86608551D01*
X150526639Y-86580126D01*
X150517912Y-86534011D01*
X150507102Y-86477202D01*
X150498267Y-86430960D01*
X150485464Y-86359267D01*
X150473089Y-86281724D01*
X150463013Y-86210398D01*
X150461186Y-86195309D01*
X151859086Y-86195309D01*
X151863880Y-86207409D01*
X151883155Y-86210938D01*
X151907952Y-86206401D01*
X151929313Y-86194302D01*
X151932238Y-86191196D01*
X151940301Y-86178200D01*
X151931414Y-86173985D01*
X151906466Y-86175486D01*
X151876383Y-86182495D01*
X151859619Y-86194066D01*
X151859086Y-86195309D01*
X150461186Y-86195309D01*
X150459284Y-86179599D01*
X150452759Y-86121529D01*
X150446395Y-86066376D01*
X150441298Y-86023684D01*
X150440141Y-86014412D01*
X150439101Y-85974984D01*
X150444808Y-85942330D01*
X150447199Y-85936772D01*
X150454989Y-85906457D01*
X150447664Y-85881872D01*
X150427820Y-85871683D01*
X150427706Y-85871682D01*
X150401356Y-85864811D01*
X150360265Y-85846106D01*
X150310085Y-85818432D01*
X150257772Y-85785529D01*
X150198272Y-85749198D01*
X150122072Y-85707992D01*
X150033171Y-85663619D01*
X149935570Y-85617784D01*
X149833267Y-85572193D01*
X149730263Y-85528552D01*
X149630557Y-85488568D01*
X149538147Y-85453947D01*
X149457035Y-85426395D01*
X149391219Y-85407618D01*
X149354984Y-85400413D01*
X149325747Y-85394521D01*
X149279001Y-85382965D01*
X149221273Y-85367434D01*
X149161289Y-85350268D01*
X149100952Y-85333167D01*
X149047031Y-85319151D01*
X149005373Y-85309656D01*
X148981825Y-85306121D01*
X148981697Y-85306121D01*
X148954351Y-85315929D01*
X148913579Y-85344539D01*
X148867475Y-85384790D01*
X148823468Y-85425306D01*
X148780403Y-85464058D01*
X148745758Y-85494341D01*
X148737798Y-85501044D01*
X148708232Y-85531343D01*
X148687867Y-85562767D01*
X148684254Y-85572753D01*
X148669267Y-85611287D01*
X148644445Y-85653145D01*
X148615160Y-85691044D01*
X148586784Y-85717702D01*
X148571594Y-85725497D01*
X148538856Y-85727203D01*
X148500943Y-85721033D01*
X148500435Y-85720888D01*
X148471343Y-85715696D01*
X148443488Y-85720425D01*
X148406939Y-85737120D01*
X148397814Y-85742019D01*
X148359622Y-85765935D01*
X148340921Y-85786950D01*
X148336973Y-85804556D01*
X148328317Y-85834812D01*
X148310151Y-85860801D01*
X148293618Y-85874569D01*
X148274194Y-85881790D01*
X148244864Y-85883617D01*
X148198610Y-85881204D01*
X148190011Y-85880566D01*
X148109175Y-85879516D01*
X148047131Y-85890678D01*
X148000313Y-85914776D01*
X147993275Y-85920502D01*
X147967304Y-85935506D01*
X147925389Y-85952480D01*
X147876261Y-85968608D01*
X147828651Y-85981074D01*
X147791290Y-85987062D01*
X147786388Y-85987234D01*
X147753510Y-85979309D01*
X147736116Y-85968617D01*
X147711141Y-85956838D01*
X147671617Y-85948386D01*
X147625417Y-85943716D01*
X147580420Y-85943283D01*
X147544501Y-85947544D01*
X147525877Y-85956461D01*
X147505301Y-85965104D01*
X147469831Y-85963277D01*
X147426581Y-85952655D01*
X147382666Y-85934913D01*
X147349339Y-85914903D01*
X147302835Y-85888646D01*
X147245265Y-85867585D01*
X147186463Y-85854438D01*
X147136262Y-85851924D01*
X147126328Y-85853253D01*
X147093899Y-85855864D01*
X147073383Y-85845357D01*
X147062814Y-85832300D01*
X147047531Y-85803022D01*
X147042466Y-85781416D01*
X147033691Y-85761296D01*
X147011111Y-85732707D01*
X146990402Y-85711947D01*
X146936383Y-85656999D01*
X146896010Y-85604501D01*
X146872050Y-85558489D01*
X146866513Y-85531172D01*
X146857995Y-85497737D01*
X146842878Y-85479512D01*
X146821637Y-85455643D01*
X146814489Y-85438269D01*
X146797679Y-85410058D01*
X146765524Y-85393813D01*
X146726359Y-85393074D01*
X146715281Y-85396125D01*
X146678369Y-85403389D01*
X146635869Y-85404582D01*
X146632709Y-85404351D01*
X146605026Y-85399870D01*
X146584512Y-85388399D01*
X146564564Y-85364522D01*
X146543622Y-85331257D01*
X146504392Y-85255023D01*
X146478449Y-85181116D01*
X146466664Y-85113940D01*
X146469907Y-85057896D01*
X146483089Y-85025255D01*
X146493535Y-85004608D01*
X146495097Y-84981938D01*
X146487895Y-84947801D01*
X146484232Y-84934579D01*
X146470563Y-84886050D01*
X146454734Y-84829337D01*
X146445805Y-84797115D01*
X146431977Y-84754917D01*
X146417232Y-84722002D01*
X146406959Y-84707754D01*
X146391403Y-84688459D01*
X146388928Y-84679164D01*
X146377412Y-84662989D01*
X146347045Y-84649756D01*
X146304099Y-84641594D01*
X146273670Y-84640015D01*
X146221285Y-84649232D01*
X146185543Y-84671439D01*
X146151663Y-84694386D01*
X146118142Y-84708989D01*
X146114604Y-84709842D01*
X146083404Y-84716959D01*
X146039793Y-84727646D01*
X146011062Y-84734974D01*
X145932358Y-84750226D01*
X145871718Y-84750631D01*
X145830227Y-84736185D01*
X145828910Y-84735246D01*
X145795158Y-84724338D01*
X145751354Y-84727857D01*
X145705903Y-84743170D01*
X145667209Y-84767641D01*
X145646570Y-84792408D01*
X145631256Y-84810353D01*
X145606812Y-84814073D01*
X145590184Y-84812009D01*
X145537764Y-84814918D01*
X145493998Y-84831273D01*
X145439278Y-84851977D01*
X145384415Y-84863038D01*
X145337432Y-84863351D01*
X145312865Y-84856234D01*
X145283516Y-84850051D01*
X145237023Y-84855274D01*
X145221355Y-84858573D01*
X145181347Y-84869165D01*
X145158633Y-84881495D01*
X145145640Y-84900975D01*
X145139856Y-84916808D01*
X145113778Y-84959398D01*
X145071777Y-84985551D01*
X145035187Y-84991735D01*
X145007738Y-84996370D01*
X144968343Y-85008000D01*
X144944340Y-85016766D01*
X144896707Y-85032061D01*
X144861104Y-85032321D01*
X144828440Y-85016134D01*
X144803048Y-84994809D01*
X144778532Y-84975744D01*
X144753947Y-84968856D01*
X144718009Y-84971407D01*
X144710902Y-84972440D01*
X144673109Y-84980485D01*
X144651433Y-84993915D01*
X144636861Y-85018652D01*
X144635428Y-85022022D01*
X144601411Y-85076600D01*
X144552303Y-85121878D01*
X144496299Y-85150613D01*
X144486854Y-85153290D01*
X144440005Y-85158728D01*
X144383410Y-85156440D01*
X144325048Y-85147765D01*
X144272896Y-85134038D01*
X144234933Y-85116597D01*
X144226207Y-85109599D01*
X144210739Y-85096267D01*
X144194135Y-85090718D01*
X144168834Y-85092360D01*
X144127277Y-85100600D01*
X144123039Y-85101523D01*
X144068512Y-85114150D01*
X144004887Y-85129917D01*
X143954136Y-85143219D01*
X143896540Y-85156001D01*
X143836188Y-85164953D01*
X143790752Y-85167986D01*
X143739508Y-85169979D01*
X143675481Y-85175251D01*
X143605273Y-85182948D01*
X143535487Y-85192212D01*
X143472725Y-85202189D01*
X143423590Y-85212020D01*
X143399999Y-85218658D01*
X143341879Y-85227676D01*
X143299455Y-85223845D01*
X143233625Y-85216262D01*
X143155089Y-85212652D01*
X143071264Y-85212824D01*
X142989569Y-85216590D01*
X142917423Y-85223761D01*
X142862243Y-85234148D01*
X142858915Y-85235075D01*
X142813462Y-85247140D01*
X142782237Y-85251489D01*
X142755647Y-85248431D01*
X142726950Y-85239310D01*
X142695796Y-85228536D01*
X142666438Y-85220066D01*
X142634942Y-85213445D01*
X142597371Y-85208217D01*
X142549787Y-85203927D01*
X142488256Y-85200118D01*
X142408839Y-85196335D01*
X142325564Y-85192851D01*
X142136033Y-85183283D01*
X141965594Y-85170363D01*
X141808332Y-85153263D01*
X141658330Y-85131160D01*
X141509672Y-85103226D01*
X141356442Y-85068636D01*
X141258095Y-85043889D01*
X141107404Y-85008146D01*
X140975701Y-84984551D01*
X140860130Y-84972823D01*
X140757832Y-84972678D01*
X140665949Y-84983835D01*
X140660650Y-84984868D01*
X140553684Y-85007926D01*
X140465809Y-85031230D01*
X140391049Y-85056861D01*
X140323425Y-85086899D01*
X140256960Y-85123422D01*
X140249443Y-85127938D01*
X140146844Y-85191365D01*
X140048070Y-85254968D01*
X139956572Y-85316366D01*
X139875804Y-85373174D01*
X139809219Y-85423012D01*
X139760267Y-85463495D01*
X139751521Y-85471560D01*
X139696941Y-85528017D01*
X139645238Y-85589820D01*
X139600632Y-85651239D01*
X139567346Y-85706542D01*
X139551567Y-85742966D01*
X139538298Y-85778866D01*
X139518182Y-85826428D01*
X139497311Y-85871682D01*
X139475525Y-85921046D01*
X139463485Y-85963114D01*
X139458495Y-86010018D01*
X139457755Y-86049697D01*
X139458813Y-86096839D01*
X139461703Y-86133830D01*
X139465842Y-86153811D01*
X139466690Y-86155086D01*
X139482611Y-86155826D01*
X139504394Y-86145854D01*
X139542758Y-86129497D01*
X139600611Y-86115139D01*
X139672330Y-86103636D01*
X139752294Y-86095846D01*
X139834881Y-86092626D01*
X139853549Y-86092621D01*
X140009006Y-86104642D01*
X140154023Y-86137521D01*
X140287009Y-86190115D01*
X140406375Y-86261280D01*
X140510532Y-86349874D01*
X140597890Y-86454753D01*
X140666859Y-86574773D01*
X140715850Y-86708793D01*
X140717188Y-86713741D01*
X140725579Y-86760067D01*
X140732150Y-86825841D01*
X140736844Y-86905439D01*
X140739603Y-86993234D01*
X140740370Y-87083602D01*
X140739088Y-87170916D01*
X140735700Y-87249552D01*
X140730149Y-87313883D01*
X140723687Y-87353113D01*
X140678689Y-87496649D01*
X140615370Y-87626080D01*
X140535189Y-87739797D01*
X140439606Y-87836193D01*
X140330081Y-87913658D01*
X140208074Y-87970584D01*
X140145621Y-87990110D01*
X140069159Y-88004998D01*
X139976649Y-88014553D01*
X139876683Y-88018409D01*
X139777851Y-88016197D01*
X139700154Y-88009142D01*
X139629542Y-87997430D01*
X139568473Y-87980768D01*
X139504773Y-87955452D01*
X139468972Y-87938795D01*
X139354607Y-87883846D01*
X139287146Y-87901642D01*
X139229738Y-87910703D01*
X139160767Y-87912474D01*
X139087732Y-87907712D01*
X139018132Y-87897178D01*
X138959468Y-87881629D01*
X138923515Y-87864848D01*
X138857993Y-87814758D01*
X138802713Y-87759138D01*
X138760515Y-87702005D01*
X138734239Y-87647375D01*
X138726726Y-87599264D01*
X138728142Y-87588579D01*
X138736540Y-87545692D01*
X138743158Y-87509456D01*
X138758535Y-87465598D01*
X138784198Y-87440249D01*
X138816686Y-87436181D01*
X138829306Y-87440423D01*
X138852396Y-87455114D01*
X138860675Y-87467554D01*
X138868885Y-87479561D01*
X138888593Y-87476581D01*
X138912416Y-87460219D01*
X138917231Y-87455255D01*
X138950313Y-87434101D01*
X138987349Y-87432879D01*
X139015980Y-87448971D01*
X139041303Y-87464659D01*
X139056377Y-87467823D01*
X139067085Y-87465150D01*
X139072746Y-87453786D01*
X139074110Y-87428714D01*
X139071925Y-87384916D01*
X139070909Y-87370421D01*
X139060173Y-87287171D01*
X139038773Y-87216073D01*
X139002757Y-87145056D01*
X138990669Y-87125366D01*
X138968491Y-87085240D01*
X138944548Y-87034429D01*
X138929553Y-86998072D01*
X138906205Y-86942356D01*
X138877730Y-86881859D01*
X138859886Y-86847442D01*
X138793899Y-86701921D01*
X138781598Y-86659513D01*
X139534733Y-86659513D01*
X139537308Y-86712137D01*
X139547167Y-86780342D01*
X139564274Y-86868037D01*
X139568007Y-86885663D01*
X139591878Y-86997612D01*
X139610945Y-87088030D01*
X139625678Y-87159960D01*
X139636551Y-87216447D01*
X139644034Y-87260536D01*
X139648601Y-87295270D01*
X139650721Y-87323695D01*
X139650868Y-87348854D01*
X139649513Y-87373791D01*
X139647434Y-87398177D01*
X139640488Y-87454824D01*
X139630658Y-87511001D01*
X139620686Y-87552291D01*
X139608742Y-87592047D01*
X139604759Y-87615010D01*
X139610393Y-87628717D01*
X139627297Y-87640709D01*
X139641976Y-87649291D01*
X139727237Y-87685926D01*
X139824263Y-87703906D01*
X139927329Y-87702625D01*
X140008004Y-87687925D01*
X140105155Y-87650264D01*
X140188873Y-87591740D01*
X140258757Y-87512988D01*
X140314402Y-87414641D01*
X140355407Y-87297332D01*
X140381367Y-87161694D01*
X140388394Y-87089883D01*
X140388160Y-86970872D01*
X140371566Y-86855492D01*
X140340034Y-86748350D01*
X140294985Y-86654053D01*
X140237843Y-86577210D01*
X140226603Y-86565801D01*
X140140083Y-86497173D01*
X140045376Y-86451806D01*
X139940808Y-86429096D01*
X139842743Y-86427165D01*
X139743522Y-86443570D01*
X139658293Y-86480210D01*
X139588062Y-86536605D01*
X139571081Y-86556044D01*
X139551584Y-86585375D01*
X139539480Y-86618562D01*
X139534733Y-86659513D01*
X138781598Y-86659513D01*
X138748709Y-86546122D01*
X138740265Y-86502510D01*
X138728346Y-86446066D01*
X138713330Y-86392206D01*
X138698147Y-86351217D01*
X138695733Y-86346216D01*
X138680570Y-86312800D01*
X138675589Y-86285418D01*
X138679695Y-86252111D01*
X138684965Y-86228858D01*
X138693742Y-86178349D01*
X138691411Y-86139803D01*
X138686799Y-86123600D01*
X138681424Y-86092649D01*
X138679127Y-86044973D01*
X138679591Y-85987933D01*
X138682501Y-85928889D01*
X138687540Y-85875202D01*
X138694392Y-85834232D01*
X138699950Y-85817346D01*
X138705718Y-85793833D01*
X138709763Y-85753641D01*
X138711258Y-85705208D01*
X138711249Y-85702253D01*
X138713179Y-85644288D01*
X138719946Y-85608752D01*
X138728182Y-85595624D01*
X138741448Y-85574447D01*
X138752288Y-85540286D01*
X138753955Y-85531700D01*
X138762842Y-85494056D01*
X138777834Y-85444373D01*
X138794264Y-85397318D01*
X138812106Y-85344998D01*
X138826955Y-85292757D01*
X138834875Y-85255849D01*
X138848063Y-85209071D01*
X138870403Y-85161374D01*
X138878183Y-85149020D01*
X138900016Y-85112057D01*
X138906709Y-85082673D01*
X138903878Y-85061044D01*
X138897633Y-85006427D01*
X138904443Y-84958819D01*
X138922447Y-84923374D01*
X138949783Y-84905247D01*
X138960611Y-84903944D01*
X138991475Y-84896330D01*
X139011437Y-84871778D01*
X139021800Y-84827717D01*
X139024059Y-84778905D01*
X139027038Y-84721847D01*
X139037093Y-84686605D01*
X139055901Y-84670442D01*
X139085136Y-84670625D01*
X139089772Y-84671702D01*
X139122332Y-84669853D01*
X139143712Y-84647093D01*
X139152042Y-84605860D01*
X139151755Y-84590889D01*
X139158110Y-84542208D01*
X139180438Y-84503531D01*
X139214464Y-84480539D01*
X139237713Y-84476630D01*
X139269508Y-84468765D01*
X139301240Y-84442465D01*
X139311666Y-84430437D01*
X139335588Y-84397242D01*
X139344786Y-84368627D01*
X139343316Y-84333035D01*
X139343889Y-84284687D01*
X139361796Y-84242151D01*
X139362526Y-84240980D01*
X139387132Y-84211000D01*
X139413792Y-84201922D01*
X139448461Y-84212852D01*
X139469620Y-84224896D01*
X139497886Y-84240252D01*
X139516811Y-84241729D01*
X139536709Y-84230731D01*
X139560527Y-84206397D01*
X139582338Y-84172481D01*
X139583977Y-84169140D01*
X139614594Y-84129830D01*
X139656772Y-84110482D01*
X139702733Y-84113079D01*
X139751490Y-84122779D01*
X139787865Y-84116698D01*
X139820662Y-84092583D01*
X139832588Y-84079845D01*
X139867054Y-84045736D01*
X139904326Y-84015655D01*
X139914194Y-84009086D01*
X139956066Y-83983208D01*
X139992275Y-84009979D01*
X140040998Y-84034663D01*
X140086559Y-84034452D01*
X140128795Y-84009410D01*
X140167543Y-83959598D01*
X140179229Y-83938341D01*
X140208669Y-83896551D01*
X140241205Y-83879609D01*
X140276130Y-83887516D01*
X140312740Y-83920272D01*
X140326228Y-83938193D01*
X140349210Y-83968675D01*
X140368116Y-83982532D01*
X140391912Y-83984630D01*
X140408429Y-83982791D01*
X140447774Y-83970604D01*
X140486798Y-83942248D01*
X140505981Y-83923283D01*
X140536542Y-83893136D01*
X140558843Y-83878530D01*
X140580656Y-83875650D01*
X140597826Y-83878173D01*
X140638701Y-83892038D01*
X140673421Y-83911474D01*
X140693656Y-83924317D01*
X140714480Y-83930397D01*
X140743466Y-83930449D01*
X140788183Y-83925207D01*
X140799102Y-83923670D01*
X140851127Y-83917017D01*
X140918099Y-83909513D01*
X140989906Y-83902254D01*
X141034945Y-83898138D01*
X141105446Y-83891016D01*
X141178747Y-83881941D01*
X141244273Y-83872296D01*
X141277095Y-83866492D01*
X141343583Y-83856063D01*
X141393076Y-83854757D01*
X141421628Y-83859264D01*
X141449305Y-83863990D01*
X141496984Y-83869725D01*
X141559577Y-83875957D01*
X141631996Y-83882173D01*
X141697007Y-83887028D01*
X141787163Y-83892790D01*
X141856657Y-83895913D01*
X141909823Y-83896410D01*
X141950998Y-83894287D01*
X141984515Y-83889556D01*
X141993491Y-83887682D01*
X142047800Y-83879273D01*
X142087089Y-83882669D01*
X142095755Y-83885481D01*
X142124737Y-83891169D01*
X142172750Y-83894978D01*
X142233762Y-83896931D01*
X142301738Y-83897053D01*
X142370646Y-83895370D01*
X142434454Y-83891905D01*
X142487128Y-83886684D01*
X142505405Y-83883803D01*
X142559102Y-83876135D01*
X142615404Y-83871539D01*
X142637369Y-83870952D01*
X142671142Y-83870110D01*
X142681308Y-83867279D01*
X142669347Y-83862033D01*
X142668789Y-83861870D01*
X142664767Y-83856516D01*
X142683664Y-83849297D01*
X142725861Y-83840145D01*
X142791739Y-83828993D01*
X142881678Y-83815775D01*
X142996059Y-83800423D01*
X143070967Y-83790864D01*
X143150612Y-83780505D01*
X143214708Y-83770976D01*
X143270714Y-83760693D01*
X143326088Y-83748073D01*
X143388291Y-83731532D01*
X143464781Y-83709489D01*
X143491476Y-83701611D01*
X143563660Y-83680616D01*
X143640577Y-83658850D01*
X143711811Y-83639232D01*
X143755924Y-83627507D01*
X143812836Y-83612259D01*
X143866572Y-83597001D01*
X143908151Y-83584310D01*
X143918473Y-83580846D01*
X143948337Y-83567201D01*
X143954065Y-83556195D01*
X143936558Y-83548258D01*
X143896720Y-83543821D01*
X143839570Y-83543228D01*
X143791312Y-83543543D01*
X143760415Y-83540628D01*
X143739120Y-83532110D01*
X143719667Y-83515613D01*
X143707423Y-83502793D01*
X143671050Y-83473585D01*
X143624971Y-83449650D01*
X143576934Y-83433703D01*
X143534690Y-83428458D01*
X143510329Y-83433761D01*
X143460978Y-83447404D01*
X143411809Y-83436446D01*
X143364847Y-83401355D01*
X143363395Y-83399831D01*
X143321543Y-83366284D01*
X143258168Y-83330311D01*
X143176560Y-83293505D01*
X143080010Y-83257459D01*
X143045830Y-83246131D01*
X142971734Y-83219075D01*
X142921463Y-83193051D01*
X142893770Y-83167349D01*
X142888679Y-83156825D01*
X142873375Y-83134867D01*
X142841849Y-83104928D01*
X142799891Y-83071167D01*
X142753291Y-83037740D01*
X142707838Y-83008805D01*
X142669322Y-82988518D01*
X142643854Y-82981034D01*
X142600082Y-82969553D01*
X142560697Y-82939092D01*
X142533093Y-82895630D01*
X142530887Y-82889719D01*
X142510504Y-82856562D01*
X142468806Y-82812393D01*
X142411714Y-82762285D01*
X142319733Y-82676607D01*
X142249151Y-82588478D01*
X142245751Y-82583382D01*
X142213518Y-82536786D01*
X142189526Y-82508420D01*
X142169943Y-82494465D01*
X142153154Y-82491073D01*
X142107365Y-82478968D01*
X142068152Y-82446191D01*
X142045344Y-82407950D01*
X142029576Y-82353462D01*
X142033835Y-82311278D01*
X142048651Y-82287605D01*
X142061371Y-82256655D01*
X142056906Y-82218068D01*
X142037813Y-82179768D01*
X142006647Y-82149680D01*
X142003528Y-82147758D01*
X141967502Y-82112319D01*
X141952953Y-82078846D01*
X141944049Y-82036283D01*
X141940409Y-81996091D01*
X141942138Y-81965261D01*
X141949338Y-81950787D01*
X141951067Y-81950455D01*
X141967240Y-81941682D01*
X141968735Y-81920067D01*
X141956230Y-81892670D01*
X141944125Y-81878187D01*
X141918471Y-81839896D01*
X141900094Y-81788198D01*
X141890134Y-81731114D01*
X141889726Y-81676662D01*
X141900010Y-81632863D01*
X141907494Y-81619960D01*
X141918509Y-81585464D01*
X141906580Y-81542072D01*
X141885722Y-81508328D01*
X141873589Y-81488647D01*
X141867186Y-81466649D01*
X141865732Y-81435474D01*
X141868442Y-81388264D01*
X141869939Y-81370080D01*
X141876591Y-81315917D01*
X141885999Y-81269398D01*
X141896475Y-81238541D01*
X141898335Y-81235283D01*
X141910701Y-81203685D01*
X141912633Y-81159267D01*
X141910918Y-81138158D01*
X141910423Y-81064016D01*
X141924960Y-81004396D01*
X141953076Y-80963263D01*
X141968375Y-80944895D01*
X141974079Y-80921299D01*
X141972081Y-80883459D01*
X141971298Y-80876545D01*
X141968957Y-80830847D01*
X141976374Y-80796902D01*
X141989372Y-80772202D01*
X142008588Y-80745858D01*
X142024096Y-80731985D01*
X142026524Y-80731356D01*
X142036255Y-80720484D01*
X142051571Y-80691671D01*
X142069526Y-80650615D01*
X142073641Y-80640238D01*
X142098255Y-80585076D01*
X142128085Y-80529540D01*
X142155396Y-80487481D01*
X142181654Y-80449557D01*
X142193157Y-80423315D01*
X142192477Y-80402227D01*
X142190873Y-80397432D01*
X142185842Y-80353864D01*
X142198681Y-80308702D01*
X142224992Y-80268497D01*
X142260378Y-80239800D01*
X142300443Y-80229161D01*
X142303732Y-80229287D01*
X142333769Y-80230353D01*
X142349850Y-80229966D01*
X142357556Y-80218146D01*
X142361244Y-80190531D01*
X142360909Y-80156139D01*
X142356545Y-80123989D01*
X142349926Y-80105578D01*
X142350106Y-80089462D01*
X142356934Y-80085449D01*
X142423766Y-80067132D01*
X142468389Y-80057195D01*
X142492184Y-80055333D01*
X142493379Y-80055558D01*
X142505030Y-80046646D01*
X142518670Y-80020125D01*
X142526126Y-79998755D01*
X142549247Y-79949410D01*
X142582949Y-79922421D01*
X142628235Y-79916804D01*
X142663577Y-79912623D01*
X142698233Y-79897406D01*
X142723657Y-79876090D01*
X142731630Y-79857070D01*
X142740573Y-79828598D01*
X142756817Y-79807559D01*
X142780224Y-79792392D01*
X142804860Y-79795470D01*
X142813964Y-79799327D01*
X142848528Y-79812106D01*
X142865997Y-79810092D01*
X142869878Y-79797699D01*
X142878898Y-79781485D01*
X142902270Y-79756073D01*
X142927455Y-79733380D01*
X142963215Y-79705738D01*
X142989806Y-79692637D01*
X143015612Y-79690628D01*
X143027669Y-79692170D01*
X143055350Y-79694417D01*
X143073515Y-79686194D01*
X143090856Y-79662265D01*
X143098010Y-79649798D01*
X143127704Y-79608991D01*
X143158387Y-79592400D01*
X143192178Y-79599130D01*
X143203104Y-79605474D01*
X143236241Y-79622783D01*
X143254531Y-79620883D01*
X143259487Y-79603029D01*
X143268961Y-79568993D01*
X143292189Y-79540078D01*
X143321374Y-79525293D01*
X143327133Y-79524824D01*
X143355205Y-79533658D01*
X143384011Y-79555036D01*
X143385167Y-79556245D01*
X143412116Y-79580805D01*
X143432344Y-79584640D01*
X143453350Y-79567748D01*
X143462821Y-79556245D01*
X143494508Y-79530083D01*
X143527406Y-79528232D01*
X143557752Y-79549961D01*
X143584948Y-79571369D01*
X143612742Y-79569888D01*
X143644452Y-79545072D01*
X143651447Y-79537392D01*
X143688538Y-79506634D01*
X143723255Y-79500625D01*
X143754388Y-79519270D01*
X143773337Y-79546819D01*
X143797104Y-79568441D01*
X143830816Y-79575330D01*
X143863347Y-79566458D01*
X143875321Y-79556245D01*
X143903867Y-79537807D01*
X143936196Y-79541386D01*
X143966749Y-79565662D01*
X143976939Y-79580378D01*
X144011141Y-79619715D01*
X144057677Y-79639971D01*
X144119697Y-79642408D01*
X144129398Y-79641445D01*
X144169721Y-79640192D01*
X144192706Y-79646627D01*
X144194910Y-79649055D01*
X144213031Y-79659987D01*
X144233809Y-79663073D01*
X144264381Y-79673761D01*
X144282261Y-79701572D01*
X144283673Y-79740126D01*
X144282518Y-79745325D01*
X144281624Y-79773028D01*
X144296928Y-79800400D01*
X144309702Y-79814707D01*
X144337978Y-79838353D01*
X144364004Y-79850954D01*
X144369067Y-79851593D01*
X144392128Y-79860320D01*
X144420964Y-79882175D01*
X144430620Y-79891766D01*
X144455687Y-79924223D01*
X144463617Y-79953422D01*
X144462390Y-79970316D01*
X144464848Y-80000953D01*
X144477139Y-80042635D01*
X144496254Y-80089245D01*
X144519184Y-80134665D01*
X144542920Y-80172778D01*
X144564454Y-80197467D01*
X144577080Y-80203498D01*
X144610220Y-80214391D01*
X144635346Y-80242018D01*
X144649998Y-80278801D01*
X144651719Y-80317165D01*
X144638050Y-80349533D01*
X144627591Y-80359196D01*
X144612533Y-80372617D01*
X144605849Y-80390308D01*
X144605990Y-80419940D01*
X144609156Y-80450498D01*
X144616930Y-80493848D01*
X144627951Y-80528915D01*
X144636104Y-80543296D01*
X144651127Y-80566325D01*
X144654539Y-80578896D01*
X144661520Y-80598375D01*
X144678704Y-80626667D01*
X144682531Y-80631987D01*
X144706379Y-80684351D01*
X144710524Y-80720089D01*
X144704551Y-80762444D01*
X144684267Y-80785802D01*
X144646129Y-80793883D01*
X144640058Y-80794004D01*
X144613907Y-80800052D01*
X144597407Y-80822283D01*
X144592705Y-80834417D01*
X144585013Y-80863752D01*
X144589737Y-80879448D01*
X144597759Y-80885314D01*
X144611581Y-80905601D01*
X144616735Y-80939410D01*
X144613345Y-80976716D01*
X144601535Y-81007494D01*
X144596176Y-81014148D01*
X144565312Y-81028922D01*
X144547280Y-81027720D01*
X144518523Y-81031709D01*
X144495917Y-81056604D01*
X144481932Y-81098444D01*
X144478586Y-81137836D01*
X144471906Y-81186415D01*
X144450747Y-81215413D01*
X144413439Y-81226878D01*
X144405585Y-81227227D01*
X144381313Y-81232541D01*
X144368547Y-81252235D01*
X144364449Y-81268562D01*
X144353883Y-81303072D01*
X144340402Y-81328260D01*
X144313438Y-81344208D01*
X144279990Y-81345267D01*
X144256106Y-81333339D01*
X144242148Y-81330624D01*
X144219514Y-81345053D01*
X144191588Y-81371698D01*
X144143728Y-81412011D01*
X144098100Y-81430799D01*
X144094555Y-81431431D01*
X144055775Y-81444441D01*
X144028293Y-81473086D01*
X144023354Y-81481049D01*
X143998778Y-81510309D01*
X143972704Y-81522817D01*
X143950997Y-81516882D01*
X143942706Y-81504290D01*
X143925329Y-81489769D01*
X143894993Y-81486237D01*
X143861366Y-81493731D01*
X143843161Y-81503890D01*
X143819408Y-81517182D01*
X143792262Y-81520796D01*
X143757114Y-81513869D01*
X143709357Y-81495537D01*
X143650019Y-81467707D01*
X143598513Y-81442853D01*
X143565055Y-81428316D01*
X143545314Y-81422969D01*
X143534957Y-81425682D01*
X143529654Y-81435329D01*
X143529344Y-81436287D01*
X143512216Y-81454823D01*
X143483025Y-81460138D01*
X143451147Y-81452133D01*
X143431103Y-81437318D01*
X143412228Y-81401048D01*
X143417486Y-81364247D01*
X143435541Y-81340814D01*
X143452351Y-81322366D01*
X143450467Y-81307720D01*
X143441183Y-81296320D01*
X143414428Y-81277830D01*
X143384525Y-81267254D01*
X143357674Y-81257516D01*
X143348160Y-81237338D01*
X143347463Y-81222871D01*
X143353491Y-81192672D01*
X143376292Y-81175511D01*
X143382025Y-81173277D01*
X143401444Y-81164335D01*
X143401731Y-81159740D01*
X143400877Y-81159661D01*
X143388565Y-81148901D01*
X143385686Y-81127048D01*
X143392881Y-81106558D01*
X143397915Y-81102002D01*
X143415990Y-81081305D01*
X143435118Y-81045558D01*
X143451157Y-81004304D01*
X143459962Y-80967088D01*
X143460576Y-80957687D01*
X143467622Y-80926258D01*
X143484895Y-80909565D01*
X143506598Y-80911998D01*
X143513562Y-80917564D01*
X143532117Y-80923524D01*
X143562985Y-80912612D01*
X143565397Y-80911380D01*
X143604404Y-80893815D01*
X143639891Y-80881208D01*
X143688542Y-80876843D01*
X143750434Y-80884887D01*
X143818526Y-80902903D01*
X143885774Y-80928456D01*
X143945137Y-80959110D01*
X143989570Y-80992429D01*
X144001922Y-81006410D01*
X144023216Y-81032315D01*
X144040610Y-81043617D01*
X144056613Y-81038400D01*
X144073730Y-81014750D01*
X144094470Y-80970754D01*
X144115253Y-80919876D01*
X144129247Y-80861723D01*
X144133797Y-80786987D01*
X144129648Y-80702062D01*
X144117549Y-80613342D01*
X144098246Y-80527223D01*
X144072486Y-80450097D01*
X144056234Y-80414596D01*
X144023098Y-80360170D01*
X143980981Y-80304816D01*
X143934975Y-80254079D01*
X143890167Y-80213502D01*
X143851648Y-80188628D01*
X143846991Y-80186693D01*
X143766051Y-80160629D01*
X143690878Y-80147723D01*
X143610791Y-80146765D01*
X143545747Y-80152598D01*
X143444253Y-80167304D01*
X143360107Y-80186738D01*
X143289019Y-80213720D01*
X143226700Y-80251070D01*
X143168861Y-80301609D01*
X143111212Y-80368158D01*
X143049463Y-80453538D01*
X143019201Y-80498847D01*
X142964325Y-80589758D01*
X142920724Y-80680107D01*
X142885787Y-80776802D01*
X142856905Y-80886753D01*
X142838583Y-80976974D01*
X142821120Y-81087386D01*
X142813524Y-81182895D01*
X142816135Y-81271859D01*
X142829294Y-81362633D01*
X142853341Y-81463578D01*
X142859285Y-81485006D01*
X142892004Y-81587941D01*
X142928107Y-81672527D01*
X142971400Y-81745547D01*
X143025693Y-81813783D01*
X143069717Y-81859805D01*
X143108974Y-81898271D01*
X143140877Y-81927434D01*
X143170426Y-81950242D01*
X143202624Y-81969642D01*
X143242471Y-81988582D01*
X143294970Y-82010008D01*
X143365120Y-82036868D01*
X143379307Y-82042242D01*
X143552865Y-82098563D01*
X143728143Y-82137536D01*
X143897430Y-82157466D01*
X143905411Y-82157922D01*
X143956671Y-82160695D01*
X144026148Y-82164449D01*
X144106959Y-82168812D01*
X144192220Y-82173413D01*
X144253936Y-82176742D01*
X144430316Y-82182154D01*
X144623911Y-82180836D01*
X144827846Y-82173236D01*
X145035246Y-82159798D01*
X145239236Y-82140967D01*
X145432940Y-82117191D01*
X145609484Y-82088913D01*
X145609710Y-82088872D01*
X145677691Y-82077813D01*
X145759441Y-82066638D01*
X145843645Y-82056803D01*
X145905059Y-82050887D01*
X145982200Y-82044144D01*
X146073254Y-82035819D01*
X146167133Y-82026943D01*
X146252751Y-82018547D01*
X146256964Y-82018124D01*
X146362561Y-82007855D01*
X146484871Y-81996558D01*
X146615537Y-81984961D01*
X146746202Y-81973793D01*
X146868512Y-81963781D01*
X146973342Y-81955709D01*
X147079648Y-81943477D01*
X147202626Y-81921963D01*
X147336283Y-81892755D01*
X147474629Y-81857442D01*
X147611670Y-81817613D01*
X147741416Y-81774858D01*
X147857875Y-81730765D01*
X147915619Y-81705823D01*
X147974568Y-81676798D01*
X148044832Y-81638860D01*
X148122490Y-81594459D01*
X148203621Y-81546048D01*
X148284303Y-81496078D01*
X148360615Y-81447001D01*
X148428638Y-81401270D01*
X148484448Y-81361334D01*
X148524127Y-81329647D01*
X148537111Y-81317213D01*
X148567580Y-81284349D01*
X148542309Y-81256071D01*
X148501125Y-81199384D01*
X148460186Y-81123968D01*
X148422160Y-81036112D01*
X148389718Y-80942106D01*
X148365529Y-80848238D01*
X148362268Y-80831900D01*
X148334322Y-80667038D01*
X148313383Y-80505514D01*
X148299632Y-80350903D01*
X148293250Y-80206780D01*
X148294419Y-80076720D01*
X148303320Y-79964296D01*
X148314768Y-79895582D01*
X148366984Y-79700504D01*
X148438357Y-79503836D01*
X148525371Y-79314281D01*
X148611848Y-79160654D01*
X148668045Y-79076573D01*
X148739486Y-78979927D01*
X148822697Y-78874927D01*
X148914203Y-78765785D01*
X149010528Y-78656711D01*
X149108199Y-78551917D01*
X149147612Y-78511384D01*
X149225600Y-78435738D01*
X149301515Y-78370307D01*
X149381114Y-78310948D01*
X149470151Y-78253521D01*
X149574384Y-78193884D01*
X149631481Y-78163269D01*
X149732968Y-78111892D01*
X149820842Y-78073280D01*
X149902028Y-78045704D01*
X149983450Y-78027435D01*
X150072032Y-78016745D01*
X150174699Y-78011904D01*
X150241031Y-78011104D01*
X150339423Y-78011989D01*
G37*
D12*
%TO.C,R1*%
X120460000Y-74000000D02*
X121230000Y-74000000D01*
X121230000Y-72630000D02*
X121230000Y-75370000D01*
X121230000Y-75370000D02*
X127770000Y-75370000D01*
X127770000Y-72630000D02*
X121230000Y-72630000D01*
X127770000Y-75370000D02*
X127770000Y-72630000D01*
X128540000Y-74000000D02*
X127770000Y-74000000D01*
%TO.C,D3*%
X157030000Y-67030000D02*
X157030000Y-72470000D01*
X157030000Y-72470000D02*
X157160000Y-72470000D01*
X157160000Y-67030000D02*
X157030000Y-67030000D01*
X159840000Y-67030000D02*
X159970000Y-67030000D01*
X159970000Y-67030000D02*
X159970000Y-72470000D01*
X159970000Y-67810000D02*
X157030000Y-67810000D01*
X159970000Y-67930000D02*
X157030000Y-67930000D01*
X159970000Y-68050000D02*
X157030000Y-68050000D01*
X159970000Y-72470000D02*
X159840000Y-72470000D01*
%TO.C,LEDs1*%
X162890000Y-59610000D02*
X162890000Y-60860000D01*
X162890000Y-60860000D02*
X164140000Y-60860000D01*
X162990000Y-58800000D02*
X162990000Y-59100000D01*
X162990000Y-59100000D02*
X163190000Y-59100000D01*
X163090000Y-58800000D02*
X163090000Y-59100000D01*
X163190000Y-52440000D02*
X163190000Y-60560000D01*
X163190000Y-58000000D02*
X163800000Y-58000000D01*
X163190000Y-58800000D02*
X162990000Y-58800000D01*
X163190000Y-60560000D02*
X167910000Y-60560000D01*
X163800000Y-53050000D02*
X163800000Y-55000000D01*
X163800000Y-55000000D02*
X163190000Y-55000000D01*
X163800000Y-58000000D02*
X163800000Y-59950000D01*
X163800000Y-59950000D02*
X167300000Y-59950000D01*
X164500000Y-52440000D02*
X164500000Y-53050000D01*
X164500000Y-60560000D02*
X164500000Y-59950000D01*
X165800000Y-52440000D02*
X165800000Y-53050000D01*
X165800000Y-60560000D02*
X165800000Y-59950000D01*
X166800000Y-55400000D02*
X167300000Y-55400000D01*
X166800000Y-55600000D02*
X166800000Y-55400000D01*
X166800000Y-57400000D02*
X167300000Y-57400000D01*
X166800000Y-57600000D02*
X166800000Y-57400000D01*
X167300000Y-53050000D02*
X163800000Y-53050000D01*
X167300000Y-55500000D02*
X166800000Y-55500000D01*
X167300000Y-55600000D02*
X166800000Y-55600000D01*
X167300000Y-57500000D02*
X166800000Y-57500000D01*
X167300000Y-57600000D02*
X166800000Y-57600000D01*
X167300000Y-59950000D02*
X167300000Y-53050000D01*
X167910000Y-52440000D02*
X163190000Y-52440000D01*
X167910000Y-60560000D02*
X167910000Y-52440000D01*
%TO.C,5V+1*%
X101200000Y-74400000D02*
X115800000Y-74400000D01*
X101200000Y-83600000D02*
X101200000Y-74400000D01*
X110200000Y-83600000D02*
X101200000Y-83600000D01*
X114300000Y-74160000D02*
X116040000Y-74160000D01*
X115800000Y-74400000D02*
X115800000Y-77200000D01*
X115800000Y-80800000D02*
X115800000Y-83600000D01*
X115800000Y-83600000D02*
X113800000Y-83600000D01*
X116040000Y-74160000D02*
X116040000Y-75900000D01*
%TO.C,Q3*%
X151629000Y-65170000D02*
X151629000Y-75410000D01*
X154760000Y-65170000D02*
X154760000Y-75410000D01*
X156270000Y-65170000D02*
X151629000Y-65170000D01*
X156270000Y-65170000D02*
X156270000Y-75410000D01*
X156270000Y-68440000D02*
X154760000Y-68440000D01*
X156270000Y-72141000D02*
X154760000Y-72141000D01*
X156270000Y-75410000D02*
X151629000Y-75410000D01*
%TO.C,SD1*%
X123178000Y-52352000D02*
X123178000Y-57072000D01*
X123178000Y-54462000D02*
X123788000Y-54462000D01*
X123178000Y-55762000D02*
X123788000Y-55762000D01*
X123178000Y-57072000D02*
X137298000Y-57072000D01*
X123788000Y-52962000D02*
X123788000Y-56462000D01*
X123788000Y-56462000D02*
X125738000Y-56462000D01*
X125738000Y-56462000D02*
X125738000Y-57072000D01*
X126138000Y-53462000D02*
X126138000Y-52962000D01*
X126238000Y-52962000D02*
X126238000Y-53462000D01*
X126338000Y-52962000D02*
X126338000Y-53462000D01*
X126338000Y-53462000D02*
X126138000Y-53462000D01*
X128138000Y-53462000D02*
X128138000Y-52962000D01*
X128238000Y-52962000D02*
X128238000Y-53462000D01*
X128338000Y-52962000D02*
X128338000Y-53462000D01*
X128338000Y-53462000D02*
X128138000Y-53462000D01*
X130138000Y-53462000D02*
X130138000Y-52962000D01*
X130238000Y-52962000D02*
X130238000Y-53462000D01*
X130338000Y-52962000D02*
X130338000Y-53462000D01*
X130338000Y-53462000D02*
X130138000Y-53462000D01*
X132138000Y-53462000D02*
X132138000Y-52962000D01*
X132238000Y-52962000D02*
X132238000Y-53462000D01*
X132338000Y-52962000D02*
X132338000Y-53462000D01*
X132338000Y-53462000D02*
X132138000Y-53462000D01*
X134138000Y-53462000D02*
X134138000Y-52962000D01*
X134238000Y-52962000D02*
X134238000Y-53462000D01*
X134338000Y-52962000D02*
X134338000Y-53462000D01*
X134338000Y-53462000D02*
X134138000Y-53462000D01*
X134738000Y-56462000D02*
X136688000Y-56462000D01*
X134738000Y-57072000D02*
X134738000Y-56462000D01*
X135538000Y-57072000D02*
X135538000Y-57272000D01*
X135538000Y-57172000D02*
X135838000Y-57172000D01*
X135538000Y-57272000D02*
X135838000Y-57272000D01*
X135838000Y-57272000D02*
X135838000Y-57072000D01*
X136348000Y-57372000D02*
X137598000Y-57372000D01*
X136688000Y-52962000D02*
X123788000Y-52962000D01*
X136688000Y-56462000D02*
X136688000Y-52962000D01*
X137298000Y-52352000D02*
X123178000Y-52352000D01*
X137298000Y-54462000D02*
X136688000Y-54462000D01*
X137298000Y-55762000D02*
X136688000Y-55762000D01*
X137298000Y-57072000D02*
X137298000Y-52352000D01*
X137598000Y-57372000D02*
X137598000Y-56122000D01*
%TO.C,RotaryEncoder1*%
X162890000Y-93610000D02*
X162890000Y-94860000D01*
X162890000Y-94860000D02*
X164140000Y-94860000D01*
X162990000Y-92800000D02*
X162990000Y-93100000D01*
X162990000Y-93100000D02*
X163190000Y-93100000D01*
X163090000Y-92800000D02*
X163090000Y-93100000D01*
X163190000Y-82440000D02*
X163190000Y-94560000D01*
X163190000Y-92000000D02*
X163800000Y-92000000D01*
X163190000Y-92800000D02*
X162990000Y-92800000D01*
X163190000Y-94560000D02*
X167910000Y-94560000D01*
X163800000Y-83050000D02*
X163800000Y-85000000D01*
X163800000Y-85000000D02*
X163190000Y-85000000D01*
X163800000Y-92000000D02*
X163800000Y-93950000D01*
X163800000Y-93950000D02*
X167300000Y-93950000D01*
X164500000Y-82440000D02*
X164500000Y-83050000D01*
X164500000Y-94560000D02*
X164500000Y-93950000D01*
X165800000Y-82440000D02*
X165800000Y-83050000D01*
X165800000Y-94560000D02*
X165800000Y-93950000D01*
X166800000Y-85400000D02*
X167300000Y-85400000D01*
X166800000Y-85600000D02*
X166800000Y-85400000D01*
X166800000Y-87400000D02*
X167300000Y-87400000D01*
X166800000Y-87600000D02*
X166800000Y-87400000D01*
X166800000Y-89400000D02*
X167300000Y-89400000D01*
X166800000Y-89600000D02*
X166800000Y-89400000D01*
X166800000Y-91400000D02*
X167300000Y-91400000D01*
X166800000Y-91600000D02*
X166800000Y-91400000D01*
X167300000Y-83050000D02*
X163800000Y-83050000D01*
X167300000Y-85500000D02*
X166800000Y-85500000D01*
X167300000Y-85600000D02*
X166800000Y-85600000D01*
X167300000Y-87500000D02*
X166800000Y-87500000D01*
X167300000Y-87600000D02*
X166800000Y-87600000D01*
X167300000Y-89500000D02*
X166800000Y-89500000D01*
X167300000Y-89600000D02*
X166800000Y-89600000D01*
X167300000Y-91500000D02*
X166800000Y-91500000D01*
X167300000Y-91600000D02*
X166800000Y-91600000D01*
X167300000Y-93950000D02*
X167300000Y-83050000D01*
X167910000Y-82440000D02*
X163190000Y-82440000D01*
X167910000Y-94560000D02*
X167910000Y-82440000D01*
%TO.C,C2*%
X110770000Y-89000000D02*
G75*
G02*
X104230000Y-89000000I-3270000J0D01*
G01*
X104230000Y-89000000D02*
G75*
G02*
X110770000Y-89000000I3270000J0D01*
G01*
%TO.C,R6*%
X152380000Y-54000000D02*
X153150000Y-54000000D01*
X153150000Y-52630000D02*
X153150000Y-55370000D01*
X153150000Y-55370000D02*
X159690000Y-55370000D01*
X159690000Y-52630000D02*
X153150000Y-52630000D01*
X159690000Y-55370000D02*
X159690000Y-52630000D01*
X160460000Y-54000000D02*
X159690000Y-54000000D01*
%TO.C,R3*%
X138625000Y-70000000D02*
X139395000Y-70000000D01*
X139395000Y-68630000D02*
X139395000Y-71370000D01*
X139395000Y-71370000D02*
X145935000Y-71370000D01*
X145935000Y-68630000D02*
X139395000Y-68630000D01*
X145935000Y-71370000D02*
X145935000Y-68630000D01*
X146705000Y-70000000D02*
X145935000Y-70000000D01*
%TO.C,StirMotors1*%
X162890000Y-79610000D02*
X162890000Y-80860000D01*
X162890000Y-80860000D02*
X164140000Y-80860000D01*
X162990000Y-78800000D02*
X162990000Y-79100000D01*
X162990000Y-79100000D02*
X163190000Y-79100000D01*
X163090000Y-78800000D02*
X163090000Y-79100000D01*
X163190000Y-62440000D02*
X163190000Y-80560000D01*
X163190000Y-78000000D02*
X163800000Y-78000000D01*
X163190000Y-78800000D02*
X162990000Y-78800000D01*
X163190000Y-80560000D02*
X167910000Y-80560000D01*
X163800000Y-63050000D02*
X163800000Y-65000000D01*
X163800000Y-65000000D02*
X163190000Y-65000000D01*
X163800000Y-78000000D02*
X163800000Y-79950000D01*
X163800000Y-79950000D02*
X167300000Y-79950000D01*
X164500000Y-62440000D02*
X164500000Y-63050000D01*
X164500000Y-80560000D02*
X164500000Y-79950000D01*
X165800000Y-62440000D02*
X165800000Y-63050000D01*
X165800000Y-80560000D02*
X165800000Y-79950000D01*
X166800000Y-65400000D02*
X167300000Y-65400000D01*
X166800000Y-65600000D02*
X166800000Y-65400000D01*
X166800000Y-67400000D02*
X167300000Y-67400000D01*
X166800000Y-67600000D02*
X166800000Y-67400000D01*
X166800000Y-69400000D02*
X167300000Y-69400000D01*
X166800000Y-69600000D02*
X166800000Y-69400000D01*
X166800000Y-71400000D02*
X167300000Y-71400000D01*
X166800000Y-71600000D02*
X166800000Y-71400000D01*
X166800000Y-73400000D02*
X167300000Y-73400000D01*
X166800000Y-73600000D02*
X166800000Y-73400000D01*
X166800000Y-75400000D02*
X167300000Y-75400000D01*
X166800000Y-75600000D02*
X166800000Y-75400000D01*
X166800000Y-77400000D02*
X167300000Y-77400000D01*
X166800000Y-77600000D02*
X166800000Y-77400000D01*
X167300000Y-63050000D02*
X163800000Y-63050000D01*
X167300000Y-65500000D02*
X166800000Y-65500000D01*
X167300000Y-65600000D02*
X166800000Y-65600000D01*
X167300000Y-67500000D02*
X166800000Y-67500000D01*
X167300000Y-67600000D02*
X166800000Y-67600000D01*
X167300000Y-69500000D02*
X166800000Y-69500000D01*
X167300000Y-69600000D02*
X166800000Y-69600000D01*
X167300000Y-71500000D02*
X166800000Y-71500000D01*
X167300000Y-71600000D02*
X166800000Y-71600000D01*
X167300000Y-73500000D02*
X166800000Y-73500000D01*
X167300000Y-73600000D02*
X166800000Y-73600000D01*
X167300000Y-75500000D02*
X166800000Y-75500000D01*
X167300000Y-75600000D02*
X166800000Y-75600000D01*
X167300000Y-77500000D02*
X166800000Y-77500000D01*
X167300000Y-77600000D02*
X166800000Y-77600000D01*
X167300000Y-79950000D02*
X167300000Y-63050000D01*
X167910000Y-62440000D02*
X163190000Y-62440000D01*
X167910000Y-80560000D02*
X167910000Y-62440000D01*
%TO.C,Pumps1*%
X100940000Y-47590000D02*
X100940000Y-52310000D01*
X100940000Y-49700000D02*
X101550000Y-49700000D01*
X100940000Y-51000000D02*
X101550000Y-51000000D01*
X100940000Y-52310000D02*
X111060000Y-52310000D01*
X101550000Y-48200000D02*
X101550000Y-51700000D01*
X101550000Y-51700000D02*
X103500000Y-51700000D01*
X103500000Y-51700000D02*
X103500000Y-52310000D01*
X103900000Y-48700000D02*
X103900000Y-48200000D01*
X104000000Y-48200000D02*
X104000000Y-48700000D01*
X104100000Y-48200000D02*
X104100000Y-48700000D01*
X104100000Y-48700000D02*
X103900000Y-48700000D01*
X105900000Y-48700000D02*
X105900000Y-48200000D01*
X106000000Y-48200000D02*
X106000000Y-48700000D01*
X106100000Y-48200000D02*
X106100000Y-48700000D01*
X106100000Y-48700000D02*
X105900000Y-48700000D01*
X107900000Y-48700000D02*
X107900000Y-48200000D01*
X108000000Y-48200000D02*
X108000000Y-48700000D01*
X108100000Y-48200000D02*
X108100000Y-48700000D01*
X108100000Y-48700000D02*
X107900000Y-48700000D01*
X108500000Y-51700000D02*
X110450000Y-51700000D01*
X108500000Y-52310000D02*
X108500000Y-51700000D01*
X109300000Y-52310000D02*
X109300000Y-52510000D01*
X109300000Y-52410000D02*
X109600000Y-52410000D01*
X109300000Y-52510000D02*
X109600000Y-52510000D01*
X109600000Y-52510000D02*
X109600000Y-52310000D01*
X110110000Y-52610000D02*
X111360000Y-52610000D01*
X110450000Y-48200000D02*
X101550000Y-48200000D01*
X110450000Y-51700000D02*
X110450000Y-48200000D01*
X111060000Y-47590000D02*
X100940000Y-47590000D01*
X111060000Y-49700000D02*
X110450000Y-49700000D01*
X111060000Y-51000000D02*
X110450000Y-51000000D01*
X111060000Y-52310000D02*
X111060000Y-47590000D01*
X111360000Y-52610000D02*
X111360000Y-51360000D01*
%TO.C,OD1*%
X139178000Y-52352000D02*
X139178000Y-57072000D01*
X139178000Y-54462000D02*
X139788000Y-54462000D01*
X139178000Y-55762000D02*
X139788000Y-55762000D01*
X139178000Y-57072000D02*
X149298000Y-57072000D01*
X139788000Y-52962000D02*
X139788000Y-56462000D01*
X139788000Y-56462000D02*
X141738000Y-56462000D01*
X141738000Y-56462000D02*
X141738000Y-57072000D01*
X142138000Y-53462000D02*
X142138000Y-52962000D01*
X142238000Y-52962000D02*
X142238000Y-53462000D01*
X142338000Y-52962000D02*
X142338000Y-53462000D01*
X142338000Y-53462000D02*
X142138000Y-53462000D01*
X144138000Y-53462000D02*
X144138000Y-52962000D01*
X144238000Y-52962000D02*
X144238000Y-53462000D01*
X144338000Y-52962000D02*
X144338000Y-53462000D01*
X144338000Y-53462000D02*
X144138000Y-53462000D01*
X146138000Y-53462000D02*
X146138000Y-52962000D01*
X146238000Y-52962000D02*
X146238000Y-53462000D01*
X146338000Y-52962000D02*
X146338000Y-53462000D01*
X146338000Y-53462000D02*
X146138000Y-53462000D01*
X146738000Y-56462000D02*
X148688000Y-56462000D01*
X146738000Y-57072000D02*
X146738000Y-56462000D01*
X147538000Y-57072000D02*
X147538000Y-57272000D01*
X147538000Y-57172000D02*
X147838000Y-57172000D01*
X147538000Y-57272000D02*
X147838000Y-57272000D01*
X147838000Y-57272000D02*
X147838000Y-57072000D01*
X148348000Y-57372000D02*
X149598000Y-57372000D01*
X148688000Y-52962000D02*
X139788000Y-52962000D01*
X148688000Y-56462000D02*
X148688000Y-52962000D01*
X149298000Y-52352000D02*
X139178000Y-52352000D01*
X149298000Y-54462000D02*
X148688000Y-54462000D01*
X149298000Y-55762000D02*
X148688000Y-55762000D01*
X149298000Y-57072000D02*
X149298000Y-52352000D01*
X149598000Y-57372000D02*
X149598000Y-56122000D01*
%TO.C,R5*%
X138625000Y-61000000D02*
X139395000Y-61000000D01*
X139395000Y-59630000D02*
X139395000Y-62370000D01*
X139395000Y-62370000D02*
X145935000Y-62370000D01*
X145935000Y-59630000D02*
X139395000Y-59630000D01*
X145935000Y-62370000D02*
X145935000Y-59630000D01*
X146705000Y-61000000D02*
X145935000Y-61000000D01*
%TO.C,LCD1*%
X100640000Y-94390000D02*
X100640000Y-95640000D01*
X100940000Y-94690000D02*
X100940000Y-99410000D01*
X100940000Y-96000000D02*
X101550000Y-96000000D01*
X100940000Y-97300000D02*
X101550000Y-97300000D01*
X100940000Y-99410000D02*
X111060000Y-99410000D01*
X101550000Y-95300000D02*
X101550000Y-98800000D01*
X101550000Y-98800000D02*
X110450000Y-98800000D01*
X101890000Y-94390000D02*
X100640000Y-94390000D01*
X102400000Y-94490000D02*
X102400000Y-94690000D01*
X102700000Y-94490000D02*
X102400000Y-94490000D01*
X102700000Y-94590000D02*
X102400000Y-94590000D01*
X102700000Y-94690000D02*
X102700000Y-94490000D01*
X103500000Y-94690000D02*
X103500000Y-95300000D01*
X103500000Y-95300000D02*
X101550000Y-95300000D01*
X103900000Y-98300000D02*
X104100000Y-98300000D01*
X103900000Y-98800000D02*
X103900000Y-98300000D01*
X104000000Y-98800000D02*
X104000000Y-98300000D01*
X104100000Y-98300000D02*
X104100000Y-98800000D01*
X105900000Y-98300000D02*
X106100000Y-98300000D01*
X105900000Y-98800000D02*
X105900000Y-98300000D01*
X106000000Y-98800000D02*
X106000000Y-98300000D01*
X106100000Y-98300000D02*
X106100000Y-98800000D01*
X107900000Y-98300000D02*
X108100000Y-98300000D01*
X107900000Y-98800000D02*
X107900000Y-98300000D01*
X108000000Y-98800000D02*
X108000000Y-98300000D01*
X108100000Y-98300000D02*
X108100000Y-98800000D01*
X108500000Y-95300000D02*
X108500000Y-94690000D01*
X110450000Y-95300000D02*
X108500000Y-95300000D01*
X110450000Y-98800000D02*
X110450000Y-95300000D01*
X111060000Y-94690000D02*
X100940000Y-94690000D01*
X111060000Y-96000000D02*
X110450000Y-96000000D01*
X111060000Y-97300000D02*
X110450000Y-97300000D01*
X111060000Y-99410000D02*
X111060000Y-94690000D01*
%TO.C,D2*%
X120780000Y-65030000D02*
X120780000Y-65160000D01*
X120780000Y-67970000D02*
X120780000Y-67840000D01*
X125200000Y-67970000D02*
X125200000Y-65030000D01*
X125320000Y-67970000D02*
X125320000Y-65030000D01*
X125440000Y-67970000D02*
X125440000Y-65030000D01*
X126220000Y-65030000D02*
X120780000Y-65030000D01*
X126220000Y-65160000D02*
X126220000Y-65030000D01*
X126220000Y-67840000D02*
X126220000Y-67970000D01*
X126220000Y-67970000D02*
X120780000Y-67970000D01*
%TO.C,R2*%
X119460000Y-63000000D02*
X120230000Y-63000000D01*
X120230000Y-61630000D02*
X120230000Y-64370000D01*
X120230000Y-64370000D02*
X126770000Y-64370000D01*
X126770000Y-61630000D02*
X120230000Y-61630000D01*
X126770000Y-64370000D02*
X126770000Y-61630000D01*
X127540000Y-63000000D02*
X126770000Y-63000000D01*
%TO.C,C3*%
X159270000Y-60750000D02*
G75*
G02*
X152730000Y-60750000I-3270000J0D01*
G01*
X152730000Y-60750000D02*
G75*
G02*
X159270000Y-60750000I3270000J0D01*
G01*
%TD*%
M02*
